<?xml version="1.0" encoding="utf-8"?>
<!-- Generator: Adobe Illustrator 20.0.0, SVG Export Plug-In . SVG Version: 6.00 Build 0)  -->
<svg version="1.1" id="Calque_1" xmlns="http://www.w3.org/2000/svg" xmlns:xlink="http://www.w3.org/1999/xlink" x="0px" y="0px"
	 viewBox="0 0 300 300" width="300" height="300" style="enable-background:new 0 0 300 300;" xml:space="preserve">
<style type="text/css">
	.st0{fill:#EE740D;}
	.st1{fill:#EE7610;}
</style>
<g>
	<path class="st0" d="M166.1,34c0.2-1,0.4-2,0.7-3c-4-1.4-8-2.9-12.1-4c-1-0.3-2.5,0.9-3.7,1.5c0.8,1.2,1.3,3.1,2.3,3.4
		C157.4,32.8,161.8,33.3,166.1,34 M79.7,121.4c-0.8-0.4-1.6-0.9-2.4-1.3c-1.7,1.4-4.8,2.7-4.9,4.3c-0.5,7.4-0.2,14.9-0.2,22.4
		c0.7,0,1.4,0.1,2.1,0.2C76.1,138.4,77.9,129.9,79.7,121.4 M258.5,119c0.1,0,0.8,0.3,1.5,0.1c7-1.7,14.3-15.8,13.9-21.7
		c-0.4-4.9-4.9-5.8-9.2-5.8c-4.3-0.1-5.5,2.2-5.4,6.2C259.3,104.6,258.8,111.5,258.5,119 M150.6,92.7c1.6,7.1,2.8,13.5,4.5,19.7
		c1.1,3.9,3.9,6,7.9,3.4c6.5-4.2,7.5-10.7,7.1-17.7c-0.3-5.5-1.7-10.1-7.5-12.4c-1.3-0.5-2.8-2.7-2.7-4c1.4-12.1,3.2-24.2,4.7-36.4
		c0.2-1.9,0-4.8-1.2-5.6c-1.3-0.9-4.2-0.5-5.7,0.5c-2,1.2-3.9,3.3-4.8,5.4c-3,7.4-6,14.9-8.3,22.6c-3.9,13.2-8.5,25.4-24.6,27.7
		c-2.4,0.3-4.5,2.2-6.9,3c-3.6,1.1-7.4,2.8-11.1,2.6c-3.1-0.2-5.8-0.8-7.2,2.4c-0.6,1.3-0.5,4.1,0.3,4.5c2.4,1.3,5.4,2.8,7.8,2.3
		c4.6-0.9,9.1-2.8,13.5-4.7c5.1-2.3,10.1-5,16.2-8c-3.4,7.9-5.8,14.8-9.4,21.1c-3.8,6.8-8.4,13.2-13.4,19.3
		c-3.2,3.9-9.4,4.1-12.6,1.3c-4.1-3.6-4.6-7.7-1.8-12.4c0.5-0.9,0.9-1.9,1.4-2.8c-0.3-0.6-0.6-1.1-1-1.7c-1.9,0.7-4.4,0.9-5.4,2.2
		c-4.5,6,0.2,18,7.6,19.6c9.9,2.1,17.1-3.3,21.9-10.5c7.3-10.9,13.8-22.5,19.4-34.4C142.3,94.2,146,93.1,150.6,92.7 M262.6,176
		c0.6-7.1,0.8-14.3,1.8-21.4c0.9-6.8,2.6-13.5,3.9-20.3c0.9-4.5-1.6-8.5-5.7-9.1c-4.2-0.6-8.8,3.1-9,7.6c-0.7,16.7-7.4,32-11.6,47.8
		c-0.2,0.9-0.9,1.6-2.6,2.1c2-14.7,4-29.4,6.1-44c0.4-2.7,2.5-5.7-1.8-7.1c-3.9-1.3-7.3-0.8-9.7,2.7c-1.3,2-2.1,4.4-3.1,6.7
		c-8.8-7.2-17.1-5.2-24.7,6.1c-6.2,9.3-9.4,19.6-9.6,31.9c-5.6-8.6-10.7-16.4-15.5-24.3c-0.8-1.3-0.5-3.4-0.5-5.1
		c-0.2-4.7-2.5-7.2-7.2-7c-4.2,0.2-8.4,5-6.3,8.4c7.3,11.7-0.7,21.6-2.8,32.1c-0.7,3.7-2.2,7.2-3.3,10.3c-4.7-7.7-9.5-15.5-14-23.5
		c-1.6-2.9-2.8-6.2-3.3-9.5c-0.9-4.9-3.6-8.1-7.6-7.6c-4.3,0.5-8.2,5.2-6,9.3c7.9,14.7-2.1,25.7-7.2,37.3c-3.8,8.9-9.7,16.9-15.2,25
		c-1.5,2.2-4.8,4.3-7.2,4.3c-1.6,0-3.9-3.7-4.6-6.2c-1-4-0.9-8.3-1.3-13.2c8.8,2.9,15.9,0.9,20.4-6c5.8-8.9,8.9-18.8,4.9-29.5
		c-1.8-4.8-6.2-6.8-11.2-5.8c-6.6,1.4-11.8,5.3-15.3,10.5C83.1,194,79.6,210.7,86,228.5c2.8,7.8,8,11.8,15,10.9
		c3.5-0.5,8.2-2.7,9.8-5.5c8.7-14.7,16.6-29.8,24.6-44.8c1.6-3,2.6-6.3,4.1-10c7,8.3,11.1,17.2,12.1,27.4c0.2,2-0.6,4.2-1.4,6.1
		c-2.7,6.2-7.9,6.9-12,1.6c-1.7-2.2-2.6-5-4.6-9c-1.2,2.3-2.5,3.8-2.7,5.3c-0.9,7.9,2.1,13.8,7.8,16.4c5.1,2.3,13.3,0.5,17.7-4.6
		c2.8-3.3,5.2-7.3,6.6-11.3c4.8-13.7,9-27.6,13.7-42.2c6.9,8.7,12.2,17.7,11.8,29c-0.2,4.4-2,8.9-7,9.3c-4.5,0.3-7.1-3-8.1-7.5
		c-0.3-1.3-1.9-2.3-3-3.5c-0.9,1.3-2.3,2.5-2.5,3.9c-1,7.4,3.2,14.8,9.3,16.7c6.9,2.2,16.4-2.2,19.8-9.1c1.1-2.3,1.7-5,2.1-6.3
		c3.3,2.1,6.8,5.8,10.7,6.3c3.7,0.5,8.7-1.6,11.6-4.2c3.2-2.9,4.7-7.7,6.3-10.5c3.1,2.6,6.5,5.5,9.9,8.4c2.8-3.5,6.2-6.7,8.1-10.6
		c2.1-4.2,2.9-9.1,4.5-14.2c0.8,4.4,1.2,8.3,2.2,12.1c0.9,3.5,2.7,6.8,6.8,6.7c3.9-0.1,7.4-1.6,8.8-6.1c3.4-10.9,7-21.9,10.9-34
		c0.8,7.8,1.6,14.3,2.2,20.9c0.8,9.3,1.7,18.7,2.2,28.1c0.1,1.4-2,4-3.6,4.3c-29.6,7.1-59.4,13.2-88.7,21.2
		c-21.9,6-43.2,14.4-64.8,21.9c-1.1,0.4-2,1.4-3.8,2.6c27.1-6.4,53-13.5,79.3-18.5c26.3-5,53.1-7.7,80.2-11.6
		c-3.2,13.4-16,22.9-29.2,23.9c-21.6,1.6-43.1,3.8-64.7,5.6c-10.3,0.9-20.6,1.9-31,2.3c-3.9,0.1-5.9,1.5-7.7,4.6
		c-6.9,11.3-14.1,22.4-21,33.8c-2.7,4.5-6.3,7.2-11.4,5.5c-4.5-1.5-5.7-5.5-6-10.2c-0.6-9.7-1.7-19.4-2.6-29.6
		c-10.6,0.8-21.2,1-31.5,2.6c-16,2.6-25.1,1.8-34.3-4.7c7.5-7.6,7.2-18.2,10.3-27.5c2-6.2,3-12.7,4.1-19.1c0.3-1.5-0.6-3.2-0.9-4.8
		c-1.3,1.1-3.3,2-3.8,3.4c-3.3,9.6-6.3,19.3-9.4,28.9c-0.4,1.2-1.1,2.3-3.2,3.6c-0.5-2.8-1.4-5.5-1.5-8.3
		c-0.4-20.8,2.8-41.3,7.6-61.5c1.7-7.1,3.3-14.2,4.8-21.3c1.3-6.4-0.9-10.3-6-11c-5.9-0.8-10.4,2.8-11.1,8.8
		c-2.3,20.5-4.6,41.1-6.8,61.6c-0.3,2.5,0,5,0.2,7.5c-1.6-18.1-3.3-36.1-4.8-54.2c-1-11.7-1.7-23.3-2.4-35
		c-0.4-6.5-1.4-13.1-0.6-19.4c1.3-10,7.8-17.2,15.1-23.8c12-10.7,23.9-21.7,35.8-32.5C87,37.9,103.7,22.5,120.7,7.5
		c10.6-9.4,25.4-9.8,37.4-1.9c34.4,22.4,68.9,44.7,103.1,67.3c8.5,5.6,12.6,14.1,13.3,24.3c0.8,11.6,2.2,23.3,3.2,34.9
		c0.2,2.3,0.6,4.8-0.1,6.9c-4,12-8.2,23.9-12.4,35.9c-0.2,0.6-0.9,1-1.3,1.5C263.4,176.2,263,176.1,262.6,176"/>
	<path class="st1" d="M229.8,157.3c-1.9,14.4-5.2,26.2-11.4,36.9c-0.9,1.6-3.5,3.7-4.8,3.4c-1.7-0.5-3.6-2.8-4.2-4.7
		c-4.2-13.7-1.7-26.6,6.2-38.2c1.8-2.6,6.6-5.1,9.4-4.6C227.3,150.6,228.8,155.6,229.8,157.3"/>
	<path class="st0" d="M111.2,190.3c-1.9,4.1-3.1,8.3-5.6,11.4c-1.4,1.6-5,1.4-7.7,2c-0.3-2.2-1.2-4.6-0.6-6.5c1-3.2,2.7-6.4,4.7-9.1
		c1.4-1.9,3.9-2.9,6-4.4C108.9,185.7,109.9,187.8,111.2,190.3"/>
	<path class="st0" d="M160,111.6c-0.4-6.7-0.8-13.4-1.2-20.7c9.9,2.5,10.6,11.5,3.2,20.6C161.3,111.6,160.7,111.6,160,111.6"/>
	<path class="st0" d="M152.1,71.7c1,12.8,0.2,14.7-5.9,15.1C148.2,81.6,150.1,76.7,152.1,71.7"/>
</g>
</svg>
