<?xml version="1.0" encoding="utf-8"?>
<!-- Generator: Adobe Illustrator 20.0.0, SVG Export Plug-In . SVG Version: 6.00 Build 0)  -->
<svg version="1.1" id="Layer_1" xmlns="http://www.w3.org/2000/svg" xmlns:xlink="http://www.w3.org/1999/xlink" x="0px" y="0px"
	 viewBox="0 0 120 90" style="enable-background:new 0 0 120 90;" xml:space="preserve">
<style type="text/css">
	.st0{fill:#00C0E6;}
	.st1{fill:#22292C;}
</style>
<path class="st0" d="M83.9,33.1V36H80v-2.9c0-1.7-1.5-4.1-2.9-5.1L61.9,16.8c-0.5-0.4-1.3-0.6-2.1-0.6c-0.8,0-1.6,0.2-2.2,0.7
	L42.2,28.7c-1.3,1-2.8,3.5-2.8,5.2V36h-3.9v-2.2c0-3,1.8-6.7,4.2-8.5l15.4-11.8c1.3-1,3-1.5,4.7-1.5c1.7,0,3.3,0.5,4.6,1.4L79,24.7
	C81.4,26.4,83.9,30.1,83.9,33.1z M80,58.5v4c0,1.2-1,2.1-2.1,2.1H59.6l-0.1,0.2L53,73.1v-4.3h0v-4.2H42c-1.2,0-2.1-1-2.1-2.1v-4
	h-3.9v4c0,3.5,2.8,6.3,6.3,6.3h8.6v7.4c0,0.4,0.3,0.8,0.7,1c0.1,0,0.2,0.1,0.3,0.1c0.3,0,0.6-0.1,0.8-0.4l6.3-8h18.6
	c3.5,0,6.3-2.8,6.3-6.3v-4L80,58.5L80,58.5z"/>
<path class="st1" d="M11.9,52c-0.6,0.7-1.4,1.3-2.3,1.7c-0.9,0.4-1.9,0.6-2.9,0.6c-0.9,0-1.8-0.2-2.6-0.5C3.3,53.4,2.6,53,2,52.4
	c-0.6-0.6-1.1-1.3-1.4-2.1C0.2,49.4,0,48.6,0,47.6c0-0.9,0.2-1.8,0.5-2.6c0.3-0.8,0.8-1.5,1.4-2.1c0.6-0.6,1.3-1.1,2.1-1.4
	c0.8-0.3,1.7-0.5,2.6-0.5c1,0,1.9,0.2,2.8,0.5c0.9,0.4,1.6,0.9,2.3,1.6l-2.1,2.2c-0.3-0.4-0.7-0.8-1.2-1.1c-0.5-0.3-1-0.4-1.7-0.4
	c-0.5,0-0.9,0.1-1.4,0.3c-0.4,0.2-0.8,0.5-1.1,0.8c-0.3,0.3-0.6,0.8-0.8,1.2c-0.2,0.5-0.3,1-0.3,1.5c0,0.5,0.1,1,0.3,1.5
	c0.2,0.5,0.4,0.9,0.8,1.2c0.3,0.3,0.7,0.6,1.1,0.8c0.4,0.2,0.9,0.3,1.4,0.3c0.6,0,1.2-0.2,1.7-0.5c0.5-0.3,0.9-0.7,1.2-1.2L11.9,52z
	 M24,46.9c0-1.1-0.1-2-0.3-2.6c-0.2-0.7-0.6-1.3-1.2-1.9c-0.4-0.4-1-0.8-1.7-1.1c-0.7-0.3-1.5-0.4-2.4-0.4c-0.9,0-1.9,0.2-2.7,0.5
	c-0.9,0.4-1.7,0.9-2.3,1.5l1.9,1.9c0.5-0.4,0.9-0.7,1.4-0.9c0.5-0.2,0.9-0.2,1.4-0.2c0.9,0,1.6,0.2,2.1,0.7c0.5,0.4,0.7,1,0.7,1.8
	H19c-0.8,0-1.6,0.1-2.3,0.3c-0.7,0.2-1.4,0.4-1.9,0.8c-0.5,0.4-1,0.8-1.3,1.3c-0.3,0.5-0.5,1.2-0.5,1.9c0,0.6,0.1,1.1,0.3,1.6
	c0.2,0.5,0.5,0.9,0.8,1.2c0.4,0.3,0.8,0.6,1.3,0.8c0.5,0.2,1.1,0.3,1.7,0.3c0.7,0,1.3-0.1,1.9-0.2c0.6-0.1,1.2-0.4,1.8-0.8V54H24
	V46.9z M20.9,50.8c-0.5,0.3-0.9,0.5-1.4,0.6c-0.5,0.1-0.9,0.2-1.4,0.2c-0.5,0-1-0.1-1.3-0.4c-0.3-0.3-0.5-0.6-0.5-1.1
	c0-0.3,0.1-0.6,0.3-0.8c0.2-0.2,0.4-0.4,0.7-0.5c0.3-0.1,0.6-0.2,1-0.3c0.4-0.1,0.8-0.1,1.2-0.1h1.5L20.9,50.8 M44.4,41.2h-3.2V54
	h3.2V41.2z M54.7,35.7c-0.7-0.2-1.5-0.3-2.4-0.3c-1.5,0-2.6,0.4-3.2,1.3c-0.6,0.8-0.9,2.1-0.9,3.7v1h-1.5V44h1.5V54h3.2V44h2v-2.8
	h-2v-1c0-0.7,0.1-1.2,0.4-1.5c0.3-0.3,0.7-0.4,1.3-0.4c0.3,0,0.5,0,0.8,0.1c0.2,0,0.5,0.1,0.8,0.2V35.7z M65,42.6
	c-0.5-0.5-1-0.9-1.5-1.2c-0.5-0.3-1.1-0.5-1.6-0.5c-0.6,0-1.1,0.1-1.6,0.4c-0.5,0.3-0.9,0.7-1.3,1.3v-1.4h-3.2V54H59v-7.2
	c0-0.5,0.1-1,0.2-1.3c0.1-0.4,0.3-0.7,0.5-0.9c0.2-0.2,0.4-0.4,0.7-0.5c0.2-0.1,0.5-0.1,0.7-0.1c0.4,0,0.8,0.1,1.1,0.4
	c0.4,0.3,0.7,0.6,1,0.9L65,42.6 M76.7,46.9c0-1.1-0.1-2-0.3-2.6c-0.2-0.7-0.6-1.3-1.2-1.9c-0.4-0.4-1-0.8-1.7-1.1
	c-0.7-0.3-1.5-0.4-2.3-0.4c-0.9,0-1.9,0.2-2.7,0.5c-0.9,0.4-1.7,0.9-2.3,1.5l1.9,1.9c0.5-0.4,0.9-0.7,1.4-0.9
	c0.5-0.2,0.9-0.2,1.4-0.2c0.9,0,1.6,0.2,2.1,0.7c0.5,0.4,0.7,1,0.7,1.8h-1.8c-0.8,0-1.6,0.1-2.3,0.3c-0.7,0.2-1.4,0.4-1.9,0.8
	c-0.5,0.4-1,0.8-1.3,1.3c-0.3,0.5-0.5,1.2-0.5,1.9c0,0.6,0.1,1.1,0.3,1.6c0.2,0.5,0.5,0.9,0.8,1.2c0.4,0.3,0.8,0.6,1.3,0.8
	c0.5,0.2,1.1,0.3,1.7,0.3c0.7,0,1.3-0.1,1.9-0.2c0.6-0.1,1.2-0.4,1.8-0.8V54h3.2L76.7,46.9L76.7,46.9z M73.5,50.8
	c-0.5,0.3-0.9,0.5-1.4,0.6c-0.5,0.1-0.9,0.2-1.4,0.2c-0.5,0-1-0.1-1.3-0.4c-0.3-0.3-0.5-0.6-0.5-1.1c0-0.3,0.1-0.6,0.3-0.8
	c0.2-0.2,0.4-0.4,0.7-0.5c0.3-0.1,0.6-0.2,1-0.3c0.4-0.1,0.8-0.1,1.2-0.1h1.5V50.8 M102.9,49.8c-0.3,0.5-0.7,0.9-1.2,1.2
	c-0.5,0.3-1.1,0.5-1.7,0.5c-0.5,0-0.9-0.1-1.4-0.3c-0.4-0.2-0.8-0.5-1.1-0.8c-0.3-0.3-0.6-0.8-0.8-1.2c-0.2-0.5-0.3-1-0.3-1.5
	c0-0.5,0.1-1,0.3-1.5c0.2-0.5,0.5-0.9,0.8-1.2c0.3-0.3,0.7-0.6,1.1-0.8c0.4-0.2,0.9-0.3,1.4-0.3c0.7,0,1.2,0.1,1.7,0.4
	c0.5,0.3,0.9,0.6,1.2,1.1l2.1-2.2c-0.6-0.7-1.4-1.3-2.3-1.6c-0.9-0.4-1.8-0.5-2.8-0.5c-0.9,0-1.8,0.2-2.6,0.5
	c-0.8,0.3-1.5,0.8-2.1,1.4c-0.6,0.6-1.1,1.3-1.4,2.1c-0.3,0.8-0.5,1.7-0.5,2.6c0,1,0.2,1.8,0.5,2.7c0.4,0.8,0.8,1.5,1.4,2.1
	c0.6,0.6,1.3,1.1,2.1,1.4c0.8,0.3,1.7,0.5,2.6,0.5c1,0,1.9-0.2,2.9-0.6c0.9-0.4,1.7-0.9,2.3-1.7L102.9,49.8z M120,47.6
	c0-1-0.2-1.9-0.5-2.7c-0.4-0.8-0.9-1.5-1.5-2.1c-0.6-0.6-1.4-1-2.2-1.4c-0.8-0.3-1.7-0.5-2.6-0.5c-0.9,0-1.8,0.2-2.6,0.5
	c-0.8,0.4-1.5,0.8-2.2,1.4c-0.6,0.6-1.1,1.3-1.5,2.1c-0.4,0.8-0.5,1.7-0.5,2.6c0,0.9,0.2,1.8,0.5,2.6c0.4,0.8,0.8,1.5,1.4,2.1
	c0.6,0.6,1.3,1.1,2.2,1.4c0.8,0.4,1.7,0.5,2.7,0.5c0.9,0,1.8-0.1,2.7-0.4c0.8-0.3,1.7-0.7,2.6-1.4l-2-2c-0.4,0.3-0.9,0.6-1.4,0.8
	c-0.6,0.2-1.1,0.3-1.7,0.3c-0.5,0-0.9-0.1-1.3-0.2c-0.4-0.1-0.7-0.3-1-0.6c-0.3-0.2-0.6-0.5-0.8-0.9c-0.2-0.3-0.4-0.7-0.5-1h10.2
	c0-0.2,0.1-0.5,0.1-0.7C120,48,120,47.8,120,47.6 M109.7,46.3c0.2-0.8,0.7-1.5,1.3-1.9c0.6-0.5,1.3-0.7,2.1-0.7
	c0.8,0,1.5,0.2,2.2,0.7c0.6,0.5,1.1,1.1,1.3,1.9H109.7z M44.4,37.4c0-0.9-0.7-1.6-1.6-1.6c-0.9,0-1.6,0.7-1.6,1.6
	c0,0.9,0.7,1.6,1.6,1.6C43.7,39,44.4,38.3,44.4,37.4 M38.4,45c0.3,0.8,0.5,1.7,0.5,2.7c0,0.9-0.2,1.7-0.5,2.6
	c-0.3,0.8-0.7,1.5-1.3,2.1c-0.5,0.6-1.2,1.1-1.9,1.5c-0.8,0.4-1.6,0.5-2.5,0.5c-0.6,0-1.1-0.1-1.6-0.2c-0.5-0.2-0.9-0.4-1.4-0.7l0,5
	l-3.1,1.2h-0.1V41.2h3.2l0,0.7c0.4-0.3,0.8-0.5,1.3-0.7c0.5-0.2,1-0.3,1.6-0.3c0.8,0,1.5,0.2,2.3,0.5c0.7,0.3,1.4,0.8,2,1.4
	C37.6,43.4,38.1,44.2,38.4,45 M35.4,49.2c0.2-0.5,0.3-1,0.3-1.6c0-0.6-0.1-1.1-0.3-1.6c-0.2-0.5-0.4-0.9-0.7-1.2
	c-0.3-0.3-0.7-0.6-1.1-0.8c-0.4-0.2-0.9-0.3-1.4-0.3c-0.3,0-0.7,0.1-1.2,0.2c-0.4,0.1-0.8,0.3-1.1,0.6v6.1c0.7,0.6,1.5,0.9,2.3,0.9
	c0.5,0,1-0.1,1.4-0.3c0.4-0.2,0.8-0.5,1.1-0.8C35,50.1,35.3,49.7,35.4,49.2 M85.2,40.9c-5.9,0-6,4.6-6,4.6V54l3.3,0v-8.2
	c0-1.8,2.7-1.8,2.7-1.8s2.7,0,2.7,1.8V54l3.3,0v-8.5C91.2,45.5,91.1,40.9,85.2,40.9"/>
</svg>
