<?xml version="1.0" encoding="utf-8"?>
<!-- Generator: Adobe Illustrator 20.0.0, SVG Export Plug-In . SVG Version: 6.00 Build 0)  -->
<svg version="1.1" id="Calque_1" xmlns="http://www.w3.org/2000/svg" xmlns:xlink="http://www.w3.org/1999/xlink" x="0px" y="0px"
	 viewBox="0 0 672 342" style="enable-background:new 0 0 672 342;" xml:space="preserve">
<style type="text/css">
	.st0{fill:#4B4D4E;}
	.st1{fill:#0D92D2;}
	.st2{fill:#1392D1;}
</style>
<g id="ui-cursor_1_">
	<g>
		<path class="st0" d="M292.9,334.1c-0.3,0-0.6,0-0.9-0.1l-17-5.7c-0.7-0.2-1.3-0.8-1.7-1.5c-0.3-0.7-0.4-1.5-0.1-2.2l21.1-52.8
			h-32.7c-1.1,0-2.2-0.7-2.6-1.7c-0.5-1-0.2-2.2,0.5-3.1l79.4-85.1c0.8-0.9,2-1.1,3.1-0.7c1.1,0.4,1.8,1.5,1.8,2.6v107.8
			c0,1-0.6,2-1.5,2.5c-0.9,0.5-2,0.4-2.9-0.1l-22.6-15.1l-21.4,53.5C295.1,333.4,294,334.1,292.9,334.1z M279.6,323.8l11.6,3.9
			l21.7-54.2c0.3-0.8,1-1.4,1.8-1.7c0.8-0.3,1.7-0.1,2.4,0.3l21.1,14.1V191L268.2,266h30.3c0.9,0,1.8,0.5,2.3,1.2
			c0.5,0.8,0.6,1.8,0.3,2.6L279.6,323.8z"/>
	</g>
</g>
<g id="net-wifi-computer_1_">
	<g>
		<path class="st0" d="M548.6,242.5c-0.2,0-0.5,0-0.7-0.1c-1.5-0.4-2.4-1.9-2.1-3.4l2.8-11.3c0.4-1.5,1.9-2.4,3.4-2.1
			c1.5,0.4,2.4,1.9,2.1,3.4l-2.8,11.3C551,241.6,549.8,242.5,548.6,242.5z"/>
	</g>
	<g>
		<path class="st0" d="M588.3,242.5c-1.3,0-2.4-0.9-2.8-2.1l-2.8-11.3c-0.4-1.5,0.5-3.1,2.1-3.4c1.5-0.4,3.1,0.5,3.4,2.1L591,239
			c0.4,1.5-0.5,3.1-2.1,3.4C588.7,242.5,588.5,242.5,588.3,242.5z"/>
	</g>
	<g>
		<path class="st0" d="M645,191.4H491.8c-1.6,0-2.8-1.3-2.8-2.8s1.3-2.8,2.8-2.8H645c1.6,0,2.8,1.3,2.8,2.8S646.6,191.4,645,191.4z"
			/>
	</g>
	<g>
		<path class="st0" d="M636.5,219.8H500.3c-6.3,0-11.3-5.1-11.3-11.3V112c0-6.3,5.1-11.3,11.3-11.3h51.1c1.6,0,2.8,1.3,2.8,2.8
			s-1.3,2.8-2.8,2.8h-51.1c-3.1,0-5.7,2.5-5.7,5.7v96.4c0,3.1,2.5,5.7,5.7,5.7h136.1c3.1,0,5.7-2.5,5.7-5.7v-42.5
			c0-1.6,1.3-2.8,2.8-2.8c1.6,0,2.8,1.3,2.8,2.8v42.5C647.8,214.7,642.7,219.8,636.5,219.8z"/>
	</g>
	<g>
		<path class="st0" d="M568.4,208.5c-3.1,0-5.7-2.5-5.7-5.7s2.5-5.7,5.7-5.7c3.1,0,5.7,2.5,5.7,5.7S571.5,208.5,568.4,208.5z
			 M568.4,202.8L568.4,202.8L568.4,202.8z"/>
	</g>
	<g>
		<path class="st0" d="M582.6,248.2h-28.4c-1.6,0-2.8-1.3-2.8-2.8s1.3-2.8,2.8-2.8h28.4c1.6,0,2.8,1.3,2.8,2.8
			S584.2,248.2,582.6,248.2z"/>
	</g>
	<g>
		<path class="st0" d="M554.2,248.2c-4.7,0-8.5-3.8-8.5-8.5c0-1.6,1.3-2.8,2.8-2.8c1.6,0,2.8,1.3,2.8,2.8c0,1.6,1.3,2.8,2.8,2.8
			c1.6,0,2.8,1.3,2.8,2.8S555.8,248.2,554.2,248.2z"/>
	</g>
	<g>
		<path class="st0" d="M582.6,248.2c-1.6,0-2.8-1.3-2.8-2.8s1.3-2.8,2.8-2.8c1.6,0,2.8-1.3,2.8-2.8c0-1.6,1.3-2.8,2.8-2.8
			c1.6,0,2.8,1.3,2.8,2.8C591.1,244.4,587.3,248.2,582.6,248.2z"/>
	</g>
</g>
<g id="tel-chat_1_">
	<g>
		<path class="st0" d="M154.5,246.1H92.1c-6.3,0-11.3-5.1-11.3-11.3v-53.9c0-1.6,1.3-2.8,2.8-2.8s2.8,1.3,2.8,2.8v53.9
			c0,3.1,2.5,5.7,5.7,5.7h62.4c3.1,0,5.7-2.5,5.7-5.7V110c0-3.1-2.5-5.7-5.7-5.7h-36.9c-1.6,0-2.8-1.3-2.8-2.8s1.3-2.8,2.8-2.8h36.9
			c6.3,0,11.3,5.1,11.3,11.3v124.8C165.8,241,160.7,246.1,154.5,246.1z"/>
	</g>
	<g>
		<path class="st0" d="M163,223.4H83.6c-1.6,0-2.8-1.3-2.8-2.8s1.3-2.8,2.8-2.8H163c1.6,0,2.8,1.3,2.8,2.8S164.5,223.4,163,223.4z"
			/>
	</g>
	<g>
		<path class="st0" d="M163,127h-45.4c-1.6,0-2.8-1.3-2.8-2.8s1.3-2.8,2.8-2.8H163c1.6,0,2.8,1.3,2.8,2.8S164.5,127,163,127z"/>
	</g>
	<g>
		<path class="st0" d="M128.9,115.7h-11.3c-1.6,0-2.8-1.3-2.8-2.8s1.3-2.8,2.8-2.8h11.3c1.6,0,2.8,1.3,2.8,2.8
			S130.5,115.7,128.9,115.7z"/>
	</g>
	<g>
		<path class="st0" d="M140.3,115.7c-0.2,0-0.4,0-0.6,0c-0.2,0-0.4-0.1-0.5-0.2c-0.2-0.1-0.3-0.2-0.5-0.3c-0.2-0.1-0.3-0.2-0.4-0.3
			c-0.1-0.1-0.2-0.3-0.3-0.4c-0.1-0.2-0.2-0.3-0.3-0.5c-0.1-0.2-0.1-0.3-0.2-0.5c0-0.2-0.1-0.4-0.1-0.6s0-0.4,0.1-0.6
			c0-0.2,0.1-0.4,0.2-0.5c0.1-0.2,0.2-0.3,0.3-0.5c0.1-0.2,0.2-0.3,0.3-0.4c0.1-0.1,0.3-0.3,0.4-0.4c0.2-0.1,0.3-0.2,0.5-0.3
			c0.2-0.1,0.3-0.1,0.5-0.2c0.4-0.1,0.7-0.1,1.1,0c0.2,0,0.4,0.1,0.5,0.2c0.2,0.1,0.3,0.2,0.5,0.3c0.2,0.1,0.3,0.2,0.4,0.4
			c0.1,0.1,0.2,0.3,0.3,0.4c0.1,0.2,0.2,0.3,0.3,0.5c0.1,0.2,0.1,0.3,0.2,0.5c0,0.2,0.1,0.4,0.1,0.6s0,0.4-0.1,0.6
			c0,0.2-0.1,0.4-0.2,0.5c-0.1,0.2-0.2,0.3-0.3,0.5c-0.1,0.2-0.2,0.3-0.3,0.4c-0.1,0.1-0.3,0.2-0.4,0.3c-0.2,0.1-0.3,0.2-0.5,0.3
			c-0.2,0.1-0.3,0.1-0.5,0.2C140.7,115.6,140.5,115.7,140.3,115.7z"/>
	</g>
	<g>
		<path class="st0" d="M128.9,234.8h-11.3c-1.6,0-2.8-1.3-2.8-2.8s1.3-2.8,2.8-2.8h11.3c1.6,0,2.8,1.3,2.8,2.8
			S130.5,234.8,128.9,234.8z"/>
	</g>
	<g>
		<path class="st0" d="M83.6,172.4c-0.7,0-1.3-0.2-1.8-0.7l-19.1-16.3H18.3C12.1,155.4,7,150.3,7,144V98.6c0-6.3,5.1-11.3,11.3-11.3
			h79.4c6.3,0,11.3,5.1,11.3,11.3V144c0,6.3-5.1,11.3-11.3,11.3H86.4v14.2c0,1.1-0.6,2.1-1.7,2.6C84.4,172.3,84,172.4,83.6,172.4z
			 M18.3,93c-3.1,0-5.7,2.5-5.7,5.7V144c0,3.1,2.5,5.7,5.7,5.7h45.4c0.7,0,1.3,0.2,1.8,0.7l15.2,13v-10.9c0-1.6,1.3-2.8,2.8-2.8
			h14.2c3.1,0,5.7-2.5,5.7-5.7V98.6c0-3.1-2.5-5.7-5.7-5.7H18.3z"/>
	</g>
	<g>
		<path class="st0" d="M588.4,172.4c-0.4,0-0.8-0.1-1.2-0.3c-1-0.5-1.7-1.5-1.7-2.6v-14.2h-11.3c-6.3,0-11.3-5.1-11.3-11.3V98.6
			c0-6.3,5.1-11.3,11.3-11.3h79.4c6.3,0,11.3,5.1,11.3,11.3V144c0,6.3-5.1,11.3-11.3,11.3h-44.3l-19.1,16.3
			C589.8,172.2,589.1,172.4,588.4,172.4z M574.3,93c-3.1,0-5.7,2.5-5.7,5.7V144c0,3.1,2.5,5.7,5.7,5.7h14.2c1.6,0,2.8,1.3,2.8,2.8
			v10.9l15.2-13c0.5-0.4,1.2-0.7,1.8-0.7h45.4c3.1,0,5.7-2.5,5.7-5.7V98.6c0-3.1-2.5-5.7-5.7-5.7H574.3z"/>
	</g>
</g>
<g id="arr-out-2_1_">
	<g>
		<path class="st1" d="M170.4,53.6c-1.6,0-2.8-1.3-2.8-2.8v-34c0-1.6,1.3-2.8,2.8-2.8h34c1.6,0,2.8,1.3,2.8,2.8s-1.3,2.8-2.8,2.8
			h-31.2v31.2C173.2,52.3,171.9,53.6,170.4,53.6z"/>
	</g>
	<g>
		<path class="st1" d="M221.4,70.6c-0.7,0-1.5-0.3-2-0.8l-51.1-51.1c-1.1-1.1-1.1-2.9,0-4c1.1-1.1,2.9-1.1,4,0l51.1,51.1
			c1.1,1.1,1.1,2.9,0,4C222.9,70.3,222.1,70.6,221.4,70.6z"/>
	</g>
	<g>
		<path class="st1" d="M482.4,53.6c-1.6,0-2.8-1.3-2.8-2.8V19.6h-31.2c-1.6,0-2.8-1.3-2.8-2.8s1.3-2.8,2.8-2.8h34
			c1.6,0,2.8,1.3,2.8,2.8v34C485.2,52.3,483.9,53.6,482.4,53.6z"/>
	</g>
	<g>
		<path class="st1" d="M431.3,70.6c-0.7,0-1.5-0.3-2-0.8c-1.1-1.1-1.1-2.9,0-4l51.1-51.1c1.1-1.1,2.9-1.1,4,0c1.1,1.1,1.1,2.9,0,4
			l-51.1,51.1C432.7,70.3,432,70.6,431.3,70.6z"/>
	</g>
	<g>
		<path class="st1" d="M204.4,331.6h-34c-1.6,0-2.8-1.3-2.8-2.8v-34c0-1.6,1.3-2.8,2.8-2.8s2.8,1.3,2.8,2.8v31.2h31.2
			c1.6,0,2.8,1.3,2.8,2.8C207.2,330.3,206,331.6,204.4,331.6z"/>
	</g>
	<g>
		<path class="st1" d="M170.4,331.6c-0.7,0-1.5-0.3-2-0.8c-1.1-1.1-1.1-2.9,0-4l51.1-51.1c1.1-1.1,2.9-1.1,4,0c1.1,1.1,1.1,2.9,0,4
			l-51.1,51.1C171.8,331.3,171.1,331.6,170.4,331.6z"/>
	</g>
	<g>
		<path class="st1" d="M482.4,331.6h-34c-1.6,0-2.8-1.3-2.8-2.8c0-1.6,1.3-2.8,2.8-2.8h31.2v-31.2c0-1.6,1.3-2.8,2.8-2.8
			s2.8,1.3,2.8,2.8v34C485.2,330.3,483.9,331.6,482.4,331.6z"/>
	</g>
	<g>
		<path class="st1" d="M482.4,331.6c-0.7,0-1.5-0.3-2-0.8l-51.1-51.1c-1.1-1.1-1.1-2.9,0-4c1.1-1.1,2.9-1.1,4,0l51.1,51.1
			c1.1,1.1,1.1,2.9,0,4C483.8,331.3,483.1,331.6,482.4,331.6z"/>
	</g>
</g>
<g>
	<g>
		<path class="st2" d="M270.3,240.3h-20.6c-4.8,0-8.7-3.9-8.7-8.7v-12.1c0-2.6-2.1-4.6-4.6-4.6h-8.6c-2.6,0-4.6,2.1-4.6,4.6v12.1
			c0,14.7,11.9,26.6,26.6,26.6h3.8"/>
	</g>
	<g>
		<path class="st2" d="M358.1,258.1l46.9,0c14.7,0,26.6-11.9,26.6-26.6v-12.1c0-2.6-2.1-4.6-4.6-4.6h-8.6c-2.6,0-4.6,2.1-4.6,4.6
			v12.1c0,4.8-3.9,8.7-8.7,8.7l-26.5,0l-20.5,0.1V258.1z"/>
	</g>
	<g>
		<path class="st2" d="M236.3,226c2.6,0,4.6-2.1,4.6-4.6V114.1c0-2.7,1.3-5.3,3.4-6.9l77.5-59.5c1.4-1.1,3.3-1.7,5.3-1.7
			c2,0,3.9,0.6,5.3,1.7l77.8,59.5c2.1,1.6,3.4,4.2,3.4,6.9v107.2c0,2.6,2.1,4.6,4.6,4.6h8.6c2.6,0,4.6-2.1,4.6-4.6V114.1
			c0-8.2-3.9-16.1-10.4-21.1l-77.8-59.5c-4.6-3.5-10.4-5.5-16.2-5.5c-5.8,0-11.6,2-16.2,5.5L233.4,93c-6.5,5-10.4,12.9-10.4,21.1
			v107.2c0,2.6,2.1,4.6,4.6,4.6H236.3z"/>
	</g>
</g>
</svg>
