<?xml version="1.0" encoding="utf-8"?>
<!-- Generator: Adobe Illustrator 20.0.0, SVG Export Plug-In . SVG Version: 6.00 Build 0)  -->
<svg version="1.1" id="Calque_1" xmlns="http://www.w3.org/2000/svg" xmlns:xlink="http://www.w3.org/1999/xlink" x="0px" y="0px"
	 viewBox="0 0 444 150" style="enable-background:new 0 0 444 150;" xml:space="preserve">
<style type="text/css">
	.st0{fill:#0D93D2;}
	.st1{font-family:'Lato-Regular';}
	.st2{font-size:18px;}
	.st3{fill:#BCCF14;}
	.st4{fill:#7F4B98;}
</style>
<g id="_x31_">
	<g id="logo">
		<g>
			<path class="st0" d="M92.9,68.5c-0.5,0-1,0.4-1,1v2.6c0,1-0.8,1.9-1.9,1.9h-5.6H73.3l-6.9,9.2V74H57c-1,0-1.9-0.8-1.9-1.9v-2.6
				c0-0.5-0.4-1-1-1h-1.8c-0.5,0-1,0.4-1,1v2.6c0,3.1,2.5,5.7,5.7,5.7h7.8v5.4c0,0.7,0.4,1.4,1.1,1.6c0.6,0.2,1.3,0,1.7-0.5l4.9-6.4
				h17.6c3.1,0,5.7-2.5,5.7-5.7v-2.6c0-0.5-0.4-1-1-1L92.9,68.5L92.9,68.5z"/>
			<path class="st0" d="M54.1,47.9c0.5,0,1-0.4,1-1V44c0-0.6,0.3-1.1,0.7-1.5l16.5-12.7c0.3-0.2,0.7-0.4,1.1-0.4s0.8,0.1,1.1,0.4
				l16.6,12.7c0.5,0.3,0.7,0.9,0.7,1.5v2.9c0,0.5,0.4,1,1,1h1.8c0.5,0,1-0.4,1-1V44c0-1.8-0.8-3.4-2.2-4.5L76.9,26.8
				c-1-0.8-2.2-1.2-3.5-1.2c-1.2,0-2.5,0.4-3.5,1.2L53.5,39.5c-1.4,1.1-2.2,2.7-2.2,4.5v2.9c0,0.5,0.4,1,1,1H54.1z"/>
		</g>
		<g>
			<path d="M42.5,64.1h-3v-0.6c-0.5,0.4-1.1,0.6-1.7,0.7c-0.6,0.1-1.2,0.2-1.8,0.2s-1.1-0.1-1.6-0.3c-0.5-0.2-0.9-0.4-1.2-0.7
				s-0.6-0.7-0.8-1.1c-0.2-0.4-0.3-0.9-0.3-1.5c0-0.7,0.1-1.3,0.4-1.8c0.3-0.5,0.7-0.9,1.2-1.3c0.5-0.3,1.1-0.6,1.8-0.8
				s1.4-0.2,2.2-0.2h1.7c0-0.7-0.2-1.3-0.7-1.7s-1.1-0.6-2-0.6c-0.4,0-0.8,0.1-1.3,0.2c-0.4,0.2-0.9,0.4-1.3,0.8l-1.8-1.8
				c0.6-0.6,1.4-1.1,2.2-1.4c0.8-0.3,1.7-0.5,2.6-0.5c0.8,0,1.6,0.1,2.2,0.4c0.6,0.3,1.2,0.6,1.6,1c0.5,0.5,0.9,1.1,1.1,1.8
				c0.2,0.6,0.3,1.5,0.3,2.5v6.7C42.3,64.1,42.5,64.1,42.5,64.1z M39.5,61.1v-2.2h-1.4c-0.4,0-0.8,0-1.2,0.1s-0.7,0.1-0.9,0.3
				c-0.3,0.1-0.5,0.3-0.6,0.5c-0.2,0.2-0.2,0.5-0.2,0.7c0,0.4,0.2,0.7,0.5,1s0.7,0.4,1.2,0.4c0.4,0,0.9-0.1,1.3-0.2
				C38.7,61.6,39.1,61.4,39.5,61.1"/>
			<path d="M55.8,58.2c0,0.8-0.1,1.6-0.4,2.4c-0.3,0.8-0.7,1.4-1.2,2s-1.1,1-1.8,1.4c-0.7,0.3-1.5,0.5-2.3,0.5c-0.5,0-1-0.1-1.5-0.2
				s-0.9-0.4-1.3-0.7v4.9l-3,0.9V52.2h3v0.6c0.3-0.3,0.8-0.5,1.2-0.7c0.5-0.2,1-0.2,1.5-0.2c0.7,0,1.4,0.2,2.1,0.5
				c0.7,0.3,1.3,0.8,1.8,1.3c0.5,0.6,1,1.2,1.3,2C55.7,56.4,55.8,57.3,55.8,58.2 M52.8,58.2c0-0.6-0.1-1.1-0.2-1.5
				c-0.2-0.5-0.4-0.8-0.7-1.2c-0.3-0.3-0.6-0.6-1.1-0.7c-0.4-0.2-0.9-0.3-1.4-0.3c-0.3,0-0.7,0.1-1.1,0.2c-0.4,0.1-0.7,0.3-1,0.5
				v5.7c0.6,0.6,1.4,0.9,2.2,0.9c0.5,0,0.9-0.1,1.3-0.3c0.4-0.2,0.8-0.4,1-0.8c0.3-0.3,0.5-0.7,0.7-1.2
				C52.7,59.2,52.8,58.7,52.8,58.2"/>
			<rect x="57.3" y="52.2" width="3" height="11.9"/>
			<path d="M69.3,49.7c-0.3-0.1-0.5-0.2-0.8-0.2c-0.2,0-0.5-0.1-0.7-0.1c-0.6,0-1,0.1-1.2,0.4c-0.2,0.3-0.4,0.7-0.4,1.4v0.9h1.9v2.6
				h-1.9V64h-3v-9.3h-1.4v-2.6h1.4v-0.9c0-1.5,0.3-2.6,0.8-3.4c0.6-0.8,1.5-1.2,3-1.2c0.8,0,1.5,0.1,2.2,0.3L69.3,49.7L69.3,49.7z"
				/>
			<path d="M78.3,53.4l-1.6,2.5c-0.3-0.3-0.6-0.6-1-0.8s-0.7-0.4-1.1-0.4c-0.2,0-0.4,0-0.6,0.1s-0.4,0.2-0.6,0.4S73,55.7,72.9,56
				s-0.2,0.8-0.2,1.2v6.7h-3V52.2h3v1.3c0.4-0.5,0.8-0.9,1.2-1.2c0.4-0.3,0.9-0.4,1.5-0.4c0.5,0,1,0.1,1.5,0.4
				C77.4,52.6,77.9,52.9,78.3,53.4"/>
			<path d="M88.9,64.1h-3v-0.6c-0.5,0.4-1.1,0.6-1.7,0.7s-1.2,0.2-1.8,0.2c-0.6,0-1.1-0.1-1.6-0.3c-0.5-0.2-0.9-0.4-1.2-0.7
				c-0.3-0.3-0.6-0.7-0.8-1.1c-0.2-0.4-0.3-0.9-0.3-1.5c0-0.7,0.1-1.3,0.4-1.8s0.7-0.9,1.2-1.3c0.5-0.3,1.1-0.6,1.8-0.8
				c0.7-0.2,1.4-0.2,2.2-0.2h1.7c0-0.7-0.2-1.3-0.7-1.7s-1.1-0.6-2-0.6c-0.4,0-0.8,0.1-1.3,0.2c-0.4,0.2-0.9,0.4-1.3,0.8l-1.8-1.8
				c0.6-0.6,1.4-1.1,2.2-1.4c0.8-0.3,1.7-0.5,2.6-0.5c0.8,0,1.6,0.1,2.2,0.4c0.6,0.3,1.2,0.6,1.6,1c0.5,0.5,0.9,1.1,1.1,1.8
				c0.2,0.6,0.3,1.5,0.3,2.5v6.7C88.7,64.1,88.9,64.1,88.9,64.1z M85.9,61.1v-2.2h-1.4c-0.4,0-0.8,0-1.2,0.1
				c-0.4,0.1-0.7,0.1-0.9,0.3c-0.3,0.1-0.5,0.3-0.6,0.5c-0.2,0.2-0.2,0.5-0.2,0.7c0,0.4,0.2,0.7,0.5,1s0.7,0.4,1.2,0.4
				c0.4,0,0.9-0.1,1.3-0.2C85,61.6,85.4,61.4,85.9,61.1"/>
			<path d="M114.2,62.3c-0.6,0.7-1.3,1.2-2.2,1.6c-0.9,0.4-1.7,0.5-2.7,0.5c-0.9,0-1.7-0.2-2.5-0.5c-0.8-0.3-1.4-0.8-2-1.3
				c-0.6-0.6-1-1.2-1.3-2S103,59,103,58.1s0.2-1.7,0.5-2.5s0.8-1.4,1.3-2c0.6-0.6,1.2-1,2-1.3s1.6-0.5,2.5-0.5s1.8,0.2,2.6,0.5
				c0.8,0.3,1.5,0.8,2.1,1.5l-2,2c-0.3-0.4-0.7-0.7-1.1-1s-1-0.4-1.6-0.4c-0.5,0-0.9,0.1-1.3,0.3s-0.8,0.4-1.1,0.8
				c-0.3,0.3-0.6,0.7-0.7,1.1c-0.2,0.4-0.3,0.9-0.3,1.4s0.1,1,0.3,1.4c0.2,0.4,0.4,0.8,0.7,1.1c0.3,0.3,0.7,0.6,1.1,0.8
				s0.8,0.3,1.3,0.3c0.6,0,1.1-0.1,1.6-0.4c0.5-0.3,0.9-0.6,1.2-1.1L114.2,62.3z"/>
			<path d="M127.5,58.1c0,0.2,0,0.4,0,0.6c0,0.2,0,0.4-0.1,0.6h-9.5c0.1,0.3,0.3,0.7,0.5,1s0.4,0.6,0.7,0.8c0.3,0.2,0.6,0.4,1,0.5
				s0.8,0.2,1.2,0.2c0.5,0,1.1-0.1,1.6-0.3s1-0.4,1.3-0.8l1.9,1.9c-0.8,0.6-1.6,1.1-2.4,1.3c-0.8,0.3-1.6,0.4-2.5,0.4
				s-1.7-0.2-2.5-0.5c-0.8-0.3-1.5-0.8-2-1.3c-0.6-0.6-1-1.2-1.4-2c-0.3-0.8-0.5-1.6-0.5-2.4c0-0.9,0.2-1.7,0.5-2.4
				c0.3-0.8,0.8-1.4,1.4-2s1.2-1,2-1.3s1.6-0.5,2.5-0.5c0.8,0,1.6,0.2,2.4,0.5s1.4,0.7,2,1.3s1.1,1.2,1.4,2
				C127.3,56.4,127.5,57.2,127.5,58.1 M124.4,57c-0.2-0.8-0.6-1.4-1.2-1.8c-0.6-0.5-1.3-0.7-2-0.7s-1.4,0.2-2,0.7s-1,1.1-1.2,1.8
				H124.4z"/>
			<path d="M101.4,64.2h-2.9V57c0-1.3-1.1-2.4-2.4-2.4s-2.4,1.1-2.4,2.4v7.1h-2.9V57c0-2.9,2.4-5.3,5.3-5.3s5.3,2.4,5.3,5.3V64.2z"
				/>
			<path d="M60.5,49.4c0,0.9-0.7,1.6-1.6,1.6c-0.9,0-1.6-0.7-1.6-1.6c0-0.9,0.7-1.6,1.6-1.6C59.7,47.7,60.5,48.5,60.5,49.4"/>
			<path d="M30.9,62.2c-0.6,0.7-1.4,1.2-2.2,1.6c-0.9,0.4-1.8,0.6-2.8,0.6c-0.9,0-1.7-0.2-2.5-0.5c-0.8-0.3-1.5-0.8-2.1-1.3
				c-0.6-0.6-1-1.3-1.4-2c-0.3-0.8-0.5-1.6-0.5-2.6c0-0.9,0.2-1.7,0.5-2.5s0.8-1.5,1.4-2c0.6-0.6,1.3-1,2-1.4
				c0.8-0.3,1.6-0.5,2.5-0.5s1.8,0.2,2.7,0.5c0.8,0.3,1.6,0.9,2.2,1.5l-2.1,2.1c-0.3-0.4-0.7-0.7-1.1-1s-1-0.4-1.6-0.4
				c-0.5,0-0.9,0.1-1.3,0.3s-0.8,0.5-1.1,0.8c-0.3,0.3-0.6,0.7-0.8,1.2c-0.2,0.5-0.3,0.9-0.3,1.4s0.1,1,0.3,1.4
				c0.2,0.5,0.4,0.8,0.7,1.2c0.3,0.3,0.7,0.6,1.1,0.8s0.9,0.3,1.3,0.3c0.6,0,1.2-0.1,1.7-0.4c0.5-0.3,0.9-0.7,1.2-1.1L30.9,62.2z"/>
		</g>
	</g>
	<rect class="st0" width="148" height="4"/>
	<text transform="matrix(1 0 0 1 31.3481 119.2793)" class="st0 st1 st2">Immobilier</text>
	<text transform="matrix(1 0 0 1 46.8481 140.2793)" class="st0 st1 st2">Ancien</text>
</g>
<g id="_x32_">
	<g id="logo_1_">
		<g>
			<path class="st3" d="M240.9,68.5c-0.5,0-1,0.4-1,1v2.6c0,1-0.8,1.9-1.9,1.9h-5.6h-11.1l-6.9,9.2V74H205c-1,0-1.9-0.8-1.9-1.9
				v-2.6c0-0.5-0.4-1-1-1h-1.8c-0.5,0-1,0.4-1,1v2.6c0,3.1,2.5,5.7,5.7,5.7h7.8v5.4c0,0.7,0.4,1.4,1.1,1.6c0.6,0.2,1.3,0,1.7-0.5
				l4.9-6.4h17.6c3.1,0,5.7-2.5,5.7-5.7v-2.6c0-0.5-0.4-1-1-1L240.9,68.5L240.9,68.5z"/>
			<path class="st3" d="M202.1,47.9c0.5,0,1-0.4,1-1V44c0-0.6,0.3-1.1,0.7-1.5l16.5-12.7c0.3-0.2,0.7-0.4,1.1-0.4
				c0.4,0,0.8,0.1,1.1,0.4l16.6,12.7c0.5,0.3,0.7,0.9,0.7,1.5v2.9c0,0.5,0.4,1,1,1h1.8c0.5,0,1-0.4,1-1V44c0-1.8-0.8-3.4-2.2-4.5
				l-16.5-12.7c-1-0.8-2.2-1.2-3.5-1.2c-1.2,0-2.5,0.4-3.5,1.2l-16.4,12.7c-1.4,1.1-2.2,2.7-2.2,4.5v2.9c0,0.5,0.4,1,1,1H202.1z"/>
		</g>
		<g>
			<path d="M190.5,64.1h-3v-0.6c-0.5,0.4-1.1,0.6-1.7,0.7c-0.6,0.1-1.2,0.2-1.8,0.2s-1.1-0.1-1.6-0.3c-0.5-0.2-0.9-0.4-1.2-0.7
				s-0.6-0.7-0.8-1.1c-0.2-0.4-0.3-0.9-0.3-1.5c0-0.7,0.1-1.3,0.4-1.8s0.7-0.9,1.2-1.3c0.5-0.3,1.1-0.6,1.8-0.8s1.4-0.2,2.2-0.2h1.7
				c0-0.7-0.2-1.3-0.7-1.7s-1.1-0.6-2-0.6c-0.4,0-0.8,0.1-1.3,0.2c-0.4,0.2-0.9,0.4-1.3,0.8l-1.8-1.8c0.6-0.6,1.4-1.1,2.2-1.4
				c0.8-0.3,1.7-0.5,2.6-0.5c0.8,0,1.6,0.1,2.2,0.4c0.6,0.3,1.2,0.6,1.6,1c0.5,0.5,0.9,1.1,1.1,1.8c0.2,0.6,0.3,1.5,0.3,2.5v6.7
				C190.3,64.1,190.5,64.1,190.5,64.1z M187.5,61.1v-2.2h-1.4c-0.4,0-0.8,0-1.2,0.1s-0.7,0.1-0.9,0.3c-0.3,0.1-0.5,0.3-0.6,0.5
				c-0.2,0.2-0.2,0.5-0.2,0.7c0,0.4,0.2,0.7,0.5,1s0.7,0.4,1.2,0.4c0.4,0,0.9-0.1,1.3-0.2C186.7,61.6,187.1,61.4,187.5,61.1"/>
			<path d="M203.8,58.2c0,0.8-0.1,1.6-0.4,2.4c-0.3,0.8-0.7,1.4-1.2,2s-1.1,1-1.8,1.4c-0.7,0.3-1.5,0.5-2.3,0.5
				c-0.5,0-1-0.1-1.5-0.2s-0.9-0.4-1.3-0.7v4.9l-3,0.9V52.2h3v0.6c0.3-0.3,0.8-0.5,1.2-0.7c0.5-0.2,1-0.2,1.5-0.2
				c0.7,0,1.4,0.2,2.1,0.5c0.7,0.3,1.3,0.8,1.8,1.3c0.5,0.6,1,1.2,1.3,2C203.7,56.4,203.8,57.3,203.8,58.2 M200.8,58.2
				c0-0.6-0.1-1.1-0.2-1.5c-0.2-0.5-0.4-0.8-0.7-1.2c-0.3-0.3-0.6-0.6-1.1-0.7c-0.4-0.2-0.9-0.3-1.4-0.3c-0.3,0-0.7,0.1-1.1,0.2
				c-0.4,0.1-0.7,0.3-1,0.5v5.7c0.6,0.6,1.4,0.9,2.2,0.9c0.5,0,0.9-0.1,1.3-0.3c0.4-0.2,0.8-0.4,1-0.8c0.3-0.3,0.5-0.7,0.7-1.2
				C200.7,59.2,200.8,58.7,200.8,58.2"/>
			<rect x="205.3" y="52.2" width="3" height="11.9"/>
			<path d="M217.3,49.7c-0.3-0.1-0.5-0.2-0.8-0.2c-0.2,0-0.5-0.1-0.7-0.1c-0.6,0-1,0.1-1.2,0.4c-0.2,0.3-0.4,0.7-0.4,1.4v0.9h1.9
				v2.6h-1.9V64h-3v-9.3h-1.4v-2.6h1.4v-0.9c0-1.5,0.3-2.6,0.8-3.4c0.6-0.8,1.5-1.2,3-1.2c0.8,0,1.5,0.1,2.2,0.3L217.3,49.7
				L217.3,49.7z"/>
			<path d="M226.3,53.4l-1.6,2.5c-0.3-0.3-0.6-0.6-1-0.8s-0.7-0.4-1.1-0.4c-0.2,0-0.4,0-0.6,0.1c-0.2,0.1-0.4,0.2-0.6,0.4
				s-0.4,0.5-0.5,0.8s-0.2,0.8-0.2,1.2v6.7h-3V52.2h3v1.3c0.4-0.5,0.8-0.9,1.2-1.2s0.9-0.4,1.5-0.4c0.5,0,1,0.1,1.5,0.4
				C225.4,52.6,225.9,52.9,226.3,53.4"/>
			<path d="M236.9,64.1h-3v-0.6c-0.5,0.4-1.1,0.6-1.7,0.7c-0.6,0.1-1.2,0.2-1.8,0.2s-1.1-0.1-1.6-0.3c-0.5-0.2-0.9-0.4-1.2-0.7
				s-0.6-0.7-0.8-1.1c-0.2-0.4-0.3-0.9-0.3-1.5c0-0.7,0.1-1.3,0.4-1.8c0.3-0.5,0.7-0.9,1.2-1.3c0.5-0.3,1.1-0.6,1.8-0.8
				s1.4-0.2,2.2-0.2h1.7c0-0.7-0.2-1.3-0.7-1.7s-1.1-0.6-2-0.6c-0.4,0-0.8,0.1-1.3,0.2c-0.4,0.2-0.9,0.4-1.3,0.8l-1.8-1.8
				c0.6-0.6,1.4-1.1,2.2-1.4c0.8-0.3,1.7-0.5,2.6-0.5c0.8,0,1.6,0.1,2.2,0.4c0.6,0.3,1.2,0.6,1.6,1c0.5,0.5,0.9,1.1,1.1,1.8
				c0.2,0.6,0.3,1.5,0.3,2.5v6.7C236.7,64.1,236.9,64.1,236.9,64.1z M233.9,61.1v-2.2h-1.4c-0.4,0-0.8,0-1.2,0.1s-0.7,0.1-0.9,0.3
				c-0.3,0.1-0.5,0.3-0.6,0.5c-0.2,0.2-0.2,0.5-0.2,0.7c0,0.4,0.2,0.7,0.5,1s0.7,0.4,1.2,0.4c0.4,0,0.9-0.1,1.3-0.2
				C233,61.6,233.4,61.4,233.9,61.1"/>
			<path d="M262.2,62.3c-0.6,0.7-1.3,1.2-2.2,1.6s-1.7,0.5-2.7,0.5c-0.9,0-1.7-0.2-2.5-0.5c-0.8-0.3-1.4-0.8-2-1.3
				c-0.6-0.6-1-1.2-1.3-2S251,59,251,58.1s0.2-1.7,0.5-2.5s0.8-1.4,1.3-2c0.6-0.6,1.2-1,2-1.3s1.6-0.5,2.5-0.5s1.8,0.2,2.6,0.5
				c0.8,0.3,1.5,0.8,2.1,1.5l-2,2c-0.3-0.4-0.7-0.7-1.1-1s-1-0.4-1.6-0.4c-0.5,0-0.9,0.1-1.3,0.3s-0.8,0.4-1.1,0.8
				c-0.3,0.3-0.6,0.7-0.7,1.1c-0.2,0.4-0.3,0.9-0.3,1.4s0.1,1,0.3,1.4s0.4,0.8,0.7,1.1s0.7,0.6,1.1,0.8s0.8,0.3,1.3,0.3
				c0.6,0,1.1-0.1,1.6-0.4c0.5-0.3,0.9-0.6,1.2-1.1L262.2,62.3z"/>
			<path d="M275.5,58.1c0,0.2,0,0.4,0,0.6c0,0.2,0,0.4-0.1,0.6h-9.5c0.1,0.3,0.3,0.7,0.5,1s0.4,0.6,0.7,0.8c0.3,0.2,0.6,0.4,1,0.5
				s0.8,0.2,1.2,0.2c0.5,0,1.1-0.1,1.6-0.3s1-0.4,1.3-0.8l1.9,1.9c-0.8,0.6-1.6,1.1-2.4,1.3c-0.8,0.3-1.6,0.4-2.5,0.4
				s-1.7-0.2-2.5-0.5c-0.8-0.3-1.5-0.8-2-1.3c-0.6-0.6-1-1.2-1.4-2c-0.3-0.8-0.5-1.6-0.5-2.4c0-0.9,0.2-1.7,0.5-2.4
				c0.3-0.8,0.8-1.4,1.4-2s1.2-1,2-1.3s1.6-0.5,2.5-0.5c0.8,0,1.6,0.2,2.4,0.5s1.4,0.7,2,1.3s1.1,1.2,1.4,2
				C275.3,56.4,275.5,57.2,275.5,58.1 M272.4,57c-0.2-0.8-0.6-1.4-1.2-1.8c-0.6-0.5-1.3-0.7-2-0.7s-1.4,0.2-2,0.7s-1,1.1-1.2,1.8
				H272.4z"/>
			<path d="M249.4,64.2h-2.9V57c0-1.3-1.1-2.4-2.4-2.4c-1.3,0-2.4,1.1-2.4,2.4v7.1h-2.9V57c0-2.9,2.4-5.3,5.3-5.3
				c2.9,0,5.3,2.4,5.3,5.3L249.4,64.2L249.4,64.2z"/>
			<path d="M208.5,49.4c0,0.9-0.7,1.6-1.6,1.6c-0.9,0-1.6-0.7-1.6-1.6c0-0.9,0.7-1.6,1.6-1.6C207.7,47.7,208.5,48.5,208.5,49.4"/>
			<path d="M178.9,62.2c-0.6,0.7-1.4,1.2-2.2,1.6c-0.9,0.4-1.8,0.6-2.8,0.6c-0.9,0-1.7-0.2-2.5-0.5c-0.8-0.3-1.5-0.8-2.1-1.3
				c-0.6-0.6-1-1.3-1.4-2c-0.3-0.8-0.5-1.6-0.5-2.6c0-0.9,0.2-1.7,0.5-2.5s0.8-1.5,1.4-2c0.6-0.6,1.3-1,2-1.4
				c0.8-0.3,1.6-0.5,2.5-0.5s1.8,0.2,2.7,0.5c0.8,0.3,1.6,0.9,2.2,1.5l-2.1,2.1c-0.3-0.4-0.7-0.7-1.1-1s-1-0.4-1.6-0.4
				c-0.5,0-0.9,0.1-1.3,0.3c-0.4,0.2-0.8,0.5-1.1,0.8s-0.6,0.7-0.8,1.2s-0.3,0.9-0.3,1.4s0.1,1,0.3,1.4c0.2,0.5,0.4,0.8,0.7,1.2
				c0.3,0.3,0.7,0.6,1.1,0.8s0.9,0.3,1.3,0.3c0.6,0,1.2-0.1,1.7-0.4c0.5-0.3,0.9-0.7,1.2-1.1L178.9,62.2z"/>
		</g>
	</g>
	<rect x="148" class="st3" width="148" height="4"/>
	<text transform="matrix(1 0 0 1 178.8481 119.2793)" class="st3 st1 st2">Immobilier</text>
	<text transform="matrix(1 0 0 1 202.1481 140.2793)" class="st3 st1 st2">Neuf</text>
</g>
<g id="_x33_">
	<g id="logo_2_">
		<g>
			<path class="st4" d="M388.9,68.5c-0.5,0-1,0.4-1,1v2.6c0,1-0.8,1.9-1.9,1.9h-5.6h-11.1l-6.9,9.2V74H353c-1,0-1.9-0.8-1.9-1.9
				v-2.6c0-0.5-0.4-1-1-1h-1.8c-0.5,0-1,0.4-1,1v2.6c0,3.1,2.5,5.7,5.7,5.7h7.8v5.4c0,0.7,0.4,1.4,1.1,1.6c0.6,0.2,1.3,0,1.7-0.5
				l4.9-6.4h17.6c3.1,0,5.7-2.5,5.7-5.7v-2.6c0-0.5-0.4-1-1-1L388.9,68.5L388.9,68.5z"/>
			<path class="st4" d="M350.1,47.9c0.5,0,1-0.4,1-1V44c0-0.6,0.3-1.1,0.7-1.5l16.5-12.7c0.3-0.2,0.7-0.4,1.1-0.4s0.8,0.1,1.1,0.4
				l16.6,12.7c0.5,0.3,0.7,0.9,0.7,1.5v2.9c0,0.5,0.4,1,1,1h1.8c0.5,0,1-0.4,1-1V44c0-1.8-0.8-3.4-2.2-4.5l-16.5-12.7
				c-1-0.8-2.2-1.2-3.5-1.2c-1.2,0-2.5,0.4-3.5,1.2l-16.4,12.7c-1.4,1.1-2.2,2.7-2.2,4.5v2.9c0,0.5,0.4,1,1,1H350.1z"/>
		</g>
		<g>
			<path d="M338.5,64.1h-3v-0.6c-0.5,0.4-1.1,0.6-1.7,0.7s-1.2,0.2-1.8,0.2s-1.1-0.1-1.6-0.3c-0.5-0.2-0.9-0.4-1.2-0.7
				c-0.3-0.3-0.6-0.7-0.8-1.1c-0.2-0.4-0.3-0.9-0.3-1.5c0-0.7,0.1-1.3,0.4-1.8s0.7-0.9,1.2-1.3c0.5-0.3,1.1-0.6,1.8-0.8
				s1.4-0.2,2.2-0.2h1.7c0-0.7-0.2-1.3-0.7-1.7s-1.1-0.6-2-0.6c-0.4,0-0.8,0.1-1.3,0.2c-0.4,0.2-0.9,0.4-1.3,0.8l-1.8-1.8
				c0.6-0.6,1.4-1.1,2.2-1.4c0.8-0.3,1.7-0.5,2.6-0.5c0.8,0,1.6,0.1,2.2,0.4c0.6,0.3,1.2,0.6,1.6,1c0.5,0.5,0.9,1.1,1.1,1.8
				c0.2,0.6,0.3,1.5,0.3,2.5v6.7C338.3,64.1,338.5,64.1,338.5,64.1z M335.5,61.1v-2.2h-1.4c-0.4,0-0.8,0-1.2,0.1s-0.7,0.1-0.9,0.3
				c-0.3,0.1-0.5,0.3-0.6,0.5c-0.2,0.2-0.2,0.5-0.2,0.7c0,0.4,0.2,0.7,0.5,1s0.7,0.4,1.2,0.4c0.4,0,0.9-0.1,1.3-0.2
				C334.7,61.6,335.1,61.4,335.5,61.1"/>
			<path d="M351.8,58.2c0,0.8-0.1,1.6-0.4,2.4c-0.3,0.8-0.7,1.4-1.2,2s-1.1,1-1.8,1.4c-0.7,0.3-1.5,0.5-2.3,0.5
				c-0.5,0-1-0.1-1.5-0.2s-0.9-0.4-1.3-0.7v4.9l-3,0.9V52.2h3v0.6c0.3-0.3,0.8-0.5,1.2-0.7c0.5-0.2,1-0.2,1.5-0.2
				c0.7,0,1.4,0.2,2.1,0.5s1.3,0.8,1.8,1.3c0.5,0.6,1,1.2,1.3,2C351.7,56.4,351.8,57.3,351.8,58.2 M348.8,58.2
				c0-0.6-0.1-1.1-0.2-1.5c-0.2-0.5-0.4-0.8-0.7-1.2c-0.3-0.3-0.6-0.6-1.1-0.7c-0.4-0.2-0.9-0.3-1.4-0.3c-0.3,0-0.7,0.1-1.1,0.2
				c-0.4,0.1-0.7,0.3-1,0.5v5.7c0.6,0.6,1.4,0.9,2.2,0.9c0.5,0,0.9-0.1,1.3-0.3s0.8-0.4,1-0.8c0.3-0.3,0.5-0.7,0.7-1.2
				C348.7,59.2,348.8,58.7,348.8,58.2"/>
			<rect x="353.3" y="52.2" width="3" height="11.9"/>
			<path d="M365.3,49.7c-0.3-0.1-0.5-0.2-0.8-0.2c-0.2,0-0.5-0.1-0.7-0.1c-0.6,0-1,0.1-1.2,0.4c-0.2,0.3-0.4,0.7-0.4,1.4v0.9h1.9
				v2.6h-1.9V64h-3v-9.3h-1.4v-2.6h1.4v-0.9c0-1.5,0.3-2.6,0.8-3.4c0.6-0.8,1.5-1.2,3-1.2c0.8,0,1.5,0.1,2.2,0.3L365.3,49.7
				L365.3,49.7z"/>
			<path d="M374.3,53.4l-1.6,2.5c-0.3-0.3-0.6-0.6-1-0.8s-0.7-0.4-1.1-0.4c-0.2,0-0.4,0-0.6,0.1s-0.4,0.2-0.6,0.4s-0.4,0.5-0.5,0.8
				s-0.2,0.8-0.2,1.2v6.7h-3V52.2h3v1.3c0.4-0.5,0.8-0.9,1.2-1.2c0.4-0.3,0.9-0.4,1.5-0.4c0.5,0,1,0.1,1.5,0.4
				C373.4,52.6,373.9,52.9,374.3,53.4"/>
			<path d="M384.9,64.1h-3v-0.6c-0.5,0.4-1.1,0.6-1.7,0.7s-1.2,0.2-1.8,0.2s-1.1-0.1-1.6-0.3c-0.5-0.2-0.9-0.4-1.2-0.7
				c-0.3-0.3-0.6-0.7-0.8-1.1c-0.2-0.4-0.3-0.9-0.3-1.5c0-0.7,0.1-1.3,0.4-1.8s0.7-0.9,1.2-1.3c0.5-0.3,1.1-0.6,1.8-0.8
				c0.7-0.2,1.4-0.2,2.2-0.2h1.7c0-0.7-0.2-1.3-0.7-1.7s-1.1-0.6-2-0.6c-0.4,0-0.8,0.1-1.3,0.2c-0.4,0.2-0.9,0.4-1.3,0.8l-1.8-1.8
				c0.6-0.6,1.4-1.1,2.2-1.4c0.8-0.3,1.7-0.5,2.6-0.5c0.8,0,1.6,0.1,2.2,0.4c0.6,0.3,1.2,0.6,1.6,1c0.5,0.5,0.9,1.1,1.1,1.8
				c0.2,0.6,0.3,1.5,0.3,2.5v6.7C384.7,64.1,384.9,64.1,384.9,64.1z M381.9,61.1v-2.2h-1.4c-0.4,0-0.8,0-1.2,0.1
				c-0.4,0.1-0.7,0.1-0.9,0.3c-0.3,0.1-0.5,0.3-0.6,0.5c-0.2,0.2-0.2,0.5-0.2,0.7c0,0.4,0.2,0.7,0.5,1s0.7,0.4,1.2,0.4
				c0.4,0,0.9-0.1,1.3-0.2C381,61.6,381.4,61.4,381.9,61.1"/>
			<path d="M410.2,62.3c-0.6,0.7-1.3,1.2-2.2,1.6s-1.7,0.5-2.7,0.5c-0.9,0-1.7-0.2-2.5-0.5c-0.8-0.3-1.4-0.8-2-1.3
				c-0.6-0.6-1-1.2-1.3-2S399,59,399,58.1s0.2-1.7,0.5-2.5s0.8-1.4,1.3-2c0.6-0.6,1.2-1,2-1.3s1.6-0.5,2.5-0.5s1.8,0.2,2.6,0.5
				c0.8,0.3,1.5,0.8,2.1,1.5l-2,2c-0.3-0.4-0.7-0.7-1.1-1s-1-0.4-1.6-0.4c-0.5,0-0.9,0.1-1.3,0.3s-0.8,0.4-1.1,0.8
				c-0.3,0.3-0.6,0.7-0.7,1.1c-0.2,0.4-0.3,0.9-0.3,1.4s0.1,1,0.3,1.4c0.2,0.4,0.4,0.8,0.7,1.1c0.3,0.3,0.7,0.6,1.1,0.8
				s0.8,0.3,1.3,0.3c0.6,0,1.1-0.1,1.6-0.4c0.5-0.3,0.9-0.6,1.2-1.1L410.2,62.3z"/>
			<path d="M423.5,58.1c0,0.2,0,0.4,0,0.6c0,0.2,0,0.4-0.1,0.6h-9.5c0.1,0.3,0.3,0.7,0.5,1s0.4,0.6,0.7,0.8c0.3,0.2,0.6,0.4,1,0.5
				s0.8,0.2,1.2,0.2c0.5,0,1.1-0.1,1.6-0.3s1-0.4,1.3-0.8l1.9,1.9c-0.8,0.6-1.6,1.1-2.4,1.3c-0.8,0.3-1.6,0.4-2.5,0.4
				s-1.7-0.2-2.5-0.5c-0.8-0.3-1.5-0.8-2-1.3c-0.6-0.6-1-1.2-1.4-2c-0.3-0.8-0.5-1.6-0.5-2.4c0-0.9,0.2-1.7,0.5-2.4
				c0.3-0.8,0.8-1.4,1.4-2s1.2-1,2-1.3s1.6-0.5,2.5-0.5c0.8,0,1.6,0.2,2.4,0.5s1.4,0.7,2,1.3s1.1,1.2,1.4,2
				C423.3,56.4,423.5,57.2,423.5,58.1 M420.4,57c-0.2-0.8-0.6-1.4-1.2-1.8c-0.6-0.5-1.3-0.7-2-0.7s-1.4,0.2-2,0.7s-1,1.1-1.2,1.8
				H420.4z"/>
			<path d="M397.4,64.2h-2.9V57c0-1.3-1.1-2.4-2.4-2.4s-2.4,1.1-2.4,2.4v7.1h-2.9V57c0-2.9,2.4-5.3,5.3-5.3s5.3,2.4,5.3,5.3V64.2z"
				/>
			<path d="M356.5,49.4c0,0.9-0.7,1.6-1.6,1.6s-1.6-0.7-1.6-1.6c0-0.9,0.7-1.6,1.6-1.6C355.7,47.7,356.5,48.5,356.5,49.4"/>
			<path d="M326.9,62.2c-0.6,0.7-1.4,1.2-2.2,1.6c-0.9,0.4-1.8,0.6-2.8,0.6c-0.9,0-1.7-0.2-2.5-0.5c-0.8-0.3-1.5-0.8-2.1-1.3
				c-0.6-0.6-1-1.3-1.4-2c-0.3-0.8-0.5-1.6-0.5-2.6c0-0.9,0.2-1.7,0.5-2.5s0.8-1.5,1.4-2c0.6-0.6,1.3-1,2-1.4
				c0.8-0.3,1.6-0.5,2.5-0.5s1.8,0.2,2.7,0.5c0.8,0.3,1.6,0.9,2.2,1.5l-2.1,2.1c-0.3-0.4-0.7-0.7-1.1-1s-1-0.4-1.6-0.4
				c-0.5,0-0.9,0.1-1.3,0.3s-0.8,0.5-1.1,0.8s-0.6,0.7-0.8,1.2c-0.2,0.5-0.3,0.9-0.3,1.4s0.1,1,0.3,1.4c0.2,0.5,0.4,0.8,0.7,1.2
				c0.3,0.3,0.7,0.6,1.1,0.8s0.9,0.3,1.3,0.3c0.6,0,1.2-0.1,1.7-0.4c0.5-0.3,0.9-0.7,1.2-1.1L326.9,62.2z"/>
		</g>
	</g>
	<rect x="296" class="st4" width="148" height="4"/>
	<text transform="matrix(1 0 0 1 325.6113 119.2793)" class="st4 st1 st2"> Immobilier</text>
	<text transform="matrix(1 0 0 1 316.7113 140.2793)" class="st4 st1 st2">&amp; Entreprises</text>
</g>
</svg>
