<?xml version="1.0" encoding="utf-8"?>
<!-- Generator: Adobe Illustrator 20.0.0, SVG Export Plug-In . SVG Version: 6.00 Build 0)  -->
<svg version="1.1" id="Calque_1" xmlns="http://www.w3.org/2000/svg" xmlns:xlink="http://www.w3.org/1999/xlink" x="0px" y="0px"
	 viewBox="0 0 444 150" style="enable-background:new 0 0 444 150;" xml:space="preserve">
<style type="text/css">
	.st0{fill:#D9C8B4;}
	.st1{fill:#C9B49C;}
	.st2{font-family:'Lato-Regular';}
	.st3{font-size:18px;}
	.st4{fill:#1D1D1B;}
	.st5{fill:#BFA076;}
	.st6{fill:#DA1750;}
	.st7{fill:#000100;}
	.st8{fill:#770303;}
	.st9{font-family:'Lato-Bold';}
	.st10{font-size:19.5454px;}
	.st11{fill:#0D92D2;}
</style>
<g id="_x31_">
	<rect class="st0" width="148" height="4"/>
	<text transform="matrix(1 0 0 1 31.3481 119.2793)" class="st1 st2 st3">Immobilier</text>
	<text transform="matrix(1 0 0 1 28.4481 140.2793)" class="st1 st2 st3">d’exception</text>
	<g>
		<path class="st4" d="M25.2,61.5c-0.3,0.3-0.6,0.6-1,0.8c-0.5,0.3-1.1,0.5-1.8,0.5c-0.5,0-1-0.1-1.5-0.3c-0.5-0.2-0.9-0.5-1.2-0.9
			c-0.3-0.4-0.6-0.8-0.8-1.3c-0.2-0.5-0.3-1-0.3-1.5c0-0.5,0.1-1.1,0.3-1.5c0.2-0.5,0.5-0.9,0.8-1.3c0.3-0.4,0.7-0.6,1.2-0.9
			c0.5-0.2,0.9-0.3,1.4-0.3c0.7,0,1.3,0.1,1.8,0.4c0.3,0.2,0.7,0.5,0.9,0.8l0.1,0.1l1.7-1.8l-0.1-0.1c-0.5-0.5-1.2-1-1.9-1.2
			c-0.8-0.3-1.7-0.5-2.6-0.5c-0.9,0-1.7,0.2-2.5,0.5c-0.8,0.3-1.4,0.8-2,1.3c-0.6,0.6-1,1.2-1.3,2c-0.3,0.8-0.5,1.6-0.5,2.5
			c0,0.9,0.2,1.7,0.5,2.5c0.3,0.8,0.8,1.4,1.3,2c0.6,0.6,1.2,1,2,1.3c0.8,0.3,1.6,0.5,2.5,0.5c0.9,0,1.8-0.2,2.7-0.5
			c0.7-0.3,1.4-0.7,1.9-1.3l0.1-0.1l-1.8-1.8L25.2,61.5z"/>
		<path class="st4" d="M37.6,53.9c-0.4-0.4-0.9-0.7-1.5-1c-0.6-0.3-1.4-0.4-2.2-0.4c-0.9,0-1.8,0.2-2.6,0.5
			c-0.7,0.3-1.3,0.7-1.9,1.1l-0.1,0.1l1.5,1.5l0.1-0.1c0.4-0.3,0.8-0.5,1.2-0.7c0.5-0.2,1-0.2,1.4-0.2c0.9,0,1.7,0.2,2.2,0.7
			c0.5,0.5,0.8,1.1,0.8,1.9v0.2h-2c-0.8,0-1.5,0.1-2.2,0.2c-0.7,0.2-1.3,0.4-1.8,0.8c-0.5,0.3-0.9,0.7-1.2,1.2
			c-0.3,0.5-0.4,1.1-0.4,1.7c0,0.5,0.1,1,0.3,1.4c0.2,0.4,0.4,0.8,0.8,1.1c0.3,0.3,0.7,0.6,1.2,0.7c0.5,0.2,1,0.3,1.6,0.3
			c0.6,0,1.1-0.1,1.7-0.2c0.6-0.1,1.1-0.4,1.6-0.7l0.4-0.3v0.9H39v-6.6c0-1-0.1-1.9-0.3-2.5C38.4,55,38.1,54.4,37.6,53.9z M36,59.8
			v2.1l0,0c-0.4,0.2-0.8,0.4-1.2,0.6c-0.4,0.1-0.9,0.2-1.3,0.2c-0.5,0-0.9-0.1-1.2-0.4c-0.3-0.2-0.4-0.6-0.4-0.9
			c0-0.3,0.1-0.5,0.2-0.7c0.1-0.2,0.4-0.4,0.6-0.5c0.3-0.1,0.6-0.2,0.9-0.3c0.4-0.1,0.8-0.1,1.2-0.1H36z"/>
		<rect x="56.2" y="52.8" class="st4" width="2.7" height="11.9"/>
		<path class="st4" d="M66.7,47.1c-1.4,0-2.3,0.4-2.9,1.1C63.3,49,63,50.2,63,51.7v1.2h-1.5v2.2H63v9.7h2.6v-9.7h2v-2.2h-2v-1.2
			c0-0.8,0.1-1.3,0.4-1.6c0.3-0.3,0.8-0.5,1.4-0.5c0.3,0,0.5,0,0.8,0.1c0.1,0,0.2,0,0.3,0.1l0.2,0.1v-2.3l-0.1,0
			C68.1,47.2,67.4,47.1,66.7,47.1z"/>
		<path class="st4" d="M77.6,52.9c-1-0.5-2-0.5-2.9,0c-0.4,0.3-0.8,0.7-1.2,1.2l-0.4,0.6v-1.8h-2.6v11.9h2.6V58c0-0.5,0.1-1,0.2-1.4
			c0.2-0.4,0.3-0.7,0.6-0.9c0.2-0.2,0.5-0.4,0.8-0.5c0.3-0.1,0.5-0.2,0.7-0.2c0.4,0,0.8,0.1,1.2,0.4c0.2,0.2,0.5,0.4,0.7,0.6
			l0.1,0.1l1.4-2.2l-0.1-0.1C78.4,53.5,78,53.2,77.6,52.9z"/>
		<path class="st4" d="M88.9,53.9c-0.4-0.4-0.9-0.7-1.5-1c-0.6-0.3-1.4-0.4-2.2-0.4c-0.9,0-1.8,0.2-2.6,0.5
			c-0.7,0.3-1.3,0.7-1.9,1.1l-0.1,0.1l1.5,1.5l0.1-0.1c0.4-0.3,0.8-0.5,1.2-0.7c0.5-0.2,1-0.2,1.4-0.2c0.9,0,1.7,0.2,2.2,0.7
			c0.5,0.5,0.8,1.1,0.8,1.9v0.2h-2c-0.8,0-1.5,0.1-2.2,0.2c-0.7,0.2-1.3,0.4-1.8,0.8c-0.5,0.3-0.9,0.7-1.2,1.2
			c-0.3,0.5-0.4,1.1-0.4,1.7c0,0.5,0.1,1,0.3,1.4c0.2,0.4,0.4,0.8,0.8,1.1c0.3,0.3,0.7,0.6,1.2,0.7c0.5,0.2,1,0.3,1.6,0.3
			c0.6,0,1.1-0.1,1.7-0.2c0.6-0.1,1.1-0.4,1.6-0.7l0.4-0.3v0.9h2.6v-6.6c0-1-0.1-1.9-0.3-2.5C89.8,55,89.4,54.4,88.9,53.9z
			 M87.3,59.8v2.1l0,0c-0.4,0.2-0.8,0.4-1.2,0.6c-0.4,0.1-0.9,0.2-1.3,0.2c-0.5,0-0.9-0.1-1.2-0.4c-0.3-0.2-0.4-0.6-0.4-0.9
			c0-0.3,0.1-0.5,0.2-0.7c0.1-0.2,0.3-0.4,0.6-0.5c0.3-0.1,0.6-0.2,0.9-0.3c0.4-0.1,0.8-0.1,1.2-0.1H87.3z"/>
		<path class="st4" d="M116,61.5c-0.3,0.3-0.6,0.6-1,0.8c-0.5,0.3-1.1,0.5-1.8,0.5c-0.5,0-1-0.1-1.5-0.3c-0.5-0.2-0.9-0.5-1.2-0.9
			c-0.3-0.4-0.6-0.8-0.8-1.3c-0.2-0.5-0.3-1-0.3-1.5c0-0.5,0.1-1.1,0.3-1.5c0.2-0.5,0.5-0.9,0.8-1.3c0.3-0.4,0.7-0.6,1.2-0.9
			c0.5-0.2,0.9-0.3,1.4-0.3c0.7,0,1.3,0.1,1.8,0.4c0.3,0.2,0.7,0.5,0.9,0.8l0.1,0.1l1.7-1.8l-0.1-0.1c-0.5-0.5-1.2-1-1.9-1.2
			c-0.8-0.3-1.7-0.5-2.6-0.5c-0.9,0-1.7,0.2-2.5,0.5c-0.8,0.3-1.4,0.8-2,1.3c-0.6,0.6-1,1.2-1.3,2c-0.3,0.8-0.5,1.6-0.5,2.5
			c0,0.9,0.2,1.7,0.5,2.5c0.3,0.8,0.8,1.4,1.3,2c0.6,0.6,1.2,1,2,1.3c0.8,0.3,1.6,0.5,2.5,0.5c0.9,0,1.8-0.2,2.7-0.5
			c0.7-0.3,1.4-0.7,1.9-1.3l0.1-0.1l-1.8-1.8L116,61.5z"/>
		<path class="st4" d="M132.1,56.3c-0.3-0.8-0.8-1.4-1.4-2c-0.6-0.5-1.3-1-2.1-1.3c-0.8-0.3-1.6-0.5-2.4-0.5c-0.9,0-1.7,0.2-2.5,0.5
			c-0.8,0.3-1.5,0.8-2,1.3c-0.6,0.6-1,1.2-1.4,2c-0.3,0.8-0.5,1.6-0.5,2.4c0,0.9,0.2,1.7,0.5,2.4c0.3,0.8,0.8,1.4,1.4,2
			c0.6,0.6,1.2,1,2,1.3c0.8,0.3,1.6,0.5,2.5,0.5c0.9,0,1.7-0.1,2.5-0.4c0.7-0.2,1.4-0.6,2.1-1.1l0.1-0.1l-1.6-1.6l-0.1,0.1
			c-0.3,0.2-0.7,0.5-1.2,0.6c-1.1,0.4-2.2,0.4-3.1,0.1c-0.4-0.1-0.8-0.3-1.1-0.6c-0.3-0.3-0.6-0.6-0.8-0.9c-0.2-0.3-0.4-0.7-0.5-1.1
			l-0.1-0.3h10l0-0.1c0-0.1,0-0.2,0-0.3c0-0.2,0-0.4,0-0.6C132.6,57.9,132.4,57,132.1,56.3z M123,57.4L123,57.4
			c0.3-0.7,0.7-1.2,1.2-1.6c0.6-0.5,1.3-0.7,2-0.7c0.8,0,1.4,0.2,2,0.7c0.5,0.4,0.9,0.9,1.2,1.6l0,0.1H123z"/>
		<circle class="st4" cx="57.5" cy="48.9" r="1.4"/>
		<path class="st4" d="M51.7,54.3c-0.5-0.6-1.2-1-1.8-1.3c-1.2-0.5-2.5-0.6-3.6-0.2c-0.5,0.2-0.9,0.4-1.2,0.6l-0.4,0.3l0-0.9H42
			v17.3l2.6-1l0-5.2l0.4,0.3c0.4,0.3,0.8,0.5,1.3,0.7c0.5,0.1,0.9,0.2,1.5,0.2c0.8,0,1.6-0.2,2.3-0.5c0.7-0.3,1.3-0.8,1.8-1.4
			c0.5-0.6,0.9-1.2,1.2-2c0.3-0.8,0.4-1.6,0.4-2.4c0-0.9-0.2-1.7-0.5-2.5C52.7,55.6,52.3,54.9,51.7,54.3z M50.4,58.9
			c0,0.5-0.1,1-0.2,1.5v0c-0.2,0.4-0.4,0.8-0.7,1.2c-0.3,0.3-0.6,0.6-1,0.7c-0.4,0.2-0.8,0.3-1.3,0.3c-0.8,0-1.5-0.3-2.1-0.8l0,0
			v-5.8l0,0c0.3-0.2,0.6-0.3,0.9-0.5c0.4-0.1,0.8-0.2,1.1-0.2c0.5,0,0.9,0.1,1.4,0.3c0.4,0.2,0.8,0.4,1,0.7c0.3,0.3,0.5,0.7,0.7,1.2
			C50.4,57.8,50.4,58.3,50.4,58.9z"/>
		<path class="st4" d="M98.9,52.5c-5.4,0-5.6,4-5.6,4.2v8.1l2.7,0V57c0-0.5,0.2-0.9,0.5-1.2c0.8-0.8,2.2-0.8,2.4-0.8
			c0.2,0,1.6,0,2.4,0.8c0.3,0.3,0.5,0.7,0.5,1.2v7.8l2.7,0v-8.1C104.4,56.6,104.4,52.5,98.9,52.5z"/>
	</g>
	<g>
		<polygon class="st5" points="50.5,71.2 49.7,71.2 49.7,78.7 53.9,78.7 53.9,77.9 50.5,77.9 		"/>
		<path class="st5" d="M59.3,75.8c0,0.3,0,0.6-0.1,0.9c-0.1,0.3-0.2,0.5-0.4,0.7c-0.2,0.2-0.4,0.3-0.6,0.5c-0.5,0.2-1.2,0.2-1.7,0
			c-0.2-0.1-0.5-0.3-0.6-0.5c-0.2-0.2-0.3-0.4-0.4-0.7c-0.1-0.3-0.1-0.6-0.1-0.9v-4.6h-0.8v4.6c0,0.4,0.1,0.8,0.2,1.2
			c0.1,0.4,0.3,0.7,0.6,0.9c0.2,0.3,0.6,0.5,0.9,0.6c0.4,0.2,0.8,0.2,1.2,0.2c0.4,0,0.8-0.1,1.2-0.2c0.4-0.2,0.7-0.4,0.9-0.6
			c0.2-0.3,0.4-0.6,0.6-0.9c0.1-0.4,0.2-0.7,0.2-1.2v-4.6h-0.8V75.8z"/>
		<path class="st5" d="M67.2,71.2h-0.8c-0.1,0-0.1,0-0.2,0.1c0,0-0.1,0.1-0.1,0.1l-2.1,2.9l-2-2.9c0,0,0-0.1-0.1-0.1
			c-0.1,0-0.1-0.1-0.2-0.1H61l2.6,3.6l-2.7,3.8h0.8c0.1,0,0.2,0,0.2-0.1c0,0,0.1-0.1,0.1-0.1l2.2-3.1l2.1,3.1c0,0,0.1,0.1,0.1,0.1
			c0,0,0.1,0.1,0.2,0.1h0.8l-2.7-3.8L67.2,71.2z"/>
		<polygon class="st5" points="69,77.9 69,75.3 72.1,75.3 72.1,74.5 69,74.5 69,72 72.7,72 72.7,71.2 68.1,71.2 68.1,78.7 
			72.7,78.7 72.7,77.9 		"/>
	</g>
	<path class="st4" d="M81.4,77c0.2-0.3,0.3-0.6,0.4-0.9c0.1-0.3,0.2-0.7,0.2-1l0-0.2h-0.4c-0.1,0-0.2,0-0.2,0.1c0,0-0.1,0.1-0.1,0.2
		c0,0.2-0.1,0.5-0.2,0.7c-0.1,0.2-0.1,0.4-0.3,0.6l-2.1-2.1c-0.3-0.3-0.5-0.5-0.6-0.8C78,73.4,78,73.2,78,72.9c0-0.2,0-0.3,0.1-0.5
		c0.1-0.1,0.1-0.3,0.2-0.4c0.1-0.1,0.2-0.2,0.4-0.2c0.3-0.1,0.7-0.1,1,0c0.1,0.1,0.2,0.1,0.3,0.2c0.1,0.1,0.2,0.2,0.2,0.3
		c0,0.1,0.1,0.2,0.1,0.3c0,0.1,0.1,0.1,0.1,0.2c0.1,0,0.1,0.1,0.2,0l0.4-0.1l0-0.1c0-0.2-0.1-0.4-0.2-0.6c-0.1-0.2-0.2-0.4-0.4-0.5
		c-0.2-0.1-0.4-0.3-0.6-0.3c-0.5-0.2-1.1-0.2-1.5,0c-0.2,0.1-0.4,0.2-0.6,0.4c-0.2,0.2-0.3,0.4-0.4,0.6s-0.1,0.5-0.1,0.7
		c0,0.3,0.1,0.6,0.2,0.9c0.1,0.2,0.2,0.4,0.4,0.7c-0.2,0.1-0.4,0.2-0.5,0.3c-0.2,0.2-0.4,0.3-0.6,0.5c-0.2,0.2-0.3,0.4-0.4,0.6
		c-0.1,0.2-0.1,0.5-0.1,0.8c0,0.3,0.1,0.6,0.2,0.9c0.1,0.3,0.3,0.5,0.5,0.6c0.2,0.2,0.4,0.3,0.7,0.4c0.3,0.1,0.5,0.1,0.8,0.1
		c0.3,0,0.5,0,0.8-0.1c0.2-0.1,0.5-0.2,0.7-0.3c0.2-0.1,0.4-0.2,0.6-0.4c0.1-0.1,0.3-0.2,0.4-0.4l0.9,0.9c0.1,0.1,0.1,0.1,0.2,0.1
		c0.1,0,0.1,0,0.2,0h0.8L81.4,77z M80.5,77.1c-0.1,0.1-0.2,0.2-0.3,0.3c-0.1,0.1-0.3,0.2-0.5,0.3c-0.2,0.1-0.4,0.2-0.6,0.2
		c-0.4,0.1-0.8,0.1-1.2,0c-0.2-0.1-0.3-0.1-0.5-0.3c-0.1-0.1-0.3-0.3-0.3-0.4c-0.1-0.2-0.1-0.4-0.1-0.6c0-0.2,0-0.4,0.1-0.5
		c0.1-0.2,0.1-0.3,0.3-0.5c0.1-0.1,0.3-0.3,0.4-0.4c0.1-0.1,0.3-0.2,0.5-0.3L80.5,77.1z"/>
	<g>
		<path class="st5" d="M88.5,71.2h-2v7.5h0.8v-2.9h1.2c0.4,0,0.8-0.1,1.1-0.2c0.3-0.1,0.6-0.3,0.8-0.5c0.2-0.2,0.4-0.5,0.5-0.7
			c0.1-0.3,0.2-0.6,0.2-0.9c0-0.7-0.2-1.3-0.7-1.7C90.1,71.4,89.4,71.2,88.5,71.2z M88.5,75.1h-1.2v-3.1h1.2c0.6,0,1.1,0.1,1.4,0.4
			c0.3,0.3,0.5,0.6,0.5,1.2c0,0.2,0,0.4-0.1,0.6c-0.1,0.2-0.2,0.4-0.4,0.5c-0.2,0.1-0.4,0.3-0.6,0.3C89.1,75,88.8,75.1,88.5,75.1z"
			/>
		<path class="st5" d="M95.1,75.3c0.2,0,0.4-0.1,0.6-0.2c0.3-0.1,0.5-0.3,0.7-0.4c0.2-0.2,0.3-0.4,0.4-0.6c0.1-0.2,0.2-0.5,0.2-0.8
			c0-0.7-0.2-1.2-0.7-1.5c-0.4-0.3-1.1-0.5-1.9-0.5h-2v7.5h0.8v-3.2H94c0.1,0,0.1,0,0.2,0c0,0,0.1,0,0.1,0c0,0,0,0,0.1,0
			c0,0,0,0,0.1,0.1l2.3,2.9c0,0.1,0.1,0.1,0.2,0.2c0.1,0,0.1,0,0.2,0h0.8L95.1,75.3C95.1,75.3,95.1,75.3,95.1,75.3z M93.2,71.9h1.2
			c0.6,0,1.1,0.1,1.4,0.3c0.3,0.2,0.4,0.5,0.4,1c0,0.2,0,0.4-0.1,0.6c-0.1,0.2-0.2,0.3-0.4,0.5c-0.2,0.1-0.4,0.2-0.6,0.3
			c-0.2,0.1-0.5,0.1-0.8,0.1h-1.1V71.9z"/>
		<polygon class="st5" points="99.3,75.3 102.5,75.3 102.5,74.5 99.3,74.5 99.3,72 103.1,72 103.1,71.2 98.5,71.2 98.5,78.7 
			103.1,78.7 103.1,77.9 99.3,77.9 		"/>
		<path class="st5" d="M107.8,75.1c-0.2-0.1-0.4-0.3-0.6-0.4c-0.2-0.1-0.4-0.2-0.7-0.2c-0.2-0.1-0.4-0.1-0.7-0.2
			c-0.2-0.1-0.4-0.2-0.5-0.3c-0.2-0.1-0.3-0.2-0.4-0.4c-0.1-0.1-0.1-0.3-0.1-0.5c0-0.2,0-0.3,0.1-0.5c0.1-0.1,0.1-0.3,0.3-0.4
			c0.1-0.1,0.3-0.2,0.4-0.3c0.4-0.1,0.9-0.1,1.2,0c0.2,0.1,0.3,0.1,0.4,0.2c0.1,0.1,0.2,0.1,0.3,0.2c0.2,0.2,0.4,0.2,0.5,0l0.2-0.3
			l-0.1-0.1c-0.3-0.3-0.5-0.4-0.9-0.6c-0.3-0.1-0.7-0.2-1.1-0.2c-0.3,0-0.7,0.1-0.9,0.2c-0.3,0.1-0.5,0.3-0.7,0.4
			c-0.2,0.2-0.3,0.4-0.4,0.6c-0.1,0.2-0.1,0.5-0.1,0.7c0,0.3,0.1,0.6,0.2,0.8c0.1,0.2,0.3,0.4,0.4,0.6c0.2,0.1,0.4,0.3,0.6,0.4
			c0.2,0.1,0.5,0.2,0.7,0.2c0.2,0.1,0.4,0.1,0.7,0.2c0.2,0.1,0.4,0.2,0.5,0.3c0.2,0.1,0.3,0.2,0.4,0.4c0.1,0.1,0.1,0.3,0.1,0.5
			c0,0.2,0,0.4-0.1,0.6c-0.1,0.2-0.2,0.3-0.3,0.5c-0.1,0.1-0.3,0.2-0.5,0.3c-0.2,0.1-0.4,0.1-0.7,0.1c-0.2,0-0.4,0-0.5-0.1
			c-0.2,0-0.3-0.1-0.4-0.1c-0.1-0.1-0.2-0.1-0.3-0.2c-0.1-0.1-0.2-0.1-0.2-0.2l-0.2-0.1c0,0-0.1-0.1-0.2-0.1c-0.1,0-0.2,0-0.3,0.1
			l-0.2,0.3l0.1,0.1c0.3,0.3,0.6,0.5,0.9,0.7c0.4,0.2,0.8,0.3,1.3,0.3c0.4,0,0.7-0.1,1-0.2c0.3-0.1,0.6-0.3,0.8-0.5
			c0.2-0.2,0.4-0.5,0.5-0.7c0.1-0.3,0.2-0.6,0.2-0.9c0-0.3-0.1-0.6-0.2-0.8C108.2,75.4,108,75.2,107.8,75.1z M108,72.2L108,72.2
			L108,72.2L108,72.2z"/>
		<polygon class="st5" points="108.9,72 111.4,72 111.4,78.7 112.2,78.7 112.2,72 114.7,72 114.7,71.2 108.9,71.2 		"/>
		<rect x="115.6" y="71.2" class="st5" width="0.8" height="7.5"/>
		<path class="st5" d="M122,75.6c0,0.1,0,0.1,0.1,0.2c0.1,0,0.1,0.1,0.2,0.1h1.2v1.7c-0.1,0.1-0.3,0.1-0.4,0.2
			c-0.1,0.1-0.3,0.1-0.5,0.2c-0.1,0-0.3,0.1-0.5,0.1c-0.2,0-0.4,0-0.6,0c-0.5,0-0.9-0.1-1.3-0.2c-0.4-0.1-0.7-0.3-0.9-0.6
			c-0.3-0.3-0.5-0.6-0.6-1c-0.1-0.4-0.2-0.8-0.2-1.3c0-0.5,0.1-0.9,0.2-1.3c0.1-0.4,0.3-0.7,0.6-1s0.6-0.5,0.9-0.6
			c0.4-0.1,0.8-0.2,1.2-0.2c0.3,0,0.6,0,0.9,0.1c0.2,0.1,0.4,0.1,0.6,0.2c0.2,0.1,0.3,0.1,0.4,0.2c0.1,0.1,0.2,0.1,0.2,0.2
			c0.2,0.1,0.3,0,0.4-0.1l0.2-0.3l-0.1-0.1c-0.2-0.1-0.3-0.3-0.5-0.4c-0.2-0.1-0.4-0.2-0.6-0.3c-0.2-0.1-0.4-0.1-0.7-0.2
			c-0.2,0-0.5-0.1-0.8-0.1c-0.6,0-1.1,0.1-1.5,0.3c-0.5,0.2-0.9,0.4-1.2,0.8c-0.3,0.3-0.6,0.7-0.8,1.2c-0.2,0.5-0.3,1-0.3,1.6
			c0,0.6,0.1,1.1,0.3,1.6c0.2,0.5,0.4,0.9,0.8,1.2c0.3,0.3,0.7,0.6,1.2,0.8c0.5,0.2,1,0.3,1.6,0.3c0.5,0,1-0.1,1.4-0.2h0
			c0.4-0.1,0.8-0.3,1.2-0.6l0.1,0v-2.8H122V75.6z"/>
		<polygon class="st5" points="126.5,77.9 126.5,75.3 129.6,75.3 129.6,74.5 126.5,74.5 126.5,72 130.3,72 130.3,71.2 125.7,71.2 
			125.7,78.7 130.3,78.7 130.3,77.9 		"/>
	</g>
</g>
<g id="_x32_">
	<g id="logo_1_">
		<g>
			<path class="st6" d="M240.9,68.5c-0.5,0-1,0.4-1,1v2.6c0,1-0.8,1.9-1.9,1.9h-5.6h-11.1l-6.9,9.2V74H205c-1,0-1.9-0.8-1.9-1.9
				v-2.6c0-0.5-0.4-1-1-1h-1.8c-0.5,0-1,0.4-1,1v2.6c0,3.1,2.5,5.7,5.7,5.7h7.8v5.4c0,0.7,0.4,1.4,1.1,1.6c0.6,0.2,1.3,0,1.7-0.5
				l4.9-6.4h17.6c3.1,0,5.7-2.5,5.7-5.7v-2.6c0-0.5-0.4-1-1-1L240.9,68.5L240.9,68.5z"/>
			<path class="st6" d="M202.1,47.9c0.5,0,1-0.4,1-1V44c0-0.6,0.3-1.1,0.7-1.5l16.5-12.7c0.3-0.2,0.7-0.4,1.1-0.4
				c0.4,0,0.8,0.1,1.1,0.4l16.6,12.7c0.5,0.3,0.7,0.9,0.7,1.5v2.9c0,0.5,0.4,1,1,1h1.8c0.5,0,1-0.4,1-1V44c0-1.8-0.8-3.4-2.2-4.5
				l-16.5-12.7c-1-0.8-2.2-1.2-3.5-1.2c-1.2,0-2.5,0.4-3.5,1.2l-16.4,12.7c-1.4,1.1-2.2,2.7-2.2,4.5v2.9c0,0.5,0.4,1,1,1H202.1z"/>
		</g>
		<g>
			<path d="M190.5,64.1h-3v-0.6c-0.5,0.4-1.1,0.6-1.7,0.7c-0.6,0.1-1.2,0.2-1.8,0.2s-1.1-0.1-1.6-0.3c-0.5-0.2-0.9-0.4-1.2-0.7
				s-0.6-0.7-0.8-1.1c-0.2-0.4-0.3-0.9-0.3-1.5c0-0.7,0.1-1.3,0.4-1.8s0.7-0.9,1.2-1.3c0.5-0.3,1.1-0.6,1.8-0.8s1.4-0.2,2.2-0.2h1.7
				c0-0.7-0.2-1.3-0.7-1.7s-1.1-0.6-2-0.6c-0.4,0-0.8,0.1-1.3,0.2c-0.4,0.2-0.9,0.4-1.3,0.8l-1.8-1.8c0.6-0.6,1.4-1.1,2.2-1.4
				c0.8-0.3,1.7-0.5,2.6-0.5c0.8,0,1.6,0.1,2.2,0.4c0.6,0.3,1.2,0.6,1.6,1c0.5,0.5,0.9,1.1,1.1,1.8c0.2,0.6,0.3,1.5,0.3,2.5v6.7
				C190.3,64.1,190.5,64.1,190.5,64.1z M187.5,61.1v-2.2h-1.4c-0.4,0-0.8,0-1.2,0.1s-0.7,0.1-0.9,0.3c-0.3,0.1-0.5,0.3-0.6,0.5
				c-0.2,0.2-0.2,0.5-0.2,0.7c0,0.4,0.2,0.7,0.5,1s0.7,0.4,1.2,0.4c0.4,0,0.9-0.1,1.3-0.2C186.7,61.6,187.1,61.4,187.5,61.1"/>
			<path d="M203.8,58.2c0,0.8-0.1,1.6-0.4,2.4c-0.3,0.8-0.7,1.4-1.2,2s-1.1,1-1.8,1.4c-0.7,0.3-1.5,0.5-2.3,0.5
				c-0.5,0-1-0.1-1.5-0.2s-0.9-0.4-1.3-0.7v4.9l-3,0.9V52.2h3v0.6c0.3-0.3,0.8-0.5,1.2-0.7c0.5-0.2,1-0.2,1.5-0.2
				c0.7,0,1.4,0.2,2.1,0.5c0.7,0.3,1.3,0.8,1.8,1.3c0.5,0.6,1,1.2,1.3,2C203.7,56.4,203.8,57.3,203.8,58.2 M200.8,58.2
				c0-0.6-0.1-1.1-0.2-1.5c-0.2-0.5-0.4-0.8-0.7-1.2c-0.3-0.3-0.6-0.6-1.1-0.7c-0.4-0.2-0.9-0.3-1.4-0.3c-0.3,0-0.7,0.1-1.1,0.2
				c-0.4,0.1-0.7,0.3-1,0.5v5.7c0.6,0.6,1.4,0.9,2.2,0.9c0.5,0,0.9-0.1,1.3-0.3c0.4-0.2,0.8-0.4,1-0.8c0.3-0.3,0.5-0.7,0.7-1.2
				C200.7,59.2,200.8,58.7,200.8,58.2"/>
			<rect x="205.3" y="52.2" width="3" height="11.9"/>
			<path d="M217.3,49.7c-0.3-0.1-0.5-0.2-0.8-0.2c-0.2,0-0.5-0.1-0.7-0.1c-0.6,0-1,0.1-1.2,0.4c-0.2,0.3-0.4,0.7-0.4,1.4v0.9h1.9
				v2.6h-1.9V64h-3v-9.3h-1.4v-2.6h1.4v-0.9c0-1.5,0.3-2.6,0.8-3.4c0.6-0.8,1.5-1.2,3-1.2c0.8,0,1.5,0.1,2.2,0.3L217.3,49.7
				L217.3,49.7z"/>
			<path d="M226.3,53.4l-1.6,2.5c-0.3-0.3-0.6-0.6-1-0.8s-0.7-0.4-1.1-0.4c-0.2,0-0.4,0-0.6,0.1c-0.2,0.1-0.4,0.2-0.6,0.4
				s-0.4,0.5-0.5,0.8s-0.2,0.8-0.2,1.2v6.7h-3V52.2h3v1.3c0.4-0.5,0.8-0.9,1.2-1.2s0.9-0.4,1.5-0.4c0.5,0,1,0.1,1.5,0.4
				C225.4,52.6,225.9,52.9,226.3,53.4"/>
			<path d="M236.9,64.1h-3v-0.6c-0.5,0.4-1.1,0.6-1.7,0.7c-0.6,0.1-1.2,0.2-1.8,0.2s-1.1-0.1-1.6-0.3c-0.5-0.2-0.9-0.4-1.2-0.7
				s-0.6-0.7-0.8-1.1c-0.2-0.4-0.3-0.9-0.3-1.5c0-0.7,0.1-1.3,0.4-1.8c0.3-0.5,0.7-0.9,1.2-1.3c0.5-0.3,1.1-0.6,1.8-0.8
				s1.4-0.2,2.2-0.2h1.7c0-0.7-0.2-1.3-0.7-1.7s-1.1-0.6-2-0.6c-0.4,0-0.8,0.1-1.3,0.2c-0.4,0.2-0.9,0.4-1.3,0.8l-1.8-1.8
				c0.6-0.6,1.4-1.1,2.2-1.4c0.8-0.3,1.7-0.5,2.6-0.5c0.8,0,1.6,0.1,2.2,0.4c0.6,0.3,1.2,0.6,1.6,1c0.5,0.5,0.9,1.1,1.1,1.8
				c0.2,0.6,0.3,1.5,0.3,2.5v6.7C236.7,64.1,236.9,64.1,236.9,64.1z M233.9,61.1v-2.2h-1.4c-0.4,0-0.8,0-1.2,0.1s-0.7,0.1-0.9,0.3
				c-0.3,0.1-0.5,0.3-0.6,0.5c-0.2,0.2-0.2,0.5-0.2,0.7c0,0.4,0.2,0.7,0.5,1s0.7,0.4,1.2,0.4c0.4,0,0.9-0.1,1.3-0.2
				C233,61.6,233.4,61.4,233.9,61.1"/>
			<path d="M262.2,62.3c-0.6,0.7-1.3,1.2-2.2,1.6s-1.7,0.5-2.7,0.5c-0.9,0-1.7-0.2-2.5-0.5c-0.8-0.3-1.4-0.8-2-1.3
				c-0.6-0.6-1-1.2-1.3-2S251,59,251,58.1s0.2-1.7,0.5-2.5s0.8-1.4,1.3-2c0.6-0.6,1.2-1,2-1.3s1.6-0.5,2.5-0.5s1.8,0.2,2.6,0.5
				c0.8,0.3,1.5,0.8,2.1,1.5l-2,2c-0.3-0.4-0.7-0.7-1.1-1s-1-0.4-1.6-0.4c-0.5,0-0.9,0.1-1.3,0.3s-0.8,0.4-1.1,0.8
				c-0.3,0.3-0.6,0.7-0.7,1.1c-0.2,0.4-0.3,0.9-0.3,1.4s0.1,1,0.3,1.4s0.4,0.8,0.7,1.1s0.7,0.6,1.1,0.8s0.8,0.3,1.3,0.3
				c0.6,0,1.1-0.1,1.6-0.4c0.5-0.3,0.9-0.6,1.2-1.1L262.2,62.3z"/>
			<path d="M275.5,58.1c0,0.2,0,0.4,0,0.6c0,0.2,0,0.4-0.1,0.6h-9.5c0.1,0.3,0.3,0.7,0.5,1s0.4,0.6,0.7,0.8c0.3,0.2,0.6,0.4,1,0.5
				s0.8,0.2,1.2,0.2c0.5,0,1.1-0.1,1.6-0.3s1-0.4,1.3-0.8l1.9,1.9c-0.8,0.6-1.6,1.1-2.4,1.3c-0.8,0.3-1.6,0.4-2.5,0.4
				s-1.7-0.2-2.5-0.5c-0.8-0.3-1.5-0.8-2-1.3c-0.6-0.6-1-1.2-1.4-2c-0.3-0.8-0.5-1.6-0.5-2.4c0-0.9,0.2-1.7,0.5-2.4
				c0.3-0.8,0.8-1.4,1.4-2s1.2-1,2-1.3s1.6-0.5,2.5-0.5c0.8,0,1.6,0.2,2.4,0.5s1.4,0.7,2,1.3s1.1,1.2,1.4,2
				C275.3,56.4,275.5,57.2,275.5,58.1 M272.4,57c-0.2-0.8-0.6-1.4-1.2-1.8c-0.6-0.5-1.3-0.7-2-0.7s-1.4,0.2-2,0.7s-1,1.1-1.2,1.8
				H272.4z"/>
			<path d="M249.4,64.2h-2.9V57c0-1.3-1.1-2.4-2.4-2.4c-1.3,0-2.4,1.1-2.4,2.4v7.1h-2.9V57c0-2.9,2.4-5.3,5.3-5.3
				c2.9,0,5.3,2.4,5.3,5.3L249.4,64.2L249.4,64.2z"/>
			<path d="M208.5,49.4c0,0.9-0.7,1.6-1.6,1.6c-0.9,0-1.6-0.7-1.6-1.6c0-0.9,0.7-1.6,1.6-1.6C207.7,47.7,208.5,48.5,208.5,49.4"/>
			<path d="M178.9,62.2c-0.6,0.7-1.4,1.2-2.2,1.6c-0.9,0.4-1.8,0.6-2.8,0.6c-0.9,0-1.7-0.2-2.5-0.5c-0.8-0.3-1.5-0.8-2.1-1.3
				c-0.6-0.6-1-1.3-1.4-2c-0.3-0.8-0.5-1.6-0.5-2.6c0-0.9,0.2-1.7,0.5-2.5s0.8-1.5,1.4-2c0.6-0.6,1.3-1,2-1.4
				c0.8-0.3,1.6-0.5,2.5-0.5s1.8,0.2,2.7,0.5c0.8,0.3,1.6,0.9,2.2,1.5l-2.1,2.1c-0.3-0.4-0.7-0.7-1.1-1s-1-0.4-1.6-0.4
				c-0.5,0-0.9,0.1-1.3,0.3c-0.4,0.2-0.8,0.5-1.1,0.8s-0.6,0.7-0.8,1.2s-0.3,0.9-0.3,1.4s0.1,1,0.3,1.4c0.2,0.5,0.4,0.8,0.7,1.2
				c0.3,0.3,0.7,0.6,1.1,0.8s0.9,0.3,1.3,0.3c0.6,0,1.2-0.1,1.7-0.4c0.5-0.3,0.9-0.7,1.2-1.1L178.9,62.2z"/>
		</g>
	</g>
	<rect x="148" class="st6" width="148" height="4"/>
	<text transform="matrix(1 0 0 1 177.8135 119.2793)" class="st6 st2 st3">Location &amp; </text>
	<text transform="matrix(1 0 0 1 190.8135 140.8793)" class="st6 st2 st3">Gestion</text>
</g>
<g id="_x33_">
	<g id="logo_3_">
		<g>
			<g>
				<path class="st7" d="M338.5,64.1h-3v-0.6c-0.5,0.4-1.1,0.6-1.7,0.7s-1.2,0.2-1.8,0.2c-0.6,0-1.1-0.1-1.6-0.3
					c-0.5-0.2-0.9-0.4-1.2-0.7c-0.3-0.3-0.6-0.7-0.8-1.1c-0.2-0.4-0.3-0.9-0.3-1.5c0-0.7,0.1-1.3,0.4-1.8s0.7-0.9,1.2-1.3
					c0.5-0.3,1.1-0.6,1.8-0.8c0.7-0.2,1.4-0.2,2.2-0.2h1.7c0-0.7-0.2-1.3-0.7-1.7s-1.1-0.6-2-0.6c-0.4,0-0.8,0.1-1.3,0.2
					c-0.4,0.2-0.9,0.4-1.3,0.8l-1.8-1.8c0.6-0.6,1.4-1.1,2.2-1.4c0.8-0.3,1.7-0.5,2.6-0.5c0.8,0,1.6,0.1,2.2,0.4
					c0.6,0.3,1.2,0.6,1.6,1c0.5,0.5,0.9,1.1,1.1,1.8c0.2,0.6,0.3,1.5,0.3,2.5v6.7H338.5z M335.5,61.1v-2.2h-1.4
					c-0.4,0-0.8,0-1.2,0.1c-0.4,0.1-0.7,0.1-1,0.3c-0.3,0.1-0.5,0.3-0.6,0.5c-0.2,0.2-0.2,0.5-0.2,0.7c0,0.4,0.2,0.8,0.5,1
					c0.3,0.3,0.7,0.4,1.2,0.4c0.4,0,0.9-0.1,1.3-0.2C334.7,61.6,335.1,61.4,335.5,61.1"/>
				<path class="st7" d="M351.9,58.1c0,0.8-0.1,1.6-0.4,2.4c-0.3,0.8-0.7,1.4-1.2,2s-1.1,1-1.8,1.4c-0.7,0.3-1.5,0.5-2.3,0.5
					c-0.5,0-1-0.1-1.5-0.2s-0.9-0.4-1.3-0.7v4.9l-3,0.9V52.1h3v0.6c0.3-0.3,0.8-0.5,1.2-0.7c0.5-0.2,1-0.2,1.5-0.2
					c0.7,0,1.4,0.2,2.1,0.5s1.3,0.8,1.8,1.3c0.5,0.6,1,1.2,1.3,2C351.7,56.4,351.9,57.2,351.9,58.1 M348.8,58.1
					c0-0.6-0.1-1.1-0.3-1.5c-0.2-0.5-0.4-0.8-0.7-1.2c-0.3-0.3-0.6-0.6-1.1-0.7c-0.4-0.2-0.9-0.3-1.4-0.3c-0.3,0-0.7,0.1-1.1,0.2
					c-0.4,0.1-0.8,0.3-1,0.5v5.7c0.6,0.6,1.4,0.9,2.2,0.9c0.5,0,0.9-0.1,1.3-0.3s0.8-0.4,1-0.8c0.3-0.3,0.5-0.7,0.7-1.2
					C348.8,59.2,348.8,58.7,348.8,58.1"/>
				<rect x="353.4" y="52.1" class="st7" width="3" height="12"/>
				<path class="st7" d="M365.4,49.7c-0.3-0.1-0.5-0.2-0.8-0.2c-0.2,0-0.5-0.1-0.7-0.1c-0.6,0-1,0.1-1.2,0.4
					c-0.2,0.3-0.4,0.7-0.4,1.4v1h1.9v2.6h-1.9v9.3h-3v-9.3h-1.4v-2.6h1.4v-0.9c0-1.5,0.3-2.6,0.8-3.4c0.6-0.8,1.5-1.2,3-1.2
					c0.8,0,1.5,0.1,2.3,0.3L365.4,49.7L365.4,49.7z"/>
				<path class="st7" d="M374.4,53.4l-1.6,2.5c-0.3-0.3-0.6-0.6-1-0.8s-0.7-0.4-1.1-0.4c-0.2,0-0.4,0-0.6,0.1s-0.4,0.2-0.6,0.4
					s-0.4,0.5-0.5,0.8s-0.2,0.8-0.2,1.2v6.7h-3V52.1h3v1.3c0.4-0.5,0.8-0.9,1.2-1.2c0.4-0.3,0.9-0.4,1.5-0.4c0.5,0,1,0.1,1.5,0.4
					C373.5,52.5,374,52.9,374.4,53.4"/>
				<path class="st7" d="M385,64.1h-3v-0.6c-0.5,0.4-1.1,0.6-1.7,0.7s-1.2,0.2-1.8,0.2c-0.6,0-1.1-0.1-1.6-0.3
					c-0.5-0.2-0.9-0.4-1.2-0.7c-0.3-0.3-0.6-0.7-0.8-1.1c-0.2-0.4-0.3-0.9-0.3-1.5c0-0.7,0.1-1.3,0.4-1.8s0.7-0.9,1.2-1.3
					c0.5-0.3,1.1-0.6,1.8-0.8c0.7-0.2,1.4-0.2,2.2-0.2h1.7c0-0.7-0.2-1.3-0.7-1.7s-1.1-0.6-2-0.6c-0.4,0-0.8,0.1-1.3,0.2
					c-0.4,0.2-0.9,0.4-1.3,0.8l-1.8-1.8c0.6-0.6,1.4-1.1,2.2-1.4c0.8-0.3,1.7-0.5,2.6-0.5c0.8,0,1.6,0.1,2.2,0.4
					c0.6,0.3,1.2,0.6,1.6,1c0.5,0.5,0.9,1.1,1.1,1.8c0.2,0.6,0.3,1.5,0.3,2.5v6.7H385z M382,61.1v-2.2h-1.4c-0.4,0-0.8,0-1.2,0.1
					c-0.4,0.1-0.7,0.1-0.9,0.3c-0.3,0.1-0.5,0.3-0.6,0.5c-0.2,0.2-0.2,0.5-0.2,0.7c0,0.4,0.2,0.8,0.5,1c0.3,0.3,0.7,0.4,1.2,0.4
					c0.4,0,0.9-0.1,1.3-0.2C381.1,61.6,381.5,61.4,382,61.1"/>
				<path class="st7" d="M410.3,62.3c-0.6,0.7-1.3,1.2-2.2,1.6c-0.9,0.4-1.7,0.5-2.7,0.5c-0.9,0-1.7-0.2-2.5-0.5
					c-0.8-0.3-1.4-0.8-2-1.3c-0.6-0.6-1-1.2-1.3-2s-0.5-1.6-0.5-2.5s0.2-1.7,0.5-2.5s0.8-1.4,1.3-2c0.6-0.6,1.2-1,2-1.3
					s1.6-0.5,2.5-0.5s1.8,0.2,2.6,0.5c0.8,0.3,1.5,0.8,2.1,1.5l-2,2c-0.3-0.4-0.7-0.7-1.1-1s-1-0.4-1.6-0.4c-0.5,0-0.9,0.1-1.3,0.3
					s-0.8,0.5-1.1,0.8c-0.3,0.3-0.6,0.7-0.7,1.1c-0.2,0.4-0.3,0.9-0.3,1.4s0.1,1,0.3,1.4c0.2,0.4,0.4,0.8,0.7,1.1
					c0.3,0.3,0.7,0.6,1.1,0.8s0.8,0.3,1.3,0.3c0.6,0,1.1-0.1,1.6-0.4c0.5-0.3,0.9-0.6,1.2-1.1L410.3,62.3z"/>
				<path class="st7" d="M423.7,58.1c0,0.2,0,0.4,0,0.6c0,0.2,0,0.4-0.1,0.6H414c0.1,0.3,0.3,0.7,0.5,1s0.4,0.6,0.7,0.8
					c0.3,0.2,0.6,0.4,1,0.5s0.8,0.2,1.2,0.2c0.5,0,1.1-0.1,1.6-0.3s1-0.4,1.3-0.8l1.9,1.9c-0.8,0.6-1.6,1.1-2.4,1.3
					c-0.8,0.3-1.6,0.4-2.5,0.4s-1.7-0.2-2.5-0.5c-0.8-0.3-1.5-0.8-2-1.3c-0.6-0.6-1-1.2-1.4-2c-0.3-0.8-0.5-1.6-0.5-2.4
					c0-0.9,0.2-1.7,0.5-2.4c0.3-0.8,0.8-1.4,1.4-2s1.3-1,2-1.3c0.8-0.3,1.6-0.5,2.5-0.5c0.8,0,1.6,0.2,2.4,0.5s1.5,0.7,2,1.3
					c0.6,0.6,1.1,1.2,1.4,2C423.5,56.3,423.7,57.2,423.7,58.1 M420.6,56.9c-0.2-0.8-0.6-1.4-1.2-1.8c-0.6-0.5-1.3-0.7-2-0.7
					s-1.4,0.2-2,0.7s-1,1.1-1.2,1.8H420.6z"/>
				<path class="st7" d="M397.6,64.1h-2.9V57c0-1.3-1.1-2.4-2.4-2.4s-2.4,1.1-2.4,2.4v7.1H387V57c0-2.9,2.4-5.3,5.3-5.3
					s5.3,2.4,5.3,5.3V64.1z"/>
				<path class="st7" d="M356.5,49.3c0,0.9-0.7,1.6-1.6,1.6s-1.6-0.7-1.6-1.6c0-0.9,0.7-1.6,1.6-1.6S356.5,48.4,356.5,49.3"/>
				<path class="st7" d="M326.9,62.2c-0.6,0.7-1.4,1.2-2.2,1.6c-0.9,0.4-1.8,0.6-2.8,0.6c-0.9,0-1.7-0.2-2.5-0.5
					c-0.8-0.3-1.5-0.8-2.1-1.3c-0.6-0.6-1-1.3-1.4-2c-0.3-0.8-0.5-1.6-0.5-2.6c0-0.9,0.2-1.8,0.5-2.5c0.3-0.8,0.8-1.5,1.4-2
					c0.6-0.6,1.3-1,2.1-1.4c0.8-0.3,1.6-0.5,2.5-0.5s1.8,0.2,2.7,0.5c0.8,0.3,1.6,0.9,2.2,1.5l-2.1,2.1c-0.3-0.4-0.7-0.7-1.1-1
					s-1-0.4-1.6-0.4c-0.5,0-0.9,0.1-1.3,0.3s-0.8,0.5-1.1,0.8c-0.3,0.3-0.6,0.7-0.8,1.2c-0.2,0.5-0.3,0.9-0.3,1.4s0.1,1,0.3,1.4
					c0.2,0.5,0.4,0.8,0.7,1.2c0.3,0.3,0.7,0.6,1.1,0.8s0.9,0.3,1.3,0.3c0.6,0,1.2-0.1,1.7-0.4c0.5-0.3,0.9-0.7,1.2-1.1L326.9,62.2z"
					/>
			</g>
		</g>
		<text transform="matrix(1 0 0 1 369.4619 83.251)" class="st8 st9 st10">viager</text>
	</g>
	<rect x="296" class="st11" width="148" height="4"/>
	<text transform="matrix(1 0 0 1 325.6113 119.2793)" class="st8 st2 st3"> Immobilier</text>
	<text transform="matrix(1 0 0 1 332.0113 140.2793)" class="st8 st2 st3">en viagier</text>
</g>
<g id="Layer_2">
</g>
</svg>
