<?xml version="1.0" encoding="utf-8"?>
<!-- Generator: Adobe Illustrator 20.0.0, SVG Export Plug-In . SVG Version: 6.00 Build 0)  -->
<svg version="1.1" id="skyline" xmlns="http://www.w3.org/2000/svg" xmlns:xlink="http://www.w3.org/1999/xlink" x="0px" y="0px"
	 viewBox="0 0 1100 200" style="enable-background:new 0 0 1100 200;" xml:space="preserve">
<style type="text/css">
	.st0{fill:#FFFFFF;}
	.st1{fill:none;}
	.st2{fill:#FFFFFF;stroke:#BBCE1F;stroke-width:0.154;stroke-miterlimit:10;}
	.st3{fill:none;stroke:#BBCE1F;stroke-width:0.154;stroke-miterlimit:10;}
</style>
<g>
	<path class="st0" d="M-162.6,108.6v77.9h31.3v-77.9H-162.6z M-137.6,112.1l-0.3,1.9h-2.7l-0.4-1.9H-137.6z M-140.7,116h2.7l0.4,1.9
		h-3.4L-140.7,116z M-137.7,133.8h-2.7l-0.4-1.9h3.4L-137.7,133.8z M-137.2,136l-0.3,1.9h-2.7l-0.4-1.9H-137.2z M-146,125.7l0.3-1.9
		h2.7l0.4,1.9H-146z M-142.5,131.9l-0.3,1.9h-2.7l-0.4-1.9H-142.5z M-146,121.3l0.3-1.9h2.7l0.4,1.9H-146z M-142.6,116l-0.3,1.9
		h-2.7l-0.4-1.9H-142.6z M-146.1,141.2h2.7l0.4,1.9h-3.4L-146.1,141.2z M-146.3,160.7h2.4l0.4,1.6h-3L-146.3,160.7z M-146.8,155.9
		l-0.4-1.6h3l-0.2,1.6H-146.8z M-146.8,129.8h-3.4l0.3-1.9h2.7L-146.8,129.8z M-150.2,144.1h2.7l0.4,1.9h-3.4L-150.2,144.1z
		 M-151.3,141.2l0.3-1.9h2.7l0.4,1.9H-151.3z M-150.8,112.1h2.7l0.4,1.9h-3.4L-150.8,112.1z M-147.6,119.4l-0.3,1.9h-2.7l-0.4-1.9
		H-147.6z M-147.7,123.8l-0.3,1.9h-2.7l-0.4-1.9H-147.7z M-155.7,112.1h2.7l0.4,1.9h-3.4L-155.7,112.1z M-152.4,116l-0.3,1.9h-2.7
		l-0.4-1.9H-152.4z M-156.5,150.1h2.4l0.4,1.6h-3L-156.5,150.1z M-153.5,158.8h-3l0.2-1.6h2.4L-153.5,158.8z M-153.7,165.9h-2.4
		l-0.4-1.6h3L-153.7,165.9z M-156,162.4l0.2-1.6h2.4l0.4,1.6H-156z M-154.8,129.8l-0.4-1.9h3.4l-0.3,1.9H-154.8z M-148.3,131.9
		l-0.3,1.9h-2.7l-0.4-1.9H-148.3z M-148.5,152.6l-0.2,1.6h-2.4l-0.4-1.6H-148.5z M-148.7,173.2h-2.4l-0.4-1.6h3L-148.7,173.2z
		 M-148.7,169.5h-2.4l-0.4-1.6h3L-148.7,169.5z M-151.5,162.4l0.2-1.6h2.4l0.4,1.6H-151.5z M-144.8,150.1l-0.2,1.6h-2.4l-0.4-1.6
		H-144.8z M-147.8,164.1h3l-0.2,1.6h-2.4L-147.8,164.1z M-147.1,173.2l0.2-1.6h2.4l0.4,1.6H-147.1z M-147.1,169.5l0.2-1.6h2.4
		l0.4,1.6H-147.1z M-143.4,165.9l0.2-1.6h2.4l0.4,1.6H-143.4z M-137.2,146h-2.7l-0.4-1.9h3.4L-137.2,146z M-140.2,129.8l0.3-1.9h2.7
		l0.4,1.9H-140.2z M-132.8,114.1h-2.7l-0.4-1.9h3.4L-132.8,114.1z"/>
	<polygon class="st0" points="-131.4,108.6 -127.8,112.8 -127.8,185.4 -131.4,185.3 	"/>
	<polygon class="st0" points="309.3,203.2 -162.9,203.2 -162.9,183.5 232.5,183.5 245.2,180.6 309.3,183.5 	"/>
	<rect x="-115.5" y="151.1" class="st0" width="5.1" height="35.4"/>
	<path class="st0" d="M-116.8,145.6c0-1,0.8-1.8,1.8-1.8h3.8c1,0,1.8,0.8,1.8,1.8v4.5c0,1-0.8,1.8-1.8,1.8h-3.8
		c-1,0-1.8-0.8-1.8-1.8V145.6z"/>
	<rect x="-118.3" y="140.1" class="st0" width="15.4" height="5.6"/>
	<rect x="-132" y="140.5" class="st0" width="14.5" height="2.8"/>
	<rect x="-136.3" y="140.1" class="st0" width="5.2" height="4.4"/>
	<line class="st1" x1="-131.1" y1="140.1" x2="-115.1" y2="135.1"/>
	<path class="st0" d="M-116.8,140.1l2.1-6.5c0,0,1-0.7,1.7,0c0.6,0.8,1.9,6.5,1.9,6.5"/>
	<line class="st1" x1="-112.4" y1="135.1" x2="-80.9" y2="140.1"/>
	<polygon class="st0" points="-66.2,142.2 -103.2,142.2 -103.2,138.7 -68.3,138.9 	"/>
	<polygon class="st0" points="-104.8,140.3 -102.9,140.2 -103.2,138.9 	"/>
	<path class="st0" d="M-67.9,142.2c0,0.7-0.6,1.3-1.3,1.3h-2.1c-0.7,0-1.3-0.6-1.3-1.3l0,0c0-0.7,0.6-1.3,1.3-1.3h2.1
		C-68.5,141-67.9,141.5-67.9,142.2L-67.9,142.2z"/>
	<line class="st1" x1="-70.3" y1="143.2" x2="-70.3" y2="162"/>
	<path class="st0" d="M-70.3,162.9c-0.6-1.5,1.8,3.5-1.3,2c-1.3-0.6,0.8-0.3,0.8-0.3S-70.2,161.7-70.3,162.9z"/>
	<circle class="st0" cx="-70.4" cy="162.7" r="0.9"/>
	<g>
		<rect x="119.8" y="149.9" class="st0" width="2.8" height="33.6"/>
		<path class="st0" d="M123.3,146.6c0-0.6-0.4-1.1-1-1.1h-2.1c-0.6,0-1,0.5-1,1.1v2.6c0,0.6,0.4,1.1,1,1.1h2.1c0.6,0,1-0.5,1-1.1
			V146.6z"/>
		<rect x="115.6" y="143.3" class="st0" width="8.6" height="3.3"/>
		<rect x="123.7" y="143.5" class="st0" width="8.1" height="1.7"/>
		<rect x="131.3" y="143.3" class="st0" width="2.9" height="2.5"/>
		<line class="st1" x1="131.3" y1="143.3" x2="122.4" y2="140.4"/>
		<path class="st0" d="M123.3,143.3l-1.2-3.8c0,0-0.6-0.4-0.9,0c-0.4,0.4-1.1,3.8-1.1,3.8"/>
		<line class="st1" x1="120.9" y1="140.4" x2="103.4" y2="143.3"/>
		<polygon class="st0" points="95.2,144.6 115.7,144.6 115.7,142.6 96.4,142.7 		"/>
		<polygon class="st0" points="116.6,143.4 115.6,143.4 115.7,142.7 		"/>
		<path class="st0" d="M96.2,144.6c0,0.4,0.3,0.7,0.7,0.7h1.2c0.4,0,0.7-0.3,0.7-0.7l0,0c0-0.4-0.3-0.7-0.7-0.7h-1.2
			C96.5,143.8,96.2,144.2,96.2,144.6L96.2,144.6z"/>
		<line class="st1" x1="97.5" y1="145.2" x2="97.5" y2="161.2"/>
		<path class="st0" d="M97.4,161.3c0.3-0.9-1,2.1,0.7,1.2c0.7-0.4-0.5-0.2-0.5-0.2S97.4,160.6,97.4,161.3z"/>
		<ellipse class="st0" cx="97.5" cy="161.2" rx="0.5" ry="0.6"/>
	</g>
	<path class="st0" d="M-40.3,102.4v85.2h25.8v-85.2C-14.5,102.4-40.3,102.4-40.3,102.4z M-19.4,121.2H-22l0.2-1.6h2.1L-19.4,121.2z
		 M-19.4,126.5l-0.2,1.6h-2.1l-0.3-1.6H-19.4z M-22.2,124.6l-0.3-1.6h2.6l-0.2,1.6H-22.2z M-20,106.1l-0.2,1.6h-2.1l-0.3-1.6H-20z
		 M-22.4,109.3h2.1l0.3,1.6h-2.6L-22.4,109.3z M-23.3,152.8h-3l0.2-1.8h2.4L-23.3,152.8z M-26.8,145.6l-0.4-1.8h3l-0.2,1.8H-26.8z
		 M-26.6,132.6l0.2-1.6h2.1l0.3,1.6H-26.6z M-23.8,123l-0.2,1.6h-2.1l-0.3-1.6H-23.8z M-26.6,117.6l0.2-1.6h2.1l0.3,1.6H-26.6z
		 M-26.6,114l0.2-1.6h2.1l0.3,1.6H-26.6z M-23.9,109.3l-0.2,1.6h-2.1l-0.3-1.6H-23.9z M-31.5,152.8l0.2-1.8h2.4l0.4,1.8H-31.5z
		 M-28.5,158.9l-0.2,1.8h-2.4l-0.4-1.8H-28.5z M-28.7,143.8h-2.4l-0.4-1.8h3L-28.7,143.8z M-28.5,124.6h-2.1l-0.3-1.6h2.6
		L-28.5,124.6z M-28.1,129.2l0.3,1.6h-2.6l0.2-1.6H-28.1z M-29.8,135.1l0.2-1.6h2.1l0.3,1.6H-29.8z M-27.2,121.2h-2.6l0.2-1.6h2.1
		L-27.2,121.2z M-30.3,106.1h2.1l0.3,1.6h-2.6L-30.3,106.1z M-27.8,112.3L-28,114h-2.1l-0.3-1.6H-27.8z M-27.9,116l-0.2,1.6h-2.1
		l-0.3-1.6H-27.9z M-31.2,121.2h-2.1l-0.3-1.6h2.6L-31.2,121.2z M-35.9,151h2.4l0.4,1.8h-3L-35.9,151z M-36.6,148.8l0.2-1.8h2.4
		l0.4,1.8H-36.6z M-34,106.1h2.1l0.3,1.6h-2.6L-34,106.1z M-31.6,109.3l-0.2,1.6h-2.1l-0.3-1.6H-31.6z M-36.6,138.9h2.4l0.4,1.8h-3
		L-36.6,138.9z M-36.6,154.8h3l-0.2,1.8h-2.4L-36.6,154.8z M-36,172.1l0.2-1.8h2.4l0.4,1.8H-36z M-33.1,168.4h-2.4l-0.4-1.8h3
		L-33.1,168.4z M-28.5,163.1l-0.2,1.8h-2.4l-0.4-1.8H-28.5z M-31.4,168.4l0.2-1.8h2.4l0.4,1.8H-31.4z M-24.7,138.9l-0.2,1.8h-2.5
		l-0.4-1.8H-24.7z M-27.8,154.8h3l-0.2,1.8h-2.4L-27.8,154.8z M-24.1,172.1h-2.4l-0.4-1.8h3L-24.1,172.1z M-27,165.1l0.2-1.8h2.4
		l0.4,1.8H-27z M-27,160.8l0.2-1.8h2.4l0.4,1.8H-27z M-23.1,154.8h2.4l0.4,1.8h-3L-23.1,154.8z M-19.9,172.1h-2.4l-0.4-1.8h3
		L-19.9,172.1z M-22.7,168.4l0.3-1.8h2.4l0.4,1.8H-22.7z M-19.5,135.1h-2.1l-0.3-1.6h2.6L-19.5,135.1z M-16.3,107.7h-2.1l-0.3-1.6
		h2.6L-16.3,107.7z"/>
	<polygon class="st0" points="-14.8,102.3 -10.7,108 -10.7,186.3 -14.8,186.3 	"/>
	<polyline class="st0" points="-83.5,183.5 -83.5,177.1 -72.9,177.1 -72.9,178.8 -70.5,178.9 -70.5,180.3 -67.9,180.3 -67.9,177.9 
		-65.3,177.9 -65.3,178.8 -64.3,178.8 -64.3,183.5 	"/>
	<path class="st0" d="M-40.3,183.5h-14.2c0,0-1.5-17.5-0.8-18.9c0.8-1.4,14.9-1.4,14.9-1.4v20.3H-40.3z"/>
	<polygon class="st0" points="69.1,105.1 76,107.7 76,187.1 69.1,187.1 	"/>
	<path class="st0" d="M38.9,107.5v80h30.2v-82.5L38.9,107.5z M66.6,132.1l-25.4-0.7l25.4-1.6V132.1z M66.7,134.7l-25.4,1.6V134
		L66.7,134.7z M66.5,109.5v2.3l-25.4-0.7L66.5,109.5z M66.6,122.6v2.3l-25.4-0.7L66.6,122.6z M41.1,112.9l25.4,0.7l-25.4,1.6
		C41.1,115.3,41.1,112.9,41.1,112.9z M66.5,115.8v2.3l-25.4-0.7L66.5,115.8z M41.1,119.8l25.4,0.7l-25.4,1.6
		C41.1,122.2,41.1,119.8,41.1,119.8z M66.5,137v2.3l-25.4-0.7L66.5,137z M41.3,141.2l25.4,0.7l-25.4,1.6V141.2z M57.7,183.1
		l-5.3,0.6l-0.2-11.9l5.4-0.8L57.7,183.1z M41.4,156.6v-2.3l25.4,0.7L41.4,156.6z M66.8,153.1l-25.4-0.7l25.4-1.6V153.1z
		 M41.4,150.2v-2.3l25.4,0.7L41.4,150.2z M66.8,146.2l-25.4-0.7l25.4-1.6V146.2z M41.4,129v-2.3l25.4,0.7L41.4,129z"/>
	<path class="st0" d="M34,158.5c-1.3-2.1-11.9-5.5-17.5-5.5s-21.3,2.9-22.8,5.5c-1.4,2.6,0,25.3,0,25.3h40.2
		C34,183.8,35.4,160.6,34,158.5z M11.2,161.3c0.1,0.6-2.1,1.4-5,1.7s-5.2,0.1-5.3-0.5c-0.1-0.6,2.1-1.4,5-1.7
		C8.8,160.4,11.1,160.7,11.2,161.3z M7.4,165.3c0.1,0.6-2.1,1.4-5,1.7s-5.2,0.1-5.3-0.5c-0.1-0.6,2.1-1.4,5-1.7S7.3,164.6,7.4,165.3
		z M1.6,158c2.8-0.3,5.2-0.1,5.3,0.5c0.1,0.6-2.1,1.4-5,1.7c-2.8,0.3-5.2,0.1-5.3-0.5C-3.5,159.1-1.3,158.3,1.6,158z M0.6,175
		c-2.8,0.3-5.2,0.1-5.3-0.5c-0.1-0.6,2.1-1.4,5-1.7s5.2-0.1,5.3,0.5C5.7,173.8,3.4,174.6,0.6,175z M8.3,170.3
		c-2.8,0.3-5.2,0.1-5.3-0.5c-0.1-0.6,2.1-1.4,5-1.7s5.2-0.1,5.3,0.5C13.4,169.2,11.2,170,8.3,170.3z M25.3,158.5
		c0.1-0.4,1.6-0.3,3.4,0.1c1.8,0.4,3.2,1.1,3.1,1.5c-0.1,0.4-1.6,0.3-3.4-0.1C26.6,159.6,25.1,158.9,25.3,158.5z M31.4,165.7
		c-0.1,0.4-1.6,0.3-3.4-0.1c-1.8-0.4-3.2-1.1-3.1-1.5c0.1-0.4,1.6-0.3,3.4,0.1C30.1,164.5,31.5,165.3,31.4,165.7z M21.5,160
		c0.1-0.4,1.6-0.3,3.4,0.1c1.8,0.4,3.2,1.1,3.1,1.5c-0.1,0.4-1.6,0.3-3.4-0.1C22.8,161.1,21.4,160.4,21.5,160z M21.3,169.7
		c0.1-0.4,1.6-0.3,3.4,0.1c1.8,0.4,3.2,1.1,3.1,1.5c-0.1,0.4-1.6,0.3-3.4-0.1C22.6,170.7,21.2,170.1,21.3,169.7z M22.5,172.5
		c0.1-0.4,1.6-0.3,3.4,0.1c1.8,0.4,3.2,1.1,3.1,1.5c-0.1,0.4-1.6,0.3-3.4-0.1C23.8,173.6,22.4,172.9,22.5,172.5z M31.4,177
		c-0.1,0.4-1.6,0.3-3.4-0.1c-1.8-0.4-3.2-1.1-3.1-1.5c0.1-0.4,1.6-0.3,3.4,0.1C30.1,175.9,31.5,176.6,31.4,177z M32.1,169.8
		c-0.1,0.4-1.6,0.3-3.4-0.1c-1.8-0.4-3.2-1.1-3.1-1.5c0.1-0.4,1.6-0.3,3.4,0.1C30.8,168.8,32.2,169.4,32.1,169.8z"/>
	<polygon class="st0" points="89.5,177.7 93.4,177.7 93.4,164.7 101.5,164.7 101.5,167.5 103.9,167.6 103.9,175 106.6,175 
		106.6,179.6 114.5,179.6 114.9,183.6 87.8,183.5 87.8,177.7 	"/>
	<polyline class="st0" points="-76.9,168.1 -66.5,168.3 -65.6,167.6 -75.2,167.4 -76.9,168.1 	"/>
	<polyline class="st2" points="-76.4,168 -70.9,164.7 -65.6,167.6 	"/>
	<line class="st3" x1="-70.9" y1="164.9" x2="-66.6" y2="168.3"/>
	
		<rect x="-72" y="159.7" transform="matrix(4.892073e-02 -0.9988 0.9988 4.892073e-02 -235.4933 87.4781)" class="st0" width="0.4" height="15.5"/>
	
		<rect x="-72.9" y="159.3" transform="matrix(4.905855e-02 -0.9988 0.9988 4.905855e-02 -235.8887 86.2435)" class="st0" width="0.4" height="15.5"/>
	<polygon class="st0" points="-63,167.3 -78.5,166.6 -78.5,166.2 -63,166.9 	"/>
	<polygon class="st0" points="-10.7,178 -3.3,180.3 -1.9,186.3 -14.5,187.7 	"/>
	<path class="st0" d="M231.2,173L231.2,173c0-0.3-0.1-0.6-0.2-0.8c-0.3-1.2-1.4-1.8-2.5-1.6c-0.3-0.4-0.8-0.8-1.3-0.9
		c-0.8-0.3-1.7,0-2.3,0.6c-1.6-1.2-4-0.5-4.8,1.6c0,0.1-0.1,0.2-0.1,0.3l0,0c-0.7,0.2-1.4,0.8-1.5,1.5v0.1c-0.4,0.9-0.3,1.9,0.2,2.8
		c0.6,0.9,1.4,1.4,2.5,1.4c0,0,0,0.1,0.1,0.1l0.9,0.3c0,0,0,0,0-0.1l0.1,0.1c0.2,0.2,0.5,0.5,0.7,0.7l0,0c0.1,0.2,0.2,0.5,0.3,0.8
		c-0.3-0.5-0.7-1.1-1.1-1.6l-0.9-0.3c1,1.4,1.9,2.8,2.7,4.2c0,0.2-0.1,0.5-0.2,0.8c-0.2,0.7,0,1,0.7,1.1c0.1,0,0.2,0,0.3,0l0,0
		c0.4,0,0.6-0.4,0.5-0.8c-0.1-0.3-0.2-0.5-0.3-0.8c0,0,0-0.1,0-0.2c0.4-0.8,1.3-1.3,1.9-2c0.3-0.4,0.6-1,0.7-1.6
		c0.3,0,0.5-0.1,0.8-0.3c0.5-0.3,0.8-0.9,0.9-1.4c0.1-0.1,0.1-0.2,0.3-0.2c1-0.2,1.6-0.8,1.8-1.8C231.7,174.3,231.5,173.7,231.2,173
		z M224.9,180.3c-0.1,0.1-0.2,0.2-0.3,0.2c-0.2,0-0.7-1-0.9-1.4l0,0c0.4,0,0.7,0,1.1-0.1l0,0l0,0l0,0l0,0c0.1,0,0.1,0,0.2,0h0.2v0.1
		C225.3,179.4,225.2,180,224.9,180.3z M226.3,180.3c-0.3,0.3-0.6,0.6-1,0.9c0.1-0.7,0.2-1.8,0.5-2.5c0,0,0,0,0-0.1
		c0.1-0.1,0.1-0.1,0.2-0.2c0.3,0.1,0.6,0.2,0.9,0.3l0,0h0.2C227,179.4,226.7,179.9,226.3,180.3z"/>
	<path class="st0" d="M86.2,175.2L86.2,175.2c0-0.3-0.1-0.5-0.2-0.7c-0.2-0.9-1.1-1.4-2-1.3c-0.3-0.3-0.6-0.6-1.1-0.8
		c-0.7-0.2-1.4,0-1.8,0.4c-1.3-0.9-3.2-0.4-3.7,1.3c0,0.1-0.1,0.2-0.1,0.2l0,0c-0.6,0.1-1.1,0.6-1.2,1.2v0.1
		c-0.3,0.8-0.3,1.5,0.2,2.2s1.2,1.1,2,1.1c0,0,0,0,0,0.1l0.7,0.2c0,0,0,0,0-0.1c0,0,0,0,0.1,0.1c0.2,0.2,0.4,0.4,0.5,0.6l0,0
		c0.1,0.1,0.2,0.4,0.3,0.7c-0.3-0.4-0.6-0.8-0.9-1.3l-0.7-0.2c0.8,1.1,1.5,2.2,2.2,3.4c0,0.2-0.1,0.4-0.2,0.6
		c-0.2,0.6,0,0.8,0.6,0.9c0.1,0,0.2,0,0.3,0l0,0c0.3,0,0.5-0.3,0.4-0.6c-0.1-0.2-0.2-0.4-0.2-0.7v-0.1c0.3-0.6,1.1-1,1.5-1.6
		c0.3-0.4,0.4-0.8,0.6-1.2c0.2,0,0.4-0.1,0.6-0.2c0.4-0.3,0.6-0.7,0.7-1.1c0.1-0.1,0.1-0.2,0.3-0.2c0.8-0.1,1.3-0.6,1.4-1.4
		C86.6,176.2,86.4,175.7,86.2,175.2z M81.2,180.9c-0.1,0.1-0.1,0.2-0.2,0.2c-0.2,0-0.5-0.8-0.7-1.1l0,0c0.3,0,0.6,0,0.9-0.1l0,0l0,0
		l0,0l0,0c0.1,0,0,0,0.2,0h0.2v0.1C81.4,180.2,81.3,180.7,81.2,180.9z M82.2,181c-0.2,0.3-0.5,0.5-0.8,0.7c0.1-0.5,0.2-1.4,0.4-2
		l0,0c0-0.1,0.1-0.1,0.1-0.1c0.2,0.1,0.5,0.2,0.7,0.2l0,0h0.2C82.8,180.2,82.6,180.6,82.2,181z"/>
	<path class="st0" d="M-87.6,168.1L-87.6,168.1c0-0.5-0.2-0.8-0.3-1.2c-0.4-1.7-2-2.6-3.6-2.4c-0.5-0.6-1.1-1.1-1.9-1.4
		c-1.2-0.4-2.5,0-3.3,0.8c-2.3-1.7-5.9-0.7-6.9,2.3c-0.1,0.2-0.1,0.3-0.2,0.4l0,0c-1,0.3-2,1.1-2.1,2.1c0,0.1,0,0.1,0,0.2
		c-0.5,1.4-0.5,2.7,0.4,4c0.9,1.4,2.1,2,3.6,2l0.1,0.1l1.3,0.4c0,0,0-0.1-0.1-0.1l0.1,0.1c0.3,0.3,0.7,0.7,1,1l0,0
		c0.2,0.2,0.4,0.7,0.5,1.2c-0.5-0.8-1-1.5-1.6-2.3l-1.3-0.4c1.4,2,2.8,4,4,6.2c-0.1,0.3-0.2,0.7-0.3,1.2c-0.4,1,0,1.5,1,1.5
		c0.2,0,0.3,0,0.5,0l0,0c0.6-0.1,0.9-0.5,0.7-1.1c-0.1-0.4-0.3-0.8-0.4-1.2c0,0,0-0.1,0-0.3c0.6-1.1,2-1.8,2.7-2.9
		c0.5-0.6,0.8-1.5,1-2.3c0.4-0.1,0.7-0.2,1.1-0.4c0.7-0.5,1.2-1.2,1.3-2.1c0.1-0.2,0.2-0.3,0.5-0.3c1.5-0.2,2.4-1.2,2.6-2.6
		C-86.8,169.9-87.1,169-87.6,168.1z M-96.6,178.7c-0.1,0.2-0.2,0.3-0.4,0.3c-0.3,0-1-1.5-1.2-2l0,0c0.5,0,1.1-0.1,1.6-0.1l0,0l0,0
		l0,0l0,0c0.2,0,0.1,0,0.3,0h0.3c0,0.1,0.1,0.2,0,0.2C-96.2,177.3-96.3,178.2-96.6,178.7z M-94.6,178.7c-0.4,0.5-0.9,0.9-1.4,1.3
		c0.2-1,0.3-2.6,0.8-3.7v-0.1c0.1-0.1,0.2-0.2,0.3-0.2c0.4,0.2,0.8,0.4,1.2,0.4l0,0l0.3,0.1C-93.5,177.3-93.9,178.1-94.6,178.7z"/>
	<path class="st0" d="M220.5,148.8c-2.5-1.8-91.5-2.1-93.6-0.2c-2.2,1.9,0,36.8,0,36.8H221C220.9,185.4,222.4,150.1,220.5,148.8z
		 M136.8,153.1c1-1,19.2-1.2,20,0c0.6,1,0.3,4.4,0.1,5.8h6.8c-0.2-1.4-0.6-4.9,0.1-5.8c0.8-1,19.3-0.9,20,0c0.5,0.7,0.2,4.2,0.1,5.8
		h6.5c-0.2-1.4-0.5-4.8,0.1-5.8c0.7-1.2,19.3-1.2,20,0c0.7,1.2,0,6.4,0,6.4v0.1h-73.7v-0.1C136.8,159.5,135.7,154.1,136.8,153.1z
		 M136.8,165.8c0.8-1,19.3-0.9,20,0c0.6,0.8,0.2,5,0,6.1h6.9c-0.1-1.1-0.6-5.1,0-6.1c0.7-1.2,19.3-1.2,20,0c0.6,1.1,0.2,5,0,6.1h6.6
		c-0.2-1.2-0.7-5.2,0.1-6c1-1,19.2-1.2,20,0c0.8,1.2,0,6.4,0,6.4v0.4h-73.7v-0.4C136.8,172.1,135.8,166.8,136.8,165.8z M157.4,182.4
		h-19.9c0,0-0.8-5.4,0-6.4s19.3-0.9,20,0C158.1,177,157.4,182.4,157.4,182.4z M177.2,184.4h-6.1v-6.1h6.1V184.4z M178.3,179.2h-0.5
		v-1.6h-7.4v1.6h-0.6c0,0-0.2-2,0-2.1c0.2-0.1,8.3-0.2,8.5,0C178.5,177.2,178.3,179.2,178.3,179.2z M211.1,182.5h-20
		c0,0-1-5.4,0-6.4c1-1,19.2-1.2,20,0S211.1,182.5,211.1,182.5z"/>
	<path class="st0" d="M285.1,154.1v28.4l9.1,0.3v-24.1L285.1,154.1z M293.4,164.5l-7.3-3.1v-3.1l7.3,3.2V164.5z"/>
	<path class="st0" d="M248.2,154.1v28.4H285v-28.4H248.2z M277,165.1c0.7,0,1.2,0.5,1.2,1.2c0,0.7-0.5,1.2-1.2,1.2s-1.2-0.5-1.2-1.2
		C275.8,165.6,276.3,165.1,277,165.1z M254.7,165c0.7,0,1.2,0.5,1.2,1.2s-0.5,1.2-1.2,1.2s-1.2-0.5-1.2-1.2
		C253.5,165.6,254.1,165,254.7,165z M259.9,177.9h-9.6v-6.1h9.6V177.9z M265.4,167.4c-0.7,0-1.2-0.5-1.2-1.2s0.5-1.2,1.2-1.2
		s1.2,0.5,1.2,1.2S266.1,167.4,265.4,167.4z M278.4,181.6h-5.4v-9.7h5.4V181.6z"/>
</g>
<path class="st0" d="M716.9,163.9l-15.8,3.2v15.6h-5.6v-27.8l-8.4-3H610v30.9h-7.1v-67l-3.6-4.8h-22.1v65.9l-5.1,0.7
	c0,0,0-0.1,0-0.2c0-0.1-0.1-0.3-0.1-0.4c0,0,0,0,0-0.1c0.2-0.4,0.6-0.6,0.9-0.9c0.2-0.2,0.3-0.5,0.3-0.7c0.1,0,0.2-0.1,0.4-0.1
	c0.2-0.2,0.4-0.4,0.4-0.7c0-0.1,0.1-0.1,0.2-0.1c0.5-0.1,0.8-0.4,0.8-0.9c0-0.3,0-0.6-0.2-0.9l0,0c0-0.1,0-0.2-0.1-0.4
	c-0.1-0.5-0.6-0.8-1.2-0.8c-0.2-0.2-0.4-0.4-0.6-0.4c-0.4-0.1-0.8,0-1.1,0.3c-0.8-0.6-1.9-0.2-2.2,0.7c0,0,0,0.1-0.1,0.1l0,0
	c-0.3,0.1-0.7,0.4-0.7,0.7c0,0,0,0,0,0.1c-0.2,0.4-0.2,0.9,0.1,1.3c0.3,0.4,0.7,0.7,1.2,0.7l0,0l0.4,0.1l0,0l0,0
	c0.1,0.1,0.2,0.2,0.3,0.3l0,0c0.1,0.1,0.1,0.2,0.2,0.4c-0.2-0.3-0.3-0.5-0.5-0.7l-0.4-0.1c0.5,0.6,0.9,1.3,1.3,2
	c0,0.1-0.1,0.2-0.1,0.4c-0.1,0.2-0.1,0.3,0,0.4l-3.8,0.6v-43.6h-21.9v46.4l-4.4-1.2v-8.5l-10-6l-10,6l0.6,11.3h-2.4v-8.4l-15.6-6.2
	l-10.3,6.2v8.4h-7.3l3.1-42.9l-34.8,0.2l1.1,42.8h-7.8c0-0.1,0-0.2,0-0.2c-0.1-0.2-0.2-0.4-0.2-0.7c0,0,0-0.1,0-0.2
	c0.3-0.6,1.1-1,1.5-1.6c0.3-0.4,0.5-0.9,0.6-1.3c0.2,0,0.4-0.1,0.6-0.3c0.4-0.3,0.7-0.7,0.7-1.2c0.1-0.1,0.1-0.2,0.3-0.2
	c0.8-0.1,1.3-0.7,1.4-1.5c0.1-0.6-0.1-1.1-0.3-1.5l0,0c0-0.2-0.1-0.4-0.2-0.6c-0.2-0.9-1.1-1.5-2-1.3c-0.3-0.3-0.6-0.6-1.1-0.8
	c-0.7-0.2-1.4,0-1.9,0.5c-1.3-1-3.3-0.4-3.8,1.3c0,0.1-0.1,0.2-0.1,0.2l0,0c-0.6,0.1-1.1,0.6-1.2,1.2v0.1c-0.3,0.8-0.3,1.5,0.2,2.3
	s1.2,1.1,2,1.1c0,0,0,0,0.1,0.1l0.8,0.2c0,0,0,0,0-0.1c0,0,0,0,0.1,0.1c0.2,0.2,0.4,0.4,0.6,0.6l0,0c0.1,0.1,0.2,0.4,0.3,0.7
	c-0.3-0.4-0.6-0.9-0.9-1.3l-0.8-0.2c0.8,1.1,1.6,2.3,2.2,3.4c0,0.2-0.1,0.4-0.2,0.6s-0.1,0.4-0.1,0.5h-6.7V168l-16.4-3.2L402,168
	v14.8l0,0v-4.5l-9.4-2.8V90.1l-4.9-3L352.3,90v92.8h-1.6v-79.4l-4.1-4.8h-36.7v84.2v7.4v13.1h427.9v-20.3v-0.1v-15.6L716.9,163.9z
	 M339.3,102.8l-0.3,2.2h-3.2l-0.5-2.2H339.3z M339.7,123.6h-4l0.3-2.2h3.2L339.7,123.6z M335.6,107.3h3.2l0.5,2.2h-4L335.6,107.3z
	 M338.9,126l-0.3,2.2h-3.2l-0.5-2.2C334.9,126,338.9,126,338.9,126z M339.7,131l-0.3,2.2h-3.2l-0.5-2.2H339.7z M329.4,113.7l0.3-2.2
	h3.2l0.5,2.2H329.4z M333.5,118.7h-4l0.3-2.2h3.2L333.5,118.7z M333.4,107.3l-0.3,2.2h-3.2l-0.5-2.2H333.4z M333,126l-0.3,2.2h-3.2
	l-0.5-2.2C328.9,126,333,126,333,126z M329.2,136.9h3.2l0.5,2.2h-4L329.2,136.9z M329,159.9h2.8l0.4,1.9h-3.5L329,159.9z
	 M328.4,154.3l-0.4-1.9h3.5l-0.3,1.9H328.4z M328.5,123.6h-4l0.3-2.2h3.2L328.5,123.6z M322.8,161.9l0.3-1.9h2.8l0.4,1.9H322.8z
	 M326.4,168.3l-0.3,1.9h-2.8l-0.4-1.9H326.4z M324.4,140.4h3.2l0.5,2.2h-4L324.4,140.4z M323,136.9l0.3-2.2h3.2l0.5,2.2H323z
	 M323.7,102.8h3.2l0.5,2.2h-4L323.7,102.8z M327.5,111.4l-0.3,2.2h-3.2l-0.5-2.2H327.5z M327.5,116.5l-0.3,2.2h-3.2l-0.5-2.2H327.5z
	 M317.9,159.9h2.8l0.4,1.9h-3.5L317.9,159.9z M317,157.6l0.3-1.9h2.8l0.4,1.9H317z M319.1,123.6l-0.5-2.2h4l-0.3,2.2H319.1z
	 M318.1,102.8h3.2l0.5,2.2h-4L318.1,102.8z M321.8,107.3l-0.3,2.2h-3.2l-0.5-2.2H321.8z M312.6,182.2l0.3-1.9h2.8l0.4,1.9H312.6z
	 M317,147.3h2.8l0.4,1.9h-3.5L317,147.3z M316.9,163.9h3.5l-0.3,1.9h-2.8L316.9,163.9z M317.7,182.2l0.3-1.9h2.8l0.4,1.9H317.7z
	 M320.9,178.2h-2.8l-0.4-1.9h3.5L320.9,178.2z M322.1,126h4l-0.3,2.2h-3.2L322.1,126z M326.4,150.4l-0.3,1.9h-2.8l-0.4-1.9H326.4z
	 M326.4,172.7l-0.3,1.9h-2.8l-0.4-1.9H326.4z M322.9,178.2l0.3-1.9h2.8l0.4,1.9H322.9z M330.6,147.3l-0.3,1.9h-2.8l-0.4-1.9H330.6z
	 M327.2,163.9h3.5l-0.3,1.9h-2.8L327.2,163.9z M331.3,182.2h-2.8l-0.4-1.9h3.5L331.3,182.2z M328.1,174.7l0.3-1.9h2.8l0.4,1.9H328.1
	z M328.1,170.2l0.3-1.9h2.8l0.4,1.9H328.1z M332.5,163.9h2.8l0.4,1.9h-3.5L332.5,163.9z M336.3,182.2h-2.8l-0.4-1.9h3.5L336.3,182.2
	z M333.1,178.2l0.3-1.9h2.8l0.4,1.9H333.1z M339.6,142.6h-3.2l-0.5-2.2h4L339.6,142.6z M344.9,105.1h-3.2l-0.5-2.2h4L344.9,105.1z
	 M384.9,118.8l-29.8-0.9l29.8-1.9V118.8z M385,121.8l-29.8,1.9V121L385,121.8z M384.8,92.3V95l-29.8-0.9L384.8,92.3z M384.9,107.6
	v2.7l-29.8-0.9L384.9,107.6z M354.9,96.3l29.8,0.9l-29.8,1.9V96.3z M384.8,99.7v2.7l-29.8-0.9L384.8,99.7z M354.9,104.3l29.8,0.9
	l-29.8,1.9V104.3z M384.8,124.6v2.7l-29.8-0.9L384.8,124.6z M355.1,129.4l29.8,0.9l-29.8,1.9V129.4z M355.2,147.5v-2.7l29.8,0.9
	L355.2,147.5z M385.1,143.5l-29.8-0.9l29.8-1.9V143.5z M355.2,140.2v-2.7l29.8,0.9L355.2,140.2z M385.1,135.4l-29.8-0.9l29.8-1.9
	V135.4z M355.2,115.3v-2.7l29.8,0.9L355.2,115.3z M413.8,176h-4.4v-5.2h4.4V176z M426.5,182.5h-3.8v-6.4h3.8V182.5z M437.3,176h-4.4
	v-5.2h4.4V176z M448.2,178.7c0-0.1,0.1-0.1,0.1-0.1c0.2,0.1,0.5,0.2,0.7,0.2l0,0h0.2c-0.1,0.5-0.4,0.9-0.7,1.2
	c-0.2,0.3-0.5,0.5-0.8,0.7C447.9,180.2,447.9,179.3,448.2,178.7L448.2,178.7z M447.2,180.2c-0.2,0-0.6-0.8-0.7-1.1l0,0
	c0.3,0,0.6,0,0.9-0.1l0,0l0,0l0,0c0.1,0,0,0,0.2,0h0.2v0.1c-0.1,0.2-0.2,0.7-0.4,0.9C447.4,180.1,447.3,180.2,447.2,180.2z
	 M478.4,146.2l-0.4,1.8h-2.5l-0.2-1.8H478.4z M475.1,149.9h2.4l0.1,1.8h-3L475.1,149.9z M474.3,161.4h2.4l0.1,1.8h-3L474.3,161.4z
	 M476.1,165.2l-0.4,1.8h-2.4l-0.2-1.8H476.1z M473.4,149.9l-0.4,1.8h-2.4l-0.1-1.8H473.4z M470.4,153.2h2.4l0.1,1.8h-3L470.4,153.2z
	 M466.7,146.2h2.4l0.2,1.8h-3L466.7,146.2z M468.6,153.2l-0.4,1.8h-2.4l-0.1-1.8H468.6z M465.2,163.2l0.4-1.8h2.4l0.2,1.8H465.2z
	 M466.6,165.2l-0.4,1.8h-2.4l-0.2-1.8H466.6z M468.1,157.4l-0.4,1.8h-2.4l-0.2-1.8H468.1z M462.5,146.2h2.4l0.2,1.8h-3L462.5,146.2z
	 M464.8,149.9l-0.4,1.8H462l-0.1-1.8H464.8z M464.1,161.4l-0.4,1.8h-2.4l-0.1-1.8H464.1z M460.2,169.2h2.4l0.1,1.8h-3L460.2,169.2z
	 M462.5,174.1H460l-0.1-1.8h3L462.5,174.1z M463.2,174.1l0.4-1.8h2.4l0.2,1.8H463.2z M464.1,171l0.4-1.8h2.4l0.2,1.8H464.1z
	 M467.3,176l0.4-1.8h2.4l0.2,1.8H467.3z M471.2,167h-2.4l-0.2-1.8h3L471.2,167z M469.3,159.2l0.4-1.8h2.4l0.1,1.8H469.3z
	 M472.7,174.1l0.4-1.8h2.4l0.1,1.8H472.7z M475.7,171h-2.4l-0.1-1.8h3L475.7,171z M476.8,165.2h2.4l0.2,1.8h-3L476.8,165.2z
	 M480,171h-2.4l-0.2-1.8h3L480,171z M478.1,159.2l0.4-1.8h2.4l0.2,1.8H478.1z M478.6,155l0.4-1.8h2.4l0.2,1.8H478.6z M482.2,148.1
	h-2.4l-0.2-1.8h3L482.2,148.1z M501.3,178h-2.2v-1.6h2.2V178z M509.1,178h-2.2v-1.6h2.2V178z M527.9,176.5h-3v-3.6h3V176.5z
	 M539.3,182.8h-5.2v-5.9h5.2V182.8z M548.3,178.9h-0.6v-41.3h1.2L548.3,178.9z M549.2,179.3V138h0.6L549.2,179.3z M572.4,175.2
	L572.4,175.2c0.2,0,0.4,0,0.5,0.1l0,0h0.1c-0.1,0.3-0.2,0.5-0.4,0.7c-0.1,0.2-0.3,0.3-0.5,0.4C572.1,176.2,572.2,175.6,572.4,175.2
	C572.3,175.3,572.3,175.3,572.4,175.2z M571.7,176.1c-0.1,0-0.3-0.5-0.4-0.6l0,0c0.2,0,0.3,0,0.5,0l0,0l0,0l0,0c0,0,0,0,0.1,0h0.1
	v0.1c-0.1,0.1-0.1,0.4-0.2,0.5C571.8,176.1,571.7,176.1,571.7,176.1z M595,131.3l-0.2,1.4H593l-0.3-1.4H595z M592.6,129.6l-0.3-1.4
	h2.3l-0.2,1.4H592.6z M594.8,126.9h-2.3l0.2-1.4h1.8L594.8,126.9z M594.3,114l-0.2,1.4h-1.8L592,114H594.3z M592.2,116.8h1.8
	l0.3,1.4H592L592.2,116.8z M591.7,154.2H589l0.2-1.6h2.1L591.7,154.2z M588.7,148l-0.3-1.6h2.6l-0.2,1.6H588.7z M588.9,136.4
	l0.2-1.4h1.8l0.3,1.4H588.9z M591.1,129.6h-1.8l-0.3-1.4h2.3L591.1,129.6z M588.7,123.9l0.2-1.4h1.8l0.3,1.4H588.7z M588.7,120.7
	l0.2-1.4h1.8l0.3,1.4H588.7z M591,116.8l-0.2,1.4h-1.8l-0.3-1.4H591z M588.4,138.2h-2.3l0.2-1.4h1.8L588.4,138.2z M584.7,154.2
	l0.2-1.6h2.1l0.3,1.6H584.7z M587.3,159.4l-0.2,1.6H585l-0.3-1.6H587.3z M587.1,146.4H585l-0.3-1.6h2.6L587.1,146.4z M585.6,135
	l0.2-1.4h1.8l0.3,1.4H585.6z M588.2,126.9h-2.3l0.2-1.4h1.8L588.2,126.9z M585.5,114h1.8l0.3,1.4h-2.3L585.5,114z M587.6,119.3
	l-0.2,1.4h-1.8l-0.3-1.4H587.6z M587.6,122.5l-0.2,1.4h-1.8l-0.3-1.4H587.6z M587.4,128.2l-0.2,1.4h-1.8l-0.3-1.4H587.4z
	 M584.7,126.9h-1.8l-0.3-1.4h2.3L584.7,126.9z M581,152.6h2.1l0.3,1.6h-2.6L581,152.6z M580.3,150.7l0.2-1.6h2.1l0.3,1.6H580.3z
	 M582.3,114h1.8l0.3,1.4h-2.3L582.3,114z M584.4,116.8l-0.2,1.4h-1.8l-0.3-1.4H584.4z M580.3,142.3h2.1l0.3,1.6h-2.6L580.3,142.3z
	 M580.3,155.8h2.6l-0.2,1.6h-2.1L580.3,155.8z M580.9,170.7l0.2-1.6h2.1l0.3,1.6H580.9z M583.3,167.5h-2.1l-0.3-1.6h2.6L583.3,167.5
	z M587.3,163l-0.2,1.6H585l-0.3-1.6H587.3z M584.8,167.5l0.2-1.6h2.1l0.3,1.6H584.8z M590.5,142.3l-0.2,1.6h-2.1l-0.3-1.6H590.5z
	 M587.9,155.8h2.6l-0.2,1.6h-2.1L587.9,155.8z M591,170.7h-2.1l-0.3-1.6h2.6L591,170.7z M588.5,164.6l0.2-1.6h2.1l0.3,1.6H588.5z
	 M588.5,161l0.2-1.6h2.1l0.3,1.6H588.5z M591.9,155.8h2.1l0.3,1.6h-2.6L591.9,155.8z M594.7,170.7h-2.1l-0.3-1.6h2.6L594.7,170.7z
	 M592.3,167.5l0.2-1.6h2.1l0.3,1.6H592.3z M595,138.5h-1.8l-0.3-1.4h2.3L595,138.5z M597.4,115.4h-1.8l-0.3-1.4h2.3L597.4,115.4z
	 M682.5,155.8l-0.8,1.7h-8l-1.2-1.7H682.5z M670.3,171.5h-10l0.8-1.7h8L670.3,171.5z M668.1,155.8l-0.8,1.7h-8l-1.2-1.7H668.1z
	 M629.4,155.8h8l1.2,1.7h-10L629.4,155.8z M638.7,162.3l-0.8,1.7h-8l-1.2-1.7H638.7z M638.6,166.2l-0.8,1.7h-8l-1.2-1.7H638.6z
	 M615.3,155.8h8l1.2,1.7h-10L615.3,155.8z M626.7,169.9l-0.8,1.7h-8l-1.2-1.7H626.7z M614.4,159.3h10l-0.8,1.7h-8L614.4,159.3z
	 M616.4,178.8l0.8-1.7h8l1.3,1.7H616.4z M626.7,173.4h10l-0.8,1.7h-8L626.7,173.4z M630.7,178.8l0.8-1.7h8l1.2,1.7H630.7z
	 M631.1,171.5l0.8-1.7h8l1.2,1.7H631.1z M653.2,159.3l-0.8,1.7h-8l-1.2-1.7H653.2z M652.8,175.1h-8l-1.2-1.7h10L652.8,175.1z
	 M643.5,167.9l0.8-1.7h8l1.2,1.7H643.5z M643.5,164l0.8-1.7h8l1.2,1.7H643.5z M658.8,159.3h8l1.2,1.7h-10L658.8,159.3z M658.4,173.4
	h10l-0.8,1.7h-8L658.4,173.4z M669.5,178.8h-8l-1.2-1.7h10L669.5,178.8z M670.3,175.1l0.8-1.7h8l1.2,1.7H670.3z M672.5,167.9
	l0.8-1.7h8l1.2,1.7H672.5z M672.5,164l0.8-1.7h8l1.2,1.7H672.5z M688.7,155.6l2.5,0.6v1.1l-2.5-0.5V155.6z M691.3,162.7v-1.2
	l2.5,0.6v1.1L691.3,162.7z M693.5,167.1v1.1l-2.5-0.5v-1.3L693.5,167.1z M693,160.1l-2.5-0.5v-1.3l2.5,0.6V160.1z M688.7,163.6
	l2.5,0.6v1.1l-2.5-0.5V163.6z M688.4,168.6l2.5,0.6v1.1l-2.5-0.5V168.6z M692.3,172.1v1.1l-2.5-0.5v-1.3L692.3,172.1z M687.9,173.9
	l2.5,0.6v1.1l-2.5-0.5V173.9z M692.3,176.8v1.1l-2.5-0.5v-1.3L692.3,176.8z M690.2,180.7l-2.5-0.5v-1.3l2.5,0.6V180.7z M693.9,180.7
	l-2.5-0.5v-1.3l2.5,0.6V180.7z M694.3,176l-2.5-0.5v-1.3l2.5,0.6V176z M694.3,171.1l-2.5-0.5v-1.3l2.5,0.6V171.1z M694.8,158.2
	l-2.5-0.5v-1.2l2.5,0.6V158.2z M707.7,175.2h-4.1V170h4.1V175.2z M717.7,181.6h-3.7v-6.4h3.7V181.6z M730.4,175.2h-4.1V170h4.1
	V175.2z"/>
<path class="st0" d="M1280.2,177.7l-10.2,2.1v10.1h-3.6v-18l-5.5-2h-50.1v20h-4.7v-43.5l-2.3-3.1h-14.4V186l-3.2,0.5v-0.1
	c0-0.1-0.1-0.2-0.1-0.3c0,0,0,0,0-0.1c0.1-0.2,0.4-0.4,0.6-0.6c0.1-0.1,0.2-0.3,0.2-0.5c0.1,0,0.2,0,0.2-0.1
	c0.2-0.1,0.2-0.3,0.3-0.4c0,0,0-0.1,0.1-0.1c0.3,0,0.5-0.2,0.5-0.6c0-0.2,0-0.4-0.1-0.6l0,0c0-0.1,0-0.2-0.1-0.2
	c-0.1-0.4-0.4-0.6-0.8-0.5c-0.1-0.1-0.2-0.2-0.4-0.3c-0.3-0.1-0.5,0-0.7,0.2c-0.5-0.4-1.2-0.2-1.4,0.5v0.1l0,0
	c-0.2,0.1-0.4,0.2-0.4,0.4l0,0c-0.1,0.3-0.1,0.6,0.1,0.8c0.2,0.3,0.4,0.4,0.8,0.4l0,0c0.3,0.4,0.6,0.8,0.8,1.3c0,0.1,0,0.1-0.1,0.2
	c0,0.1,0,0.2,0,0.3l-2.5,0.4v-28.3H1169v30.5l-2.8-0.8v-5.5l-6.5-3.8l-6.5,3.8l0.4,7.4h-1.6v-5.5l-10.1-3.9l-6.7,3.9v5.5h-4.7
	l2-27.8l-22.6,0.1l0.7,27.7h-5.1c0,0,0-0.1,0-0.2c0-0.1-0.1-0.3-0.1-0.4c0,0,0,0,0-0.1c0.2-0.4,0.7-0.7,1-1c0.2-0.2,0.3-0.6,0.4-0.8
	c0.1,0,0.3-0.1,0.4-0.2c0.3-0.2,0.4-0.5,0.5-0.8c0-0.1,0.1-0.1,0.2-0.1c0.5-0.1,0.9-0.4,0.9-1c0-0.4-0.1-0.7-0.2-1l0,0
	c0-0.1-0.1-0.3-0.1-0.4c-0.2-0.6-0.7-1-1.3-0.9c-0.2-0.2-0.4-0.4-0.7-0.5c-0.4-0.2-0.9,0-1.2,0.3c-0.9-0.6-2.1-0.3-2.5,0.8
	c0,0.1,0,0.1-0.1,0.2l0,0c-0.4,0.1-0.7,0.4-0.8,0.8c0,0,0,0,0,0.1c-0.2,0.5-0.2,1,0.1,1.5c0.3,0.5,0.8,0.7,1.3,0.7l0,0l0.5,0.1l0,0
	l0,0c0.1,0.1,0.2,0.2,0.4,0.4l0,0c0.1,0.1,0.1,0.3,0.2,0.4c-0.2-0.3-0.4-0.6-0.6-0.8l-0.5-0.1c0.5,0.7,1,1.5,1.4,2.2
	c0,0.1-0.1,0.3-0.1,0.4s-0.1,0.2,0,0.3h-4.4v-9.6l-10.6-2.1l-14,2.1v9.6l0,0v-2.9l-6.1-1.8v-55.4l-3.1-2l-23,1.9v60.3h-1v-51.5
	l-2.6-3h-23.9v44.4l-12.5-2l-10.2,2.1v10.1h-3.6v-18l-5.5-2h-50.1v20h-4.7v-43.5l-2.3-3.1h-14.4V186l-3.2,0.5v-0.1
	c0-0.1-0.1-0.2-0.1-0.3c0,0,0,0,0-0.1c0.1-0.2,0.4-0.4,0.6-0.6c0.1-0.1,0.2-0.3,0.2-0.5c0.1,0,0.2,0,0.2-0.1
	c0.2-0.1,0.2-0.3,0.3-0.4c0,0,0-0.1,0.1-0.1c0.3,0,0.5-0.2,0.5-0.6c0-0.2,0-0.4-0.1-0.6l0,0c0-0.1,0-0.2-0.1-0.2
	c-0.1-0.4-0.4-0.6-0.8-0.5c-0.1-0.1-0.2-0.2-0.4-0.3c-0.3-0.1-0.5,0-0.7,0.2c-0.5-0.4-1.2-0.2-1.4,0.5v0.1l0,0
	c-0.2,0.1-0.4,0.2-0.4,0.4l0,0c-0.1,0.3-0.1,0.6,0.1,0.8c0.2,0.3,0.4,0.4,0.8,0.4l0,0c0.3,0.4,0.6,0.8,0.8,1.3c0,0.1,0,0.1-0.1,0.2
	c0,0.1,0,0.2,0,0.3l-2.5,0.4v-28.3h-14.2v30.5l-2.8-0.8v-5.5l-6.5-3.8l-6.5,3.8l0.4,7.4h-1.6v-5.5l-10.1-3.9l-6.7,3.9v5.5H854
	l2-27.8l-22.6,0.1l0.7,27.7h-5.1c0,0,0-0.1,0-0.2c0-0.1-0.1-0.3-0.1-0.4c0,0,0,0,0-0.1c0.2-0.4,0.7-0.7,1-1c0.2-0.2,0.3-0.6,0.4-0.8
	c0.1,0,0.3-0.1,0.4-0.2c0.3-0.2,0.4-0.5,0.5-0.8c0-0.1,0.1-0.1,0.2-0.1c0.5-0.1,0.9-0.4,0.9-1c0-0.4-0.1-0.7-0.2-1l0,0
	c0-0.1-0.1-0.3-0.1-0.4c-0.2-0.6-0.7-1-1.3-0.9c-0.2-0.2-0.4-0.4-0.7-0.5c-0.4-0.2-0.9,0-1.2,0.3c-0.9-0.6-2.1-0.3-2.5,0.8
	c0,0.1,0,0.1-0.1,0.2l0,0c-0.4,0.1-0.7,0.4-0.8,0.8c0,0,0,0,0,0.1c-0.2,0.5-0.2,1,0.1,1.5c0.3,0.5,0.8,0.7,1.3,0.7l0,0l0.5,0.1l0,0
	l0,0c0.1,0.1,0.2,0.2,0.4,0.4l0,0c0.1,0.1,0.1,0.3,0.2,0.4c-0.2-0.3-0.4-0.6-0.6-0.8l-0.5-0.1c0.5,0.7,1,1.5,1.4,2.2
	c0,0.1-0.1,0.3-0.1,0.4s-0.1,0.2,0,0.3h-4.4v-9.6l-10.6-2.1l-14,2.1v9.6l0,0v-2.9l-6.1-1.8v-55.4l-3.1-2l-23,1.9v60.3h-1v-51.5
	l-2.6-3h-23.9v54.6v4.8v8.4h276.7h0.9h276.7v-13.2l0,0v-10.1L1280.2,177.7z M758.5,138l-0.2,1.4h-2.1l-0.3-1.4H758.5z M758.7,151.6
	h-2.6l0.2-1.4h2.1L758.7,151.6z M756,141h2.1l0.3,1.4h-2.6L756,141z M758.2,153.1l-0.2,1.4h-2.1l-0.3-1.4H758.2z M758.7,156.3
	l-0.2,1.4h-2.1l-0.3-1.4H758.7z M752.1,145l0.2-1.4h2.1l0.3,1.4H752.1z M754.7,148.4h-2.6l0.2-1.4h2.1L754.7,148.4z M754.6,141
	l-0.2,1.4h-2.1L752,141H754.6z M754.3,153.1l-0.2,1.4H752l-0.3-1.4H754.3z M751.9,160.2h2.1l0.3,1.4h-2.6L751.9,160.2z M751.8,175.1
	h1.8l0.3,1.3h-2.3L751.8,175.1z M751.3,171.4l-0.3-1.3h2.3l-0.2,1.3H751.3z M751.5,151.6h-2.6l0.2-1.4h2.1L751.5,151.6z
	 M747.7,176.4l0.2-1.3h1.8l0.3,1.3H747.7z M750,180.5l-0.2,1.3H748l-0.3-1.3H750z M748.7,162.4h2.1l0.3,1.4h-2.6L748.7,162.4z
	 M747.9,160.2l0.2-1.4h2.1l0.3,1.4H747.9z M748.3,138h2.1l0.3,1.4h-2.6L748.3,138z M750.7,143.6l-0.2,1.4h-2.1l-0.3-1.4H750.7z
	 M750.7,146.9l-0.2,1.4h-2.1l-0.3-1.4H750.7z M744.5,175.1h1.8l0.3,1.3h-2.3L744.5,175.1z M744,173.6l0.2-1.3h1.8l0.3,1.3H744z
	 M745.4,151.6l-0.3-1.4h2.6l-0.2,1.4H745.4z M744.7,138h2.1l0.3,1.4h-2.6L744.7,138z M747.1,141l-0.2,1.4h-2.1l-0.3-1.4H747.1z
	 M741.1,189.5l0.2-1.3h1.8l0.3,1.3H741.1z M744,167h1.8l0.3,1.3h-2.3L744,167z M744,177.7h2.3l-0.2,1.3h-1.8L744,177.7z
	 M744.4,189.5l0.2-1.3h1.8l0.3,1.3H744.4z M746.5,187h-1.8l-0.3-1.3h2.3L746.5,187z M747.3,153.1h2.6l-0.2,1.4h-2.1L747.3,153.1z
	 M750,168.9l-0.2,1.3H748l-0.3-1.3H750z M750,183.4l-0.2,1.3H748l-0.3-1.3H750z M747.8,187l0.2-1.3h1.8l0.3,1.3H747.8z M752.8,167
	l-0.2,1.3h-1.8l-0.3-1.3H752.8z M750.5,177.7h2.3l-0.2,1.3h-1.8L750.5,177.7z M753.3,189.5h-1.8l-0.3-1.3h2.3L753.3,189.5z
	 M751.1,184.7l0.2-1.3h1.8l0.3,1.3H751.1z M751.1,181.7l0.2-1.3h1.8l0.3,1.3H751.1z M754.1,177.7h1.8l0.3,1.3h-2.3L754.1,177.7z
	 M756.5,189.5h-1.8l-0.3-1.3h2.3L756.5,189.5z M754.4,187l0.2-1.3h1.8l0.3,1.3H754.4z M758.6,163.9h-2.1l-0.3-1.4h2.6L758.6,163.9z
	 M762.1,139.6H760l-0.3-1.4h2.6L762.1,139.6z M788,148.5l-19.4-0.6l19.4-1.2V148.5z M788.1,150.4l-19.4,1.2v-1.8L788.1,150.4z
	 M788,131.3v1.8l-19.4-0.6L788,131.3z M788,141.2v1.8l-19.4-0.6L788,141.2z M768.6,133.9l19.4,0.6l-19.4,1.2V133.9z M788,136v1.8
	l-19.4-0.6L788,136z M768.6,139l19.4,0.6l-19.4,1.2V139z M788,152.2v1.8l-19.4-0.6L788,152.2z M768.7,155.3l19.4,0.6l-19.4,1.2
	V155.3z M768.8,167.1v-1.8l19.4,0.6L768.8,167.1z M788.1,164.4l-19.4-0.6l19.4-1.2V164.4z M768.8,162.2v-1.7l19.4,0.6L768.8,162.2z
	 M788.1,159.2l-19.4-0.6l19.4-1.1V159.2z M768.8,146.1v-1.8l19.4,0.6L768.8,146.1z M806.8,185.6H804v-3.3h2.8V185.6z M815.1,189.7
	h-2.5v-4.1h2.5V189.7z M822.1,185.6h-2.8v-3.3h2.8V185.6z M829.2,187.3C829.2,187.2,829.2,187.2,829.2,187.3c0.2,0,0.4,0,0.5,0.1
	l0,0h0.1c-0.1,0.3-0.2,0.6-0.5,0.8c-0.2,0.2-0.3,0.3-0.5,0.5C828.9,188.3,829,187.7,829.2,187.3L829.2,187.3z M828.5,188.3
	c-0.1,0-0.4-0.5-0.5-0.7l0,0c0.2,0,0.4,0,0.6,0l0,0l0,0l0,0c0.1,0,0,0,0.1,0h0.1v0.1c-0.1,0.1-0.1,0.4-0.2,0.6
	C828.6,188.2,828.6,188.3,828.5,188.3z M848.7,166.2l-0.3,1.2h-1.6l-0.1-1.2H848.7z M846.6,168.6h1.5l0.1,1.2h-1.9L846.6,168.6z
	 M846.1,176.1h1.5l0.1,1.2h-1.9L846.1,176.1z M847.2,178.5l-0.3,1.2h-1.5l-0.1-1.2H847.2z M845.5,168.6l-0.3,1.2h-1.5l-0.1-1.2
	H845.5z M843.4,170.7h1.5l0.1,1.2h-1.9L843.4,170.7z M841.1,166.2h1.5l0.1,1.2h-1.9L841.1,166.2z M842.4,170.7l-0.3,1.2h-1.5
	l-0.1-1.2H842.4z M840.1,177.3l0.3-1.2h1.5l0.1,1.2H840.1z M841.1,178.5l-0.3,1.2h-1.5l-0.1-1.2H841.1z M842,173.5l-0.3,1.2h-1.5
	l-0.1-1.2H842z M838.4,166.2h1.5l0.1,1.2h-1.9L838.4,166.2z M839.9,168.6l-0.3,1.2h-1.5l-0.1-1.2H839.9z M839.4,176.1l-0.3,1.2h-1.5
	l-0.1-1.2H839.4z M837,181.1h1.5l0.1,1.2h-1.9L837,181.1z M838.4,184.3h-1.5l-0.1-1.2h1.9L838.4,184.3z M838.9,184.3l0.3-1.2h1.5
	l0.1,1.2H838.9z M839.5,182.4l0.3-1.2h1.5l0.1,1.2H839.5z M841.5,185.5l0.3-1.2h1.5l0.1,1.2H841.5z M844,179.7h-1.5l-0.1-1.2h1.9
	L844,179.7z M842.8,174.7l0.3-1.2h1.5l0.1,1.2H842.8z M844.9,184.3l0.3-1.2h1.5l0.1,1.2H844.9z M847,182.4h-1.5l-0.1-1.2h1.9
	L847,182.4z M847.7,178.5h1.5l0.1,1.2h-1.9L847.7,178.5z M849.7,182.4h-1.5l-0.1-1.2h1.9L849.7,182.4z M848.5,174.7l0.3-1.2h1.5
	l0.1,1.2H848.5z M848.8,171.9l0.3-1.2h1.5l0.1,1.2H848.8z M851.1,167.4h-1.5l-0.1-1.2h1.9L851.1,167.4z M863.6,186.9h-1.4v-1h1.4
	V186.9z M868.6,186.9h-1.4v-1h1.4V186.9z M880.9,185.9h-2v-2.4h2V185.9z M888.3,189.9h-3.3v-3.8h3.3V189.9z M894,187.4h-0.4v-26.7
	h0.8L894,187.4z M894.6,187.7V161h0.4L894.6,187.7z M909.6,185.1C909.6,185,909.7,185,909.6,185.1c0.1,0,0.2,0,0.3,0l0,0h0.1
	c0,0.2-0.1,0.3-0.3,0.5c-0.1,0.1-0.2,0.2-0.3,0.3C909.5,185.6,909.5,185.3,909.6,185.1L909.6,185.1z M908.5,185
	C908.5,184.9,908.5,184.9,908.5,185C908.5,184.9,908.5,184.9,908.5,185c0.1,0.1,0.2,0.1,0.2,0.2l0,0c0,0,0.1,0.2,0.1,0.3
	C908.7,185.3,908.6,185.1,908.5,185z M909.3,185.6c-0.1,0-0.2-0.3-0.3-0.4l0,0c0.1,0,0.2,0,0.3,0l0,0l0,0l0,0c0,0,0,0,0.1,0h0.1l0,0
	C909.4,185.3,909.4,185.5,909.3,185.6L909.3,185.6z M924.4,156.6l-0.1,0.9h-1.2l-0.2-0.9H924.4z M922.9,155.4l-0.2-0.9h1.5l-0.1,0.9
	H922.9z M924.3,153.7h-1.5l0.1-0.9h1.2L924.3,153.7z M924,145.3l-0.1,0.9h-1.2l-0.2-0.9H924z M922.6,147.1h1.2l0.2,0.9h-1.5
	L922.6,147.1z M922.2,171.4h-1.7l0.1-1h1.3L922.2,171.4z M920.3,167.4l-0.2-1h1.7l-0.1,1H920.3z M920.4,159.9l0.1-0.9h1.2l0.2,0.9
	H920.4z M921.8,155.4h-1.2l-0.2-0.9h1.5L921.8,155.4z M920.3,151.7l0.1-0.9h1.2l0.2,0.9H920.3z M920.3,149.7l0.1-0.9h1.2l0.2,0.9
	H920.3z M921.7,147.1l-0.1,0.9h-1.2l-0.2-0.9H921.7z M920.1,161h-1.5l0.1-0.9h1.2L920.1,161z M917.7,171.4l0.1-1h1.3l0.2,1H917.7z
	 M919.4,174.8l-0.1,1H918l-0.2-1H919.4z M919.2,166.4h-1.3l-0.2-1h1.7L919.2,166.4z M918.3,159l0.1-0.9h1.2l0.2,0.9H918.3z
	 M919.9,153.7h-1.5l0.1-0.9h1.2L919.9,153.7z M918.2,145.3h1.2l0.2,0.9h-1.5L918.2,145.3z M919.6,148.8l-0.1,0.9h-1.2l-0.2-0.9
	H919.6z M919.5,150.8l-0.1,0.9h-1.2l-0.2-0.9H919.5z M919.4,154.5l-0.1,0.9h-1.2l-0.2-0.9H919.4z M917.7,153.7h-1.2l-0.2-0.9h1.5
	L917.7,153.7z M915.3,170.3h1.3l0.2,1h-1.7L915.3,170.3z M914.9,169.1l0.1-1h1.3l0.2,1H914.9z M916.1,145.3h1.2l0.2,0.9H916
	L916.1,145.3z M917.5,147.1l-0.1,0.9h-1.2l-0.2-0.9H917.5z M914.9,163.6h1.3l0.2,1h-1.7L914.9,163.6z M914.9,172.5h1.7l-0.1,1h-1.3
	L914.9,172.5z M915.2,182.2l0.1-1h1.3l0.2,1H915.2z M916.8,180h-1.3l-0.2-1h1.7L916.8,180z M919.4,177.1l-0.1,1H918l-0.2-1H919.4z
	 M917.7,180l0.1-1h1.3l0.2,1H917.7z M921.4,163.6l-0.1,1H920l-0.2-1H921.4z M919.7,172.5h1.7l-0.1,1H920L919.7,172.5z M921.7,182.2
	h-1.3l-0.2-1h1.7L921.7,182.2z M920.2,178.2l0.1-1h1.3l0.2,1H920.2z M920.2,175.8l0.1-1h1.3l0.2,1H920.2z M922.4,172.5h1.3l0.2,1
	h-1.7L922.4,172.5z M924.2,182.2h-1.3l-0.2-1h1.7L924.2,182.2z M922.6,180l0.1-1h1.3l0.2,1H922.6z M924.4,161.2h-1.2l-0.2-0.9h1.5
	L924.4,161.2z M926,146.2h-1.2l-0.2-0.9h1.5L926,146.2z M981.1,172.5l-0.5,1.1h-5.3l-0.8-1.1H981.1z M973.2,182.7h-6.6l0.5-1.1h5.3
	L973.2,182.7z M971.8,172.5l-0.5,1.1h-5.3l-0.8-1.1H971.8z M946.6,172.5h5.3l0.8,1.1h-6.6L946.6,172.5z M952.7,176.7l-0.5,1.1h-5.3
	l-0.8-1.1H952.7z M952.6,179.2l-0.5,1.1h-5.2l-0.8-1.1H952.6z M937.5,172.5h5.3l0.8,1.1H937L937.5,172.5z M944.9,181.5l-0.5,1.1
	h-5.3l-0.8-1.1H944.9z M937,174.7h6.6l-0.5,1.1h-5.3L937,174.7z M938.2,187.3l0.5-1.1h5.3l0.8,1.1H938.2z M944.9,183.9h6.6L951,185
	h-5.3L944.9,183.9z M947.5,187.3l0.5-1.1h5.3l0.8,1.1H947.5z M947.8,182.7l0.5-1.1h5.3l0.8,1.1H947.8z M962.1,174.7l-0.5,1.1h-5.3
	l-0.8-1.1H962.1z M961.8,185h-5.3l-0.8-1.1h6.6L961.8,185z M955.8,180.3l0.5-1.1h5.3l0.8,1.1H955.8z M955.8,177.8l0.5-1.1h5.3
	l0.8,1.1H955.8z M965.8,174.7h5.3l0.8,1.1h-6.6L965.8,174.7z M965.5,183.9h6.6l-0.5,1.1h-5.3L965.5,183.9z M972.7,187.3h-5.3
	l-0.8-1.1h6.6L972.7,187.3z M973.2,185l0.5-1.1h5.3l0.8,1.1H973.2z M974.7,180.3l0.5-1.1h5.3l0.8,1.1H974.7z M974.7,177.8l0.5-1.1
	h5.3l0.8,1.1H974.7z M985.2,172.3l1.6,0.4v0.7l-1.6-0.3V172.3z M986.9,177v-0.8l1.6,0.4v0.7L986.9,177z M988.3,179.7v0.7l-1.6-0.3
	v-0.8L988.3,179.7z M987.9,175.3l-1.6-0.3v-0.8l1.6,0.4V175.3z M985.2,177.5l1.6,0.4v0.7l-1.6-0.3V177.5z M985,180.7l1.6,0.4v0.7
	l-1.6-0.3V180.7z M987.4,183.1v0.7l-1.6-0.3v-0.8L987.4,183.1z M984.7,184.2l1.6,0.4v0.7l-1.6-0.3V184.2z M987.4,186.1v0.7l-1.6-0.3
	v-0.8L987.4,186.1z M986.1,188.6l-1.6-0.3v-0.8l1.6,0.4V188.6z M988.5,188.6l-1.6-0.3v-0.8l1.6,0.4V188.6z M988.7,185.5l-1.6-0.3
	v-0.8l1.6,0.4V185.5z M988.7,182.5l-1.6-0.3v-0.8l1.6,0.4V182.5z M989.1,174l-1.7-0.3v-0.8l1.6,0.4v0.7H989.1z M997.5,185h-2.7v-3.3
	h2.7V185z M1003.9,189.2h-2.4v-4.1h2.4V189.2z M1012.3,185h-2.7v-3.3h2.7V185z M1035.3,138l-0.2,1.4h-2.1l-0.3-1.4H1035.3z
	 M1035.5,151.6h-2.6l0.2-1.4h2.1L1035.5,151.6z M1032.8,141h2.1l0.3,1.4h-2.6L1032.8,141z M1035,153.1l-0.2,1.4h-2.1l-0.3-1.4H1035z
	 M1035.5,156.3l-0.2,1.4h-2.1l-0.3-1.4H1035.5z M1028.8,145l0.2-1.4h2.1l0.3,1.4H1028.8z M1031.4,148.4h-2.6l0.2-1.4h2.1
	L1031.4,148.4z M1031.3,141l-0.2,1.4h-2.1l-0.3-1.4H1031.3z M1031.1,153.1l-0.2,1.4h-2.1l-0.3-1.4H1031.1z M1028.7,160.2h2.1
	l0.3,1.4h-2.6L1028.7,160.2z M1028.5,175.1h1.8l0.3,1.3h-2.3L1028.5,175.1z M1028.1,171.4l-0.3-1.3h2.3l-0.2,1.3H1028.1z
	 M1028.2,151.6h-2.6l0.2-1.4h2.1L1028.2,151.6z M1024.5,176.4l0.2-1.3h1.8l0.3,1.3H1024.5z M1026.8,180.5l-0.2,1.3h-1.8l-0.3-1.3
	H1026.8z M1025.5,162.4h2.1l0.3,1.4h-2.6L1025.5,162.4z M1024.6,160.2l0.2-1.4h2.1l0.3,1.4H1024.6z M1025.2,138h2.1l0.3,1.4h-2.6
	L1025.2,138z M1027.6,143.6l-0.2,1.4h-2.1l-0.3-1.4H1027.6z M1027.5,146.9l-0.2,1.4h-2.1l-0.3-1.4H1027.5z M1021.3,175.1h1.8
	l0.3,1.3h-2.3L1021.3,175.1z M1020.7,173.6l0.2-1.3h1.8l0.3,1.3H1020.7z M1022.1,151.6l-0.3-1.4h2.6l-0.2,1.4H1022.1z M1021.4,138
	h2.1l0.3,1.4h-2.6L1021.4,138z M1023.8,141l-0.2,1.4h-2.1l-0.3-1.4H1023.8z M1017.9,189.5l0.2-1.3h1.8l0.3,1.3H1017.9z M1020.7,167
	h1.8l0.3,1.3h-2.3L1020.7,167z M1020.7,177.7h2.3l-0.2,1.3h-1.8L1020.7,177.7z M1021.2,189.5l0.2-1.3h1.8l0.3,1.3H1021.2z
	 M1023.3,187h-1.8l-0.3-1.3h2.3L1023.3,187z M1024,153.1h2.6l-0.2,1.4h-2.1L1024,153.1z M1026.8,168.9l-0.2,1.3h-1.8l-0.3-1.3
	H1026.8z M1026.8,183.4l-0.2,1.3h-1.8l-0.3-1.3H1026.8z M1024.5,187l0.2-1.3h1.8l0.3,1.3H1024.5z M1029.6,167l-0.2,1.3h-1.8
	l-0.3-1.3H1029.6z M1027.3,177.7h2.3l-0.2,1.3h-1.8L1027.3,177.7z M1030,189.5h-1.8l-0.3-1.3h2.3L1030,189.5z M1027.9,184.7l0.2-1.3
	h1.8l0.3,1.3H1027.9z M1027.9,181.7l0.2-1.3h1.8l0.3,1.3H1027.9z M1030.8,177.7h1.8l0.3,1.3h-2.3L1030.8,177.7z M1033.2,189.5h-1.8
	l-0.3-1.3h2.3L1033.2,189.5z M1031.1,187l0.2-1.3h1.8l0.3,1.3H1031.1z M1035.4,163.9h-2.1l-0.3-1.4h2.6L1035.4,163.9z M1038.8,139.6
	h-2.1l-0.3-1.4h2.6L1038.8,139.6z M1064.7,148.5l-19.4-0.6l19.4-1.2V148.5z M1064.8,150.4l-19.4,1.2v-1.8L1064.8,150.4z
	 M1064.7,131.3v1.8l-19.4-0.6L1064.7,131.3z M1064.7,141.2v1.8l-19.4-0.6L1064.7,141.2z M1045.3,133.9l19.4,0.6l-19.4,1.2V133.9z
	 M1064.7,136v1.8l-19.4-0.6L1064.7,136z M1045.3,139l19.4,0.6l-19.4,1.2V139z M1064.7,152.2v1.8l-19.4-0.6L1064.7,152.2z
	 M1045.5,155.3l19.4,0.6l-19.4,1.2V155.3z M1045.5,167.1v-1.8l19.4,0.6L1045.5,167.1z M1064.9,164.4l-19.4-0.6l19.4-1.2V164.4z
	 M1045.5,162.2v-1.7l19.4,0.6L1045.5,162.2z M1064.9,159.2l-19.4-0.6l19.4-1.2V159.2z M1045.5,146.1v-1.8l19.4,0.6L1045.5,146.1z
	 M1083.5,185.6h-2.8v-3.3h2.8V185.6z M1091.8,189.7h-2.5v-4.1h2.5V189.7z M1098.8,185.6h-2.8v-3.3h2.8V185.6z M1105.9,187.3
	C1105.9,187.2,1105.9,187.2,1105.9,187.3c0.2,0,0.4,0,0.5,0.1l0,0h0.1c-0.1,0.3-0.2,0.6-0.5,0.8c-0.2,0.2-0.3,0.3-0.5,0.5
	C1105.6,188.3,1105.7,187.7,1105.9,187.3L1105.9,187.3z M1105.2,188.3c-0.1,0-0.4-0.5-0.5-0.7l0,0c0.2,0,0.4,0,0.6,0l0,0l0,0l0,0
	c0.1,0,0,0,0.1,0h0.1v0.1c-0.1,0.1-0.1,0.4-0.2,0.6C1105.3,188.2,1105.3,188.3,1105.2,188.3z M1125.4,166.2l-0.3,1.2h-1.5l-0.1-1.2
	H1125.4z M1123.3,168.6h1.5l0.1,1.2h-1.9L1123.3,168.6z M1122.8,176.1h1.5l0.1,1.2h-1.9L1122.8,176.1z M1124,178.5l-0.3,1.2h-1.5
	l-0.1-1.2H1124z M1122.2,168.6l-0.3,1.2h-1.5l-0.1-1.2H1122.2z M1120.3,170.7h1.5l0.1,1.2h-1.9L1120.3,170.7z M1117.9,166.2h1.5
	l0.1,1.2h-1.9L1117.9,166.2z M1119.2,170.7l-0.3,1.2h-1.5l-0.1-1.2H1119.2z M1116.9,177.3l0.3-1.2h1.5l0.1,1.2H1116.9z
	 M1117.8,178.5l-0.3,1.2h-1.5l-0.1-1.2H1117.8z M1118.7,173.5l-0.3,1.2h-1.5l-0.1-1.2H1118.7z M1115.1,166.2h1.5l0.1,1.2h-1.9
	L1115.1,166.2z M1116.6,168.6l-0.3,1.2h-1.5l-0.1-1.2H1116.6z M1116.2,176.1l-0.3,1.2h-1.5l-0.1-1.2H1116.2z M1113.7,181.1h1.5
	l0.1,1.2h-1.9L1113.7,181.1z M1115.1,184.3h-1.5l-0.1-1.2h1.9L1115.1,184.3z M1115.6,184.3l0.3-1.2h1.5l0.1,1.2H1115.6z
	 M1116.2,182.4l0.3-1.2h1.5l0.1,1.2H1116.2z M1118.2,185.5l0.3-1.2h1.5l0.1,1.2H1118.2z M1120.8,179.7h-1.5l-0.1-1.2h1.9
	L1120.8,179.7z M1119.6,174.7l0.3-1.2h1.5l0.1,1.2H1119.6z M1121.8,184.3l0.3-1.2h1.5l0.1,1.2H1121.8z M1123.7,182.4h-1.5l-0.1-1.2
	h1.9L1123.7,182.4z M1124.5,178.5h1.5l0.1,1.2h-1.9L1124.5,178.5z M1126.4,182.4h-1.5l-0.1-1.2h1.9L1126.4,182.4z M1125.2,174.7
	l0.3-1.2h1.5l0.1,1.2H1125.2z M1125.5,171.9l0.3-1.2h1.5l0.1,1.2H1125.5z M1128,167.4h-1.5l-0.1-1.2h1.9L1128,167.4z M1140.4,186.9
	h-1.4v-1h1.4V186.9z M1145.5,186.9h-1.4v-1h1.4V186.9z M1157.6,185.9h-2v-2.4h2V185.9z M1165,189.9h-3.3v-3.8h3.3V189.9z
	 M1170.9,187.4h-0.4v-26.7h0.8L1170.9,187.4z M1171.4,187.7V161h0.4L1171.4,187.7z M1186.4,185.1
	C1186.4,185,1186.4,185,1186.4,185.1c0.1,0,0.2,0,0.3,0l0,0h0.1c-0.1,0.2-0.1,0.3-0.3,0.5c-0.1,0.1-0.2,0.2-0.3,0.3
	C1186.2,185.6,1186.2,185.3,1186.4,185.1C1186.3,185.1,1186.4,185.1,1186.4,185.1z M1185.2,185
	C1185.2,184.9,1185.2,184.9,1185.2,185C1185.2,184.9,1185.2,184.9,1185.2,185c0.1,0.1,0.2,0.1,0.2,0.2l0,0c0,0,0.1,0.2,0.1,0.3
	C1185.5,185.3,1185.4,185.1,1185.2,185z M1186,185.6c-0.1,0-0.2-0.3-0.3-0.4l0,0c0.1,0,0.2,0,0.3,0l0,0l0,0l0,0c0,0,0,0,0.1,0h0.1
	l0,0C1186.2,185.3,1186.1,185.5,1186,185.6L1186,185.6z M1201.1,156.6l-0.1,0.9h-1.2l-0.2-0.9H1201.1z M1199.6,155.4l-0.2-0.9h1.5
	l-0.1,0.9H1199.6z M1201,153.7h-1.5l0.1-0.9h1.2L1201,153.7z M1200.7,145.3l-0.1,0.9h-1.2l-0.2-0.9H1200.7z M1199.3,147.1h1.2
	l0.2,0.9h-1.5L1199.3,147.1z M1199,171.4h-1.7l0.1-1h1.3L1199,171.4z M1197.1,167.4l-0.2-1h1.7l-0.1,1H1197.1z M1197.2,159.9
	l0.1-0.9h1.2l0.2,0.9H1197.2z M1198.6,155.4h-1.2l-0.2-0.9h1.5L1198.6,155.4z M1197.1,151.7l0.1-0.9h1.2l0.2,0.9H1197.1z
	 M1197.1,149.7l0.1-0.9h1.2l0.2,0.9H1197.1z M1198.5,147.1l-0.1,0.9h-1.2l-0.2-0.9H1198.5z M1196.9,161h-1.5l0.1-0.9h1.2L1196.9,161
	z M1194.4,171.4l0.1-1h1.3l0.2,1H1194.4z M1196.2,174.8l-0.1,1h-1.3l-0.2-1H1196.2z M1196,166.4h-1.3l-0.2-1h1.7L1196,166.4z
	 M1195,159l0.1-0.9h1.2l0.2,0.9H1195z M1196.7,153.7h-1.5l0.1-0.9h1.2L1196.7,153.7z M1194.9,145.3h1.2l0.2,0.9h-1.5L1194.9,145.3z
	 M1196.4,148.8l-0.1,0.9h-1.2l-0.2-0.9H1196.4z M1196.4,150.8l-0.1,0.9h-1.2l-0.2-0.9H1196.4z M1196.2,154.5l-0.1,0.9h-1.2l-0.2-0.9
	H1196.2z M1194.4,153.7h-1.2l-0.2-0.9h1.5L1194.4,153.7z M1192,170.3h1.3l0.2,1h-1.7L1192,170.3z M1191.6,169.1l0.1-1h1.3l0.2,1
	H1191.6z M1192.8,145.3h1.2l0.2,0.9h-1.5L1192.8,145.3z M1194.2,147.1l-0.1,0.9h-1.2l-0.2-0.9H1194.2z M1191.6,163.6h1.3l0.2,1h-1.7
	L1191.6,163.6z M1191.6,172.5h1.7l-0.1,1h-1.3L1191.6,172.5z M1192,182.2l0.1-1h1.3l0.2,1H1192z M1193.5,180h-1.3l-0.2-1h1.7
	L1193.5,180z M1196.2,177.1l-0.1,1h-1.3l-0.2-1H1196.2z M1194.4,180l0.1-1h1.3l0.2,1H1194.4z M1198.2,163.6l-0.1,1h-1.3l-0.2-1
	H1198.2z M1196.6,172.5h1.7l-0.1,1h-1.3L1196.6,172.5z M1198.5,182.2h-1.3l-0.2-1h1.7L1198.5,182.2z M1197,178.2l0.1-1h1.3l0.2,1
	H1197z M1197,175.8l0.1-1h1.3l0.2,1H1197z M1199.1,172.5h1.3l0.2,1h-1.7L1199.1,172.5z M1200.9,182.2h-1.3l-0.2-1h1.7L1200.9,182.2z
	 M1199.3,180l0.1-1h1.3l0.2,1H1199.3z M1201.1,161.2h-1.2l-0.2-0.9h1.5L1201.1,161.2z M1202.7,146.2h-1.2l-0.2-0.9h1.5L1202.7,146.2
	z M1257.9,172.5l-0.5,1.1h-5.3l-0.8-1.1H1257.9z M1250,182.7h-6.6l0.5-1.1h5.3L1250,182.7z M1248.6,172.5l-0.5,1.1h-5.3l-0.8-1.1
	H1248.6z M1223.5,172.5h5.3l0.8,1.1h-6.6L1223.5,172.5z M1229.4,176.7l-0.5,1.1h-5.3l-0.8-1.1H1229.4z M1229.4,179.2l-0.5,1.1h-5.3
	l-0.8-1.1H1229.4z M1214.3,172.5h5.3l0.8,1.1h-6.6L1214.3,172.5z M1221.7,181.5l-0.5,1.1h-5.3l-0.8-1.1H1221.7z M1213.8,174.7h6.6
	l-0.5,1.1h-5.3L1213.8,174.7z M1215,187.3l0.5-1.1h5.3l0.8,1.1H1215z M1221.7,183.9h6.6l-0.5,1.1h-5.3L1221.7,183.9z M1224.4,187.3
	l0.5-1.1h5.3l0.8,1.1H1224.4z M1224.6,182.7l0.5-1.1h5.3l0.8,1.1H1224.6z M1238.9,174.7l-0.5,1.1h-5.3l-0.8-1.1H1238.9z M1238.6,185
	h-5.3l-0.8-1.1h6.6L1238.6,185z M1232.6,180.3l0.5-1.1h5.3l0.8,1.1H1232.6z M1232.6,177.8l0.5-1.1h5.3l0.8,1.1H1232.6z
	 M1242.5,174.7h5.3l0.8,1.1h-6.6L1242.5,174.7z M1242.3,183.9h6.6l-0.5,1.1h-5.3L1242.3,183.9z M1249.5,187.3h-5.3l-0.8-1.1h6.6
	L1249.5,187.3z M1250,185l0.5-1.1h5.3l0.8,1.1H1250z M1251.4,180.3l0.5-1.1h5.3l0.8,1.1H1251.4z M1251.4,177.8l0.5-1.1h5.3l0.8,1.1
	H1251.4z M1261.9,172.3l1.6,0.4v0.7l-1.6-0.3V172.3z M1263.6,177v-0.8l1.6,0.4v0.7L1263.6,177z M1265.1,179.7v0.7l-1.6-0.3v-0.8
	L1265.1,179.7z M1264.8,175.3l-1.6-0.3v-0.8l1.6,0.4V175.3z M1261.9,177.5l1.6,0.4v0.7l-1.6-0.3V177.5z M1261.7,180.7l1.6,0.4v0.7
	l-1.6-0.3V180.7z M1264.3,183.1v0.7l-1.6-0.3v-0.8L1264.3,183.1z M1261.4,184.2l1.6,0.4v0.7l-1.6-0.3V184.2z M1264.3,186.1v0.7
	l-1.6-0.3v-0.8L1264.3,186.1z M1262.9,188.6l-1.6-0.3v-0.8l1.6,0.4V188.6z M1265.3,188.6l-1.6-0.3v-0.8l1.6,0.4V188.6z
	 M1265.6,185.5l-1.6-0.3v-0.8l1.6,0.4V185.5z M1265.6,182.5l-1.6-0.3v-0.8l1.6,0.4V182.5z M1265.9,174l-1.6-0.3v-0.8l1.6,0.4V174z
	 M1274.3,185h-2.7v-3.3h2.7V185z M1280.6,189.2h-2.4v-4.1h2.4V189.2z M1289,185h-2.7v-3.3h2.7V185z"/>
</svg>
